<svg width="483" height="379" viewBox="0 0 483 379" fill="none" xmlns="http://www.w3.org/2000/svg">
<g filter="url(#filter0_d)">
<mask id="mask0" mask-type="alpha" maskUnits="userSpaceOnUse" x="15" y="7" width="453" height="349">
<rect x="15" y="7.40234" width="453" height="348" rx="20" fill="#FE840E"/>
</mask>
<g mask="url(#mask0)">
<rect x="15" y="7.40234" width="453" height="348" fill="white"/>
<circle cx="110.5" cy="9.90234" r="1.5" fill="#E3E3E3"/>
<circle cx="128.5" cy="9.90234" r="1.5" fill="#E3E3E3"/>
<circle cx="146.5" cy="9.90234" r="1.5" fill="#E3E3E3"/>
<circle cx="164.5" cy="9.90234" r="1.5" fill="#E3E3E3"/>
<circle cx="182.5" cy="9.90234" r="1.5" fill="#E3E3E3"/>
<circle cx="200.5" cy="9.90234" r="1.5" fill="#E3E3E3"/>
<circle cx="218.5" cy="9.90234" r="1.5" fill="#E3E3E3"/>
<circle cx="236.5" cy="9.90234" r="1.5" fill="#E3E3E3"/>
<circle cx="254.5" cy="9.90234" r="1.5" fill="#E3E3E3"/>
<circle cx="272.5" cy="9.90234" r="1.5" fill="#E3E3E3"/>
<circle cx="290.5" cy="9.90234" r="1.5" fill="#E3E3E3"/>
<circle cx="308.5" cy="9.90234" r="1.5" fill="#E3E3E3"/>
<circle cx="326.5" cy="9.90234" r="1.5" fill="#E3E3E3"/>
<circle cx="344.5" cy="9.90234" r="1.5" fill="#E3E3E3"/>
<circle cx="362.5" cy="9.90234" r="1.5" fill="#E3E3E3"/>
<circle cx="380.5" cy="9.90234" r="1.5" fill="#E3E3E3"/>
<circle cx="398.5" cy="9.90234" r="1.5" fill="#E3E3E3"/>
<circle cx="416.5" cy="9.90234" r="1.5" fill="#E3E3E3"/>
<circle cx="434.5" cy="9.90234" r="1.5" fill="#E3E3E3"/>
<circle cx="452.5" cy="9.90234" r="1.5" fill="#E3E3E3"/>
<circle cx="110.5" cy="27.9023" r="1.5" fill="#E3E3E3"/>
<circle cx="128.5" cy="27.9023" r="1.5" fill="#E3E3E3"/>
<circle cx="146.5" cy="27.9023" r="1.5" fill="#E3E3E3"/>
<circle cx="164.5" cy="27.9023" r="1.5" fill="#E3E3E3"/>
<circle cx="182.5" cy="27.9023" r="1.5" fill="#E3E3E3"/>
<circle cx="200.5" cy="27.9023" r="1.5" fill="#E3E3E3"/>
<circle cx="218.5" cy="27.9023" r="1.5" fill="#E3E3E3"/>
<circle cx="236.5" cy="27.9023" r="1.5" fill="#E3E3E3"/>
<circle cx="254.5" cy="27.9023" r="1.5" fill="#E3E3E3"/>
<circle cx="272.5" cy="27.9023" r="1.5" fill="#E3E3E3"/>
<circle cx="290.5" cy="27.9023" r="1.5" fill="#E3E3E3"/>
<circle cx="308.5" cy="27.9023" r="1.5" fill="#E3E3E3"/>
<circle cx="326.5" cy="27.9023" r="1.5" fill="#E3E3E3"/>
<circle cx="344.5" cy="27.9023" r="1.5" fill="#E3E3E3"/>
<circle cx="362.5" cy="27.9023" r="1.5" fill="#E3E3E3"/>
<circle cx="380.5" cy="27.9023" r="1.5" fill="#E3E3E3"/>
<circle cx="398.5" cy="27.9023" r="1.5" fill="#E3E3E3"/>
<circle cx="416.5" cy="27.9023" r="1.5" fill="#E3E3E3"/>
<circle cx="434.5" cy="27.9023" r="1.5" fill="#E3E3E3"/>
<circle cx="452.5" cy="27.9023" r="1.5" fill="#E3E3E3"/>
<circle cx="110.5" cy="45.9023" r="1.5" fill="#E3E3E3"/>
<circle cx="128.5" cy="45.9023" r="1.5" fill="#E3E3E3"/>
<circle cx="146.5" cy="45.9023" r="1.5" fill="#E3E3E3"/>
<circle cx="164.5" cy="45.9023" r="1.5" fill="#E3E3E3"/>
<circle cx="182.5" cy="45.9023" r="1.5" fill="#E3E3E3"/>
<circle cx="200.5" cy="45.9023" r="1.5" fill="#E3E3E3"/>
<circle cx="218.5" cy="45.9023" r="1.5" fill="#E3E3E3"/>
<circle cx="236.5" cy="45.9023" r="1.5" fill="#E3E3E3"/>
<circle cx="254.5" cy="45.9023" r="1.5" fill="#E3E3E3"/>
<circle cx="272.5" cy="45.9023" r="1.5" fill="#E3E3E3"/>
<circle cx="290.5" cy="45.9023" r="1.5" fill="#E3E3E3"/>
<circle cx="308.5" cy="45.9023" r="1.5" fill="#E3E3E3"/>
<circle cx="326.5" cy="45.9023" r="1.5" fill="#E3E3E3"/>
<circle cx="344.5" cy="45.9023" r="1.5" fill="#E3E3E3"/>
<circle cx="362.5" cy="45.9023" r="1.5" fill="#E3E3E3"/>
<circle cx="380.5" cy="45.9023" r="1.5" fill="#E3E3E3"/>
<circle cx="398.5" cy="45.9023" r="1.5" fill="#E3E3E3"/>
<circle cx="416.5" cy="45.9023" r="1.5" fill="#E3E3E3"/>
<circle cx="434.5" cy="45.9023" r="1.5" fill="#E3E3E3"/>
<circle cx="452.5" cy="45.9023" r="1.5" fill="#E3E3E3"/>
<circle cx="110.5" cy="63.9023" r="1.5" fill="#E3E3E3"/>
<circle cx="128.5" cy="63.9023" r="1.5" fill="#E3E3E3"/>
<circle cx="146.5" cy="63.9023" r="1.5" fill="#E3E3E3"/>
<circle cx="164.5" cy="63.9023" r="1.5" fill="#E3E3E3"/>
<circle cx="182.5" cy="63.9023" r="1.5" fill="#E3E3E3"/>
<circle cx="200.5" cy="63.9023" r="1.5" fill="#E3E3E3"/>
<circle cx="218.5" cy="63.9023" r="1.5" fill="#E3E3E3"/>
<circle cx="236.5" cy="63.9023" r="1.5" fill="#E3E3E3"/>
<circle cx="254.5" cy="63.9023" r="1.5" fill="#E3E3E3"/>
<circle cx="272.5" cy="63.9023" r="1.5" fill="#E3E3E3"/>
<circle cx="290.5" cy="63.9023" r="1.5" fill="#E3E3E3"/>
<circle cx="308.5" cy="63.9023" r="1.5" fill="#E3E3E3"/>
<circle cx="326.5" cy="63.9023" r="1.5" fill="#E3E3E3"/>
<circle cx="344.5" cy="63.9023" r="1.5" fill="#E3E3E3"/>
<circle cx="362.5" cy="63.9023" r="1.5" fill="#E3E3E3"/>
<circle cx="380.5" cy="63.9023" r="1.5" fill="#E3E3E3"/>
<circle cx="398.5" cy="63.9023" r="1.5" fill="#E3E3E3"/>
<circle cx="416.5" cy="63.9023" r="1.5" fill="#E3E3E3"/>
<circle cx="434.5" cy="63.9023" r="1.5" fill="#E3E3E3"/>
<circle cx="452.5" cy="63.9023" r="1.5" fill="#E3E3E3"/>
<circle cx="110.5" cy="81.9023" r="1.5" fill="#E3E3E3"/>
<circle cx="128.5" cy="81.9023" r="1.5" fill="#E3E3E3"/>
<circle cx="146.5" cy="81.9023" r="1.5" fill="#E3E3E3"/>
<circle cx="164.5" cy="81.9023" r="1.5" fill="#E3E3E3"/>
<circle cx="182.5" cy="81.9023" r="1.5" fill="#E3E3E3"/>
<circle cx="200.5" cy="81.9023" r="1.5" fill="#E3E3E3"/>
<circle cx="218.5" cy="81.9023" r="1.5" fill="#E3E3E3"/>
<circle cx="236.5" cy="81.9023" r="1.5" fill="#E3E3E3"/>
<circle cx="254.5" cy="81.9023" r="1.5" fill="#E3E3E3"/>
<circle cx="272.5" cy="81.9023" r="1.5" fill="#E3E3E3"/>
<circle cx="290.5" cy="81.9023" r="1.5" fill="#E3E3E3"/>
<circle cx="308.5" cy="81.9023" r="1.5" fill="#E3E3E3"/>
<circle cx="326.5" cy="81.9023" r="1.5" fill="#E3E3E3"/>
<circle cx="344.5" cy="81.9023" r="1.5" fill="#E3E3E3"/>
<circle cx="362.5" cy="81.9023" r="1.5" fill="#E3E3E3"/>
<circle cx="380.5" cy="81.9023" r="1.5" fill="#E3E3E3"/>
<circle cx="398.5" cy="81.9023" r="1.5" fill="#E3E3E3"/>
<circle cx="416.5" cy="81.9023" r="1.5" fill="#E3E3E3"/>
<circle cx="434.5" cy="81.9023" r="1.5" fill="#E3E3E3"/>
<circle cx="452.5" cy="81.9023" r="1.5" fill="#E3E3E3"/>
<circle cx="110.5" cy="99.9023" r="1.5" fill="#E3E3E3"/>
<circle cx="128.5" cy="99.9023" r="1.5" fill="#E3E3E3"/>
<circle cx="146.5" cy="99.9023" r="1.5" fill="#E3E3E3"/>
<circle cx="164.5" cy="99.9023" r="1.5" fill="#E3E3E3"/>
<circle cx="182.5" cy="99.9023" r="1.5" fill="#E3E3E3"/>
<circle cx="200.5" cy="99.9023" r="1.5" fill="#E3E3E3"/>
<circle cx="218.5" cy="99.9023" r="1.5" fill="#E3E3E3"/>
<circle cx="236.5" cy="99.9023" r="1.5" fill="#E3E3E3"/>
<circle cx="254.5" cy="99.9023" r="1.5" fill="#E3E3E3"/>
<circle cx="272.5" cy="99.9023" r="1.5" fill="#E3E3E3"/>
<circle cx="290.5" cy="99.9023" r="1.5" fill="#E3E3E3"/>
<circle cx="308.5" cy="99.9023" r="1.5" fill="#E3E3E3"/>
<circle cx="326.5" cy="99.9023" r="1.5" fill="#E3E3E3"/>
<circle cx="344.5" cy="99.9023" r="1.5" fill="#E3E3E3"/>
<circle cx="362.5" cy="99.9023" r="1.5" fill="#E3E3E3"/>
<circle cx="380.5" cy="99.9023" r="1.5" fill="#E3E3E3"/>
<circle cx="398.5" cy="99.9023" r="1.5" fill="#E3E3E3"/>
<circle cx="416.5" cy="99.9023" r="1.5" fill="#E3E3E3"/>
<circle cx="434.5" cy="99.9023" r="1.5" fill="#E3E3E3"/>
<circle cx="452.5" cy="99.9023" r="1.5" fill="#E3E3E3"/>
<circle cx="110.5" cy="117.902" r="1.5" fill="#E3E3E3"/>
<circle cx="128.5" cy="117.902" r="1.5" fill="#E3E3E3"/>
<circle cx="146.5" cy="117.902" r="1.5" fill="#E3E3E3"/>
<circle cx="164.5" cy="117.902" r="1.5" fill="#E3E3E3"/>
<circle cx="182.5" cy="117.902" r="1.5" fill="#E3E3E3"/>
<circle cx="200.5" cy="117.902" r="1.5" fill="#E3E3E3"/>
<circle cx="218.5" cy="117.902" r="1.5" fill="#E3E3E3"/>
<circle cx="236.5" cy="117.902" r="1.5" fill="#E3E3E3"/>
<circle cx="254.5" cy="117.902" r="1.5" fill="#E3E3E3"/>
<circle cx="272.5" cy="117.902" r="1.5" fill="#E3E3E3"/>
<circle cx="290.5" cy="117.902" r="1.5" fill="#E3E3E3"/>
<circle cx="308.5" cy="117.902" r="1.5" fill="#E3E3E3"/>
<circle cx="326.5" cy="117.902" r="1.5" fill="#E3E3E3"/>
<circle cx="344.5" cy="117.902" r="1.5" fill="#E3E3E3"/>
<circle cx="362.5" cy="117.902" r="1.5" fill="#E3E3E3"/>
<circle cx="380.5" cy="117.902" r="1.5" fill="#E3E3E3"/>
<circle cx="398.5" cy="117.902" r="1.5" fill="#E3E3E3"/>
<circle cx="416.5" cy="117.902" r="1.5" fill="#E3E3E3"/>
<circle cx="434.5" cy="117.902" r="1.5" fill="#E3E3E3"/>
<circle cx="452.5" cy="117.902" r="1.5" fill="#E3E3E3"/>
<circle cx="110.5" cy="135.902" r="1.5" fill="#E3E3E3"/>
<circle cx="128.5" cy="135.902" r="1.5" fill="#E3E3E3"/>
<circle cx="146.5" cy="135.902" r="1.5" fill="#E3E3E3"/>
<circle cx="164.5" cy="135.902" r="1.5" fill="#E3E3E3"/>
<circle cx="182.5" cy="135.902" r="1.5" fill="#E3E3E3"/>
<circle cx="200.5" cy="135.902" r="1.5" fill="#E3E3E3"/>
<circle cx="218.5" cy="135.902" r="1.5" fill="#E3E3E3"/>
<circle cx="236.5" cy="135.902" r="1.5" fill="#E3E3E3"/>
<circle cx="254.5" cy="135.902" r="1.5" fill="#E3E3E3"/>
<circle cx="272.5" cy="135.902" r="1.5" fill="#E3E3E3"/>
<circle cx="290.5" cy="135.902" r="1.5" fill="#E3E3E3"/>
<circle cx="308.5" cy="135.902" r="1.5" fill="#E3E3E3"/>
<circle cx="326.5" cy="135.902" r="1.5" fill="#E3E3E3"/>
<circle cx="344.5" cy="135.902" r="1.5" fill="#E3E3E3"/>
<circle cx="362.5" cy="135.902" r="1.5" fill="#E3E3E3"/>
<circle cx="380.5" cy="135.902" r="1.5" fill="#E3E3E3"/>
<circle cx="398.5" cy="135.902" r="1.5" fill="#E3E3E3"/>
<circle cx="416.5" cy="135.902" r="1.5" fill="#E3E3E3"/>
<circle cx="434.5" cy="135.902" r="1.5" fill="#E3E3E3"/>
<circle cx="452.5" cy="135.902" r="1.5" fill="#E3E3E3"/>
<circle cx="110.5" cy="153.902" r="1.5" fill="#E3E3E3"/>
<circle cx="128.5" cy="153.902" r="1.5" fill="#E3E3E3"/>
<circle cx="146.5" cy="153.902" r="1.5" fill="#E3E3E3"/>
<circle cx="164.5" cy="153.902" r="1.5" fill="#E3E3E3"/>
<circle cx="182.5" cy="153.902" r="1.5" fill="#E3E3E3"/>
<circle cx="200.5" cy="153.902" r="1.5" fill="#E3E3E3"/>
<circle cx="218.5" cy="153.902" r="1.5" fill="#E3E3E3"/>
<circle cx="236.5" cy="153.902" r="1.5" fill="#E3E3E3"/>
<circle cx="254.5" cy="153.902" r="1.5" fill="#E3E3E3"/>
<circle cx="272.5" cy="153.902" r="1.5" fill="#E3E3E3"/>
<circle cx="290.5" cy="153.902" r="1.5" fill="#E3E3E3"/>
<circle cx="308.5" cy="153.902" r="1.5" fill="#E3E3E3"/>
<circle cx="326.5" cy="153.902" r="1.5" fill="#E3E3E3"/>
<circle cx="344.5" cy="153.902" r="1.5" fill="#E3E3E3"/>
<circle cx="362.5" cy="153.902" r="1.5" fill="#E3E3E3"/>
<circle cx="380.5" cy="153.902" r="1.5" fill="#E3E3E3"/>
<circle cx="398.5" cy="153.902" r="1.5" fill="#E3E3E3"/>
<circle cx="416.5" cy="153.902" r="1.5" fill="#E3E3E3"/>
<circle cx="434.5" cy="153.902" r="1.5" fill="#E3E3E3"/>
<circle cx="452.5" cy="153.902" r="1.5" fill="#E3E3E3"/>
<circle cx="110.5" cy="171.902" r="1.5" fill="#E3E3E3"/>
<circle cx="128.5" cy="171.902" r="1.5" fill="#E3E3E3"/>
<circle cx="146.5" cy="171.902" r="1.5" fill="#E3E3E3"/>
<circle cx="164.5" cy="171.902" r="1.5" fill="#E3E3E3"/>
<circle cx="182.5" cy="171.902" r="1.5" fill="#E3E3E3"/>
<circle cx="200.5" cy="171.902" r="1.5" fill="#E3E3E3"/>
<circle cx="218.5" cy="171.902" r="1.5" fill="#E3E3E3"/>
<circle cx="236.5" cy="171.902" r="1.5" fill="#E3E3E3"/>
<circle cx="254.5" cy="171.902" r="1.5" fill="#E3E3E3"/>
<circle cx="272.5" cy="171.902" r="1.5" fill="#E3E3E3"/>
<circle cx="290.5" cy="171.902" r="1.5" fill="#E3E3E3"/>
<circle cx="308.5" cy="171.902" r="1.5" fill="#E3E3E3"/>
<circle cx="326.5" cy="171.902" r="1.5" fill="#E3E3E3"/>
<circle cx="344.5" cy="171.902" r="1.5" fill="#E3E3E3"/>
<circle cx="362.5" cy="171.902" r="1.5" fill="#E3E3E3"/>
<circle cx="380.5" cy="171.902" r="1.5" fill="#E3E3E3"/>
<circle cx="398.5" cy="171.902" r="1.5" fill="#E3E3E3"/>
<circle cx="416.5" cy="171.902" r="1.5" fill="#E3E3E3"/>
<circle cx="434.5" cy="171.902" r="1.5" fill="#E3E3E3"/>
<circle cx="452.5" cy="171.902" r="1.5" fill="#E3E3E3"/>
<circle cx="110.5" cy="189.902" r="1.5" fill="#E3E3E3"/>
<circle cx="128.5" cy="189.902" r="1.5" fill="#E3E3E3"/>
<circle cx="146.5" cy="189.902" r="1.5" fill="#E3E3E3"/>
<circle cx="164.5" cy="189.902" r="1.5" fill="#E3E3E3"/>
<circle cx="182.5" cy="189.902" r="1.5" fill="#E3E3E3"/>
<circle cx="200.5" cy="189.902" r="1.5" fill="#E3E3E3"/>
<circle cx="218.5" cy="189.902" r="1.5" fill="#E3E3E3"/>
<circle cx="236.5" cy="189.902" r="1.5" fill="#E3E3E3"/>
<circle cx="254.5" cy="189.902" r="1.5" fill="#E3E3E3"/>
<circle cx="272.5" cy="189.902" r="1.5" fill="#E3E3E3"/>
<circle cx="290.5" cy="189.902" r="1.5" fill="#E3E3E3"/>
<circle cx="308.5" cy="189.902" r="1.5" fill="#E3E3E3"/>
<circle cx="326.5" cy="189.902" r="1.5" fill="#E3E3E3"/>
<circle cx="344.5" cy="189.902" r="1.5" fill="#E3E3E3"/>
<circle cx="362.5" cy="189.902" r="1.5" fill="#E3E3E3"/>
<circle cx="380.5" cy="189.902" r="1.5" fill="#E3E3E3"/>
<circle cx="398.5" cy="189.902" r="1.5" fill="#E3E3E3"/>
<circle cx="416.5" cy="189.902" r="1.5" fill="#E3E3E3"/>
<circle cx="434.5" cy="189.902" r="1.5" fill="#E3E3E3"/>
<circle cx="452.5" cy="189.902" r="1.5" fill="#E3E3E3"/>
<circle cx="110.5" cy="207.902" r="1.5" fill="#E3E3E3"/>
<circle cx="128.5" cy="207.902" r="1.5" fill="#E3E3E3"/>
<circle cx="146.5" cy="207.902" r="1.5" fill="#E3E3E3"/>
<circle cx="164.5" cy="207.902" r="1.5" fill="#E3E3E3"/>
<circle cx="182.5" cy="207.902" r="1.5" fill="#E3E3E3"/>
<circle cx="200.5" cy="207.902" r="1.5" fill="#E3E3E3"/>
<circle cx="218.5" cy="207.902" r="1.5" fill="#E3E3E3"/>
<circle cx="236.5" cy="207.902" r="1.5" fill="#E3E3E3"/>
<circle cx="254.5" cy="207.902" r="1.5" fill="#E3E3E3"/>
<circle cx="272.5" cy="207.902" r="1.5" fill="#E3E3E3"/>
<circle cx="290.5" cy="207.902" r="1.5" fill="#E3E3E3"/>
<circle cx="308.5" cy="207.902" r="1.5" fill="#E3E3E3"/>
<circle cx="326.5" cy="207.902" r="1.5" fill="#E3E3E3"/>
<circle cx="344.5" cy="207.902" r="1.5" fill="#E3E3E3"/>
<circle cx="362.5" cy="207.902" r="1.5" fill="#E3E3E3"/>
<circle cx="380.5" cy="207.902" r="1.5" fill="#E3E3E3"/>
<circle cx="398.5" cy="207.902" r="1.5" fill="#E3E3E3"/>
<circle cx="416.5" cy="207.902" r="1.5" fill="#E3E3E3"/>
<circle cx="434.5" cy="207.902" r="1.5" fill="#E3E3E3"/>
<circle cx="452.5" cy="207.902" r="1.5" fill="#E3E3E3"/>
<circle cx="110.5" cy="225.902" r="1.5" fill="#E3E3E3"/>
<circle cx="128.5" cy="225.902" r="1.5" fill="#E3E3E3"/>
<circle cx="146.5" cy="225.902" r="1.5" fill="#E3E3E3"/>
<circle cx="164.5" cy="225.902" r="1.5" fill="#E3E3E3"/>
<circle cx="182.5" cy="225.902" r="1.5" fill="#E3E3E3"/>
<circle cx="200.5" cy="225.902" r="1.5" fill="#E3E3E3"/>
<circle cx="218.5" cy="225.902" r="1.5" fill="#E3E3E3"/>
<circle cx="236.5" cy="225.902" r="1.5" fill="#E3E3E3"/>
<circle cx="254.5" cy="225.902" r="1.5" fill="#E3E3E3"/>
<circle cx="272.5" cy="225.902" r="1.5" fill="#E3E3E3"/>
<circle cx="290.5" cy="225.902" r="1.5" fill="#E3E3E3"/>
<circle cx="308.5" cy="225.902" r="1.5" fill="#E3E3E3"/>
<circle cx="326.5" cy="225.902" r="1.5" fill="#E3E3E3"/>
<circle cx="344.5" cy="225.902" r="1.5" fill="#E3E3E3"/>
<circle cx="362.5" cy="225.902" r="1.5" fill="#E3E3E3"/>
<circle cx="380.5" cy="225.902" r="1.5" fill="#E3E3E3"/>
<circle cx="398.5" cy="225.902" r="1.5" fill="#E3E3E3"/>
<circle cx="416.5" cy="225.902" r="1.5" fill="#E3E3E3"/>
<circle cx="434.5" cy="225.902" r="1.5" fill="#E3E3E3"/>
<circle cx="452.5" cy="225.902" r="1.5" fill="#E3E3E3"/>
<circle cx="110.5" cy="243.902" r="1.5" fill="#E3E3E3"/>
<circle cx="128.5" cy="243.902" r="1.5" fill="#E3E3E3"/>
<circle cx="146.5" cy="243.902" r="1.5" fill="#E3E3E3"/>
<circle cx="164.5" cy="243.902" r="1.5" fill="#E3E3E3"/>
<circle cx="182.5" cy="243.902" r="1.5" fill="#E3E3E3"/>
<circle cx="200.5" cy="243.902" r="1.5" fill="#E3E3E3"/>
<circle cx="218.5" cy="243.902" r="1.5" fill="#E3E3E3"/>
<circle cx="236.5" cy="243.902" r="1.5" fill="#E3E3E3"/>
<circle cx="254.5" cy="243.902" r="1.5" fill="#E3E3E3"/>
<circle cx="272.5" cy="243.902" r="1.5" fill="#E3E3E3"/>
<circle cx="290.5" cy="243.902" r="1.5" fill="#E3E3E3"/>
<circle cx="308.5" cy="243.902" r="1.5" fill="#E3E3E3"/>
<circle cx="326.5" cy="243.902" r="1.5" fill="#E3E3E3"/>
<circle cx="344.5" cy="243.902" r="1.5" fill="#E3E3E3"/>
<circle cx="362.5" cy="243.902" r="1.5" fill="#E3E3E3"/>
<circle cx="380.5" cy="243.902" r="1.5" fill="#E3E3E3"/>
<circle cx="398.5" cy="243.902" r="1.5" fill="#E3E3E3"/>
<circle cx="416.5" cy="243.902" r="1.5" fill="#E3E3E3"/>
<circle cx="434.5" cy="243.902" r="1.5" fill="#E3E3E3"/>
<circle cx="452.5" cy="243.902" r="1.5" fill="#E3E3E3"/>
<circle cx="110.5" cy="261.902" r="1.5" fill="#E3E3E3"/>
<circle cx="128.5" cy="261.902" r="1.5" fill="#E3E3E3"/>
<circle cx="146.5" cy="261.902" r="1.5" fill="#E3E3E3"/>
<circle cx="164.5" cy="261.902" r="1.5" fill="#E3E3E3"/>
<circle cx="182.5" cy="261.902" r="1.5" fill="#E3E3E3"/>
<circle cx="200.5" cy="261.902" r="1.5" fill="#E3E3E3"/>
<circle cx="218.5" cy="261.902" r="1.5" fill="#E3E3E3"/>
<circle cx="236.5" cy="261.902" r="1.5" fill="#E3E3E3"/>
<circle cx="254.5" cy="261.902" r="1.5" fill="#E3E3E3"/>
<circle cx="272.5" cy="261.902" r="1.5" fill="#E3E3E3"/>
<circle cx="290.5" cy="261.902" r="1.5" fill="#E3E3E3"/>
<circle cx="308.5" cy="261.902" r="1.5" fill="#E3E3E3"/>
<circle cx="326.5" cy="261.902" r="1.5" fill="#E3E3E3"/>
<circle cx="344.5" cy="261.902" r="1.5" fill="#E3E3E3"/>
<circle cx="362.5" cy="261.902" r="1.5" fill="#E3E3E3"/>
<circle cx="380.5" cy="261.902" r="1.5" fill="#E3E3E3"/>
<circle cx="398.5" cy="261.902" r="1.5" fill="#E3E3E3"/>
<circle cx="416.5" cy="261.902" r="1.5" fill="#E3E3E3"/>
<circle cx="434.5" cy="261.902" r="1.5" fill="#E3E3E3"/>
<circle cx="452.5" cy="261.902" r="1.5" fill="#E3E3E3"/>
<circle cx="110.5" cy="279.902" r="1.5" fill="#E3E3E3"/>
<circle cx="128.5" cy="279.902" r="1.5" fill="#E3E3E3"/>
<circle cx="146.5" cy="279.902" r="1.5" fill="#E3E3E3"/>
<circle cx="164.5" cy="279.902" r="1.5" fill="#E3E3E3"/>
<circle cx="182.5" cy="279.902" r="1.5" fill="#E3E3E3"/>
<circle cx="200.5" cy="279.902" r="1.5" fill="#E3E3E3"/>
<circle cx="218.5" cy="279.902" r="1.5" fill="#E3E3E3"/>
<circle cx="236.5" cy="279.902" r="1.5" fill="#E3E3E3"/>
<circle cx="254.5" cy="279.902" r="1.5" fill="#E3E3E3"/>
<circle cx="272.5" cy="279.902" r="1.5" fill="#E3E3E3"/>
<circle cx="290.5" cy="279.902" r="1.5" fill="#E3E3E3"/>
<circle cx="308.5" cy="279.902" r="1.5" fill="#E3E3E3"/>
<circle cx="326.5" cy="279.902" r="1.5" fill="#E3E3E3"/>
<circle cx="344.5" cy="279.902" r="1.5" fill="#E3E3E3"/>
<circle cx="362.5" cy="279.902" r="1.5" fill="#E3E3E3"/>
<circle cx="380.5" cy="279.902" r="1.5" fill="#E3E3E3"/>
<circle cx="398.5" cy="279.902" r="1.5" fill="#E3E3E3"/>
<circle cx="416.5" cy="279.902" r="1.5" fill="#E3E3E3"/>
<circle cx="434.5" cy="279.902" r="1.5" fill="#E3E3E3"/>
<circle cx="452.5" cy="279.902" r="1.5" fill="#E3E3E3"/>
<circle cx="110.5" cy="297.902" r="1.5" fill="#E3E3E3"/>
<circle cx="128.5" cy="297.902" r="1.5" fill="#E3E3E3"/>
<circle cx="146.5" cy="297.902" r="1.5" fill="#E3E3E3"/>
<circle cx="164.5" cy="297.902" r="1.5" fill="#E3E3E3"/>
<circle cx="182.5" cy="297.902" r="1.5" fill="#E3E3E3"/>
<circle cx="200.5" cy="297.902" r="1.5" fill="#E3E3E3"/>
<circle cx="218.5" cy="297.902" r="1.5" fill="#E3E3E3"/>
<circle cx="236.5" cy="297.902" r="1.5" fill="#E3E3E3"/>
<circle cx="254.5" cy="297.902" r="1.5" fill="#E3E3E3"/>
<circle cx="272.5" cy="297.902" r="1.5" fill="#E3E3E3"/>
<circle cx="290.5" cy="297.902" r="1.5" fill="#E3E3E3"/>
<circle cx="308.5" cy="297.902" r="1.5" fill="#E3E3E3"/>
<circle cx="326.5" cy="297.902" r="1.5" fill="#E3E3E3"/>
<circle cx="344.5" cy="297.902" r="1.5" fill="#E3E3E3"/>
<circle cx="362.5" cy="297.902" r="1.5" fill="#E3E3E3"/>
<circle cx="380.5" cy="297.902" r="1.5" fill="#E3E3E3"/>
<circle cx="398.5" cy="297.902" r="1.5" fill="#E3E3E3"/>
<circle cx="416.5" cy="297.902" r="1.5" fill="#E3E3E3"/>
<circle cx="434.5" cy="297.902" r="1.5" fill="#E3E3E3"/>
<circle cx="452.5" cy="297.902" r="1.5" fill="#E3E3E3"/>
<circle cx="110.5" cy="315.902" r="1.5" fill="#E3E3E3"/>
<circle cx="128.5" cy="315.902" r="1.5" fill="#E3E3E3"/>
<circle cx="146.5" cy="315.902" r="1.5" fill="#E3E3E3"/>
<circle cx="164.5" cy="315.902" r="1.5" fill="#E3E3E3"/>
<circle cx="182.5" cy="315.902" r="1.5" fill="#E3E3E3"/>
<circle cx="200.5" cy="315.902" r="1.5" fill="#E3E3E3"/>
<circle cx="218.5" cy="315.902" r="1.5" fill="#E3E3E3"/>
<circle cx="236.5" cy="315.902" r="1.5" fill="#E3E3E3"/>
<circle cx="254.5" cy="315.902" r="1.5" fill="#E3E3E3"/>
<circle cx="272.5" cy="315.902" r="1.5" fill="#E3E3E3"/>
<circle cx="290.5" cy="315.902" r="1.5" fill="#E3E3E3"/>
<circle cx="308.5" cy="315.902" r="1.5" fill="#E3E3E3"/>
<circle cx="326.5" cy="315.902" r="1.5" fill="#E3E3E3"/>
<circle cx="344.5" cy="315.902" r="1.5" fill="#E3E3E3"/>
<circle cx="362.5" cy="315.902" r="1.5" fill="#E3E3E3"/>
<circle cx="380.5" cy="315.902" r="1.5" fill="#E3E3E3"/>
<circle cx="398.5" cy="315.902" r="1.5" fill="#E3E3E3"/>
<circle cx="416.5" cy="315.902" r="1.5" fill="#E3E3E3"/>
<circle cx="434.5" cy="315.902" r="1.5" fill="#E3E3E3"/>
<circle cx="452.5" cy="315.902" r="1.5" fill="#E3E3E3"/>
<circle cx="110.5" cy="333.902" r="1.5" fill="#E3E3E3"/>
<circle cx="128.5" cy="333.902" r="1.5" fill="#E3E3E3"/>
<circle cx="146.5" cy="333.902" r="1.5" fill="#E3E3E3"/>
<circle cx="164.5" cy="333.902" r="1.5" fill="#E3E3E3"/>
<circle cx="182.5" cy="333.902" r="1.5" fill="#E3E3E3"/>
<circle cx="200.5" cy="333.902" r="1.5" fill="#E3E3E3"/>
<circle cx="218.5" cy="333.902" r="1.5" fill="#E3E3E3"/>
<circle cx="236.5" cy="333.902" r="1.5" fill="#E3E3E3"/>
<circle cx="254.5" cy="333.902" r="1.5" fill="#E3E3E3"/>
<circle cx="272.5" cy="333.902" r="1.5" fill="#E3E3E3"/>
<circle cx="290.5" cy="333.902" r="1.5" fill="#E3E3E3"/>
<circle cx="308.5" cy="333.902" r="1.5" fill="#E3E3E3"/>
<circle cx="326.5" cy="333.902" r="1.5" fill="#E3E3E3"/>
<circle cx="344.5" cy="333.902" r="1.5" fill="#E3E3E3"/>
<circle cx="362.5" cy="333.902" r="1.5" fill="#E3E3E3"/>
<circle cx="380.5" cy="333.902" r="1.5" fill="#E3E3E3"/>
<circle cx="398.5" cy="333.902" r="1.5" fill="#E3E3E3"/>
<circle cx="416.5" cy="333.902" r="1.5" fill="#E3E3E3"/>
<circle cx="434.5" cy="333.902" r="1.5" fill="#E3E3E3"/>
<circle cx="452.5" cy="333.902" r="1.5" fill="#E3E3E3"/>
<circle cx="110.5" cy="351.902" r="1.5" fill="#E3E3E3"/>
<circle cx="128.5" cy="351.902" r="1.5" fill="#E3E3E3"/>
<circle cx="146.5" cy="351.902" r="1.5" fill="#E3E3E3"/>
<circle cx="164.5" cy="351.902" r="1.5" fill="#E3E3E3"/>
<circle cx="182.5" cy="351.902" r="1.5" fill="#E3E3E3"/>
<circle cx="200.5" cy="351.902" r="1.5" fill="#E3E3E3"/>
<circle cx="218.5" cy="351.902" r="1.5" fill="#E3E3E3"/>
<circle cx="236.5" cy="351.902" r="1.5" fill="#E3E3E3"/>
<circle cx="254.5" cy="351.902" r="1.5" fill="#E3E3E3"/>
<circle cx="272.5" cy="351.902" r="1.5" fill="#E3E3E3"/>
<circle cx="290.5" cy="351.902" r="1.5" fill="#E3E3E3"/>
<circle cx="308.5" cy="351.902" r="1.5" fill="#E3E3E3"/>
<circle cx="326.5" cy="351.902" r="1.5" fill="#E3E3E3"/>
<circle cx="344.5" cy="351.902" r="1.5" fill="#E3E3E3"/>
<circle cx="362.5" cy="351.902" r="1.5" fill="#E3E3E3"/>
<circle cx="380.5" cy="351.902" r="1.5" fill="#E3E3E3"/>
<circle cx="398.5" cy="351.902" r="1.5" fill="#E3E3E3"/>
<circle cx="416.5" cy="351.902" r="1.5" fill="#E3E3E3"/>
<circle cx="434.5" cy="351.902" r="1.5" fill="#E3E3E3"/>
<circle cx="452.5" cy="351.902" r="1.5" fill="#E3E3E3"/>
<rect x="15" y="7.40234" width="453" height="348" fill="url(#paint0_radial)"/>
<path d="M3.43037 299.32C-11.6742 296.608 -24.6847 283.351 -35.2744 268.541C-45.8466 253.756 -53.9739 237.401 -52.1171 222.079C-50.2603 206.757 -38.4063 192.385 -24.1707 183.692C-9.91745 175.024 6.70639 171.968 22.6948 174.217C38.7009 176.49 54.0298 184.06 64.9116 196.588C75.7934 209.115 82.2039 226.617 79.4633 242.401C76.7161 258.227 64.7761 272.33 50.2484 283.305C35.679 294.274 18.5285 302.073 3.43037 299.32Z" fill="#F06C46"/>
<path d="M41.52 125.322C34.08 125.322 27.48 123.602 21.72 120.162C16.04 116.642 11.56 111.602 8.28 105.042C5.08 98.4023 3.48 90.5223 3.48 81.4023C3.48 72.2823 5.08 64.4423 8.28 57.8823C11.56 51.2423 16.04 46.2023 21.72 42.7623C27.48 39.2423 34.08 37.4823 41.52 37.4823C48.96 37.4823 55.52 39.2423 61.2 42.7623C66.96 46.2023 71.44 51.2423 74.64 57.8823C77.92 64.4423 79.56 72.2823 79.56 81.4023C79.56 90.5223 77.92 98.4023 74.64 105.042C71.44 111.602 66.96 116.642 61.2 120.162C55.52 123.602 48.96 125.322 41.52 125.322ZM41.52 102.642C47.92 102.642 51.12 95.5623 51.12 81.4023C51.12 67.2423 47.92 60.1623 41.52 60.1623C35.12 60.1623 31.92 67.2423 31.92 81.4023C31.92 95.5623 35.12 102.642 41.52 102.642ZM155.086 39.4023V56.8023L127.126 123.402H96.1659L122.806 61.3623L106.606 61.3623V73.6023H83.2059L83.2059 39.4023L155.086 39.4023Z" fill="#E3E3E3"/>
</g>
</g>
<g clip-path="url(#clip0)">
<path d="M298.403 73.4818V61.6646H350.294L377.739 89.0911V174.89H355.712" stroke="#C81F56" stroke-width="3" stroke-miterlimit="10" stroke-linecap="round" stroke-linejoin="round"/>
<path d="M350.314 89.0911H377.739L350.314 61.6646V89.0911Z" stroke="#C81F56" stroke-width="3" stroke-miterlimit="10" stroke-linecap="round" stroke-linejoin="round"/>
<path d="M328.853 138.782H364.018" stroke="#C81F56" stroke-width="3" stroke-miterlimit="10" stroke-linecap="round" stroke-linejoin="round"/>
<path d="M323.407 126.743H364.018" stroke="#C81F56" stroke-width="3" stroke-miterlimit="10" stroke-linecap="round" stroke-linejoin="round"/>
<path d="M328.853 114.707H364.018" stroke="#C81F56" stroke-width="3" stroke-miterlimit="10" stroke-linecap="round" stroke-linejoin="round"/>
<path d="M345.543 186.135C345.543 186.135 345.543 157.909 331.577 150.382L308.879 139.095" stroke="#FE840E" stroke-width="3" stroke-miterlimit="10" stroke-linecap="round" stroke-linejoin="round"/>
<path d="M251.263 186.135C251.263 186.135 251.263 157.909 265.229 150.382L287.926 139.095" stroke="#FE840E" stroke-width="3" stroke-miterlimit="10" stroke-linecap="round" stroke-linejoin="round"/>
<path d="M315.86 142.855L317.613 157.909C306.258 154.902 301.892 146.622 301.892 146.622" stroke="#FE840E" stroke-width="3" stroke-miterlimit="10" stroke-linecap="round" stroke-linejoin="round"/>
<path d="M280.944 142.855L279.194 157.909C290.548 154.902 294.914 146.622 294.914 146.622" stroke="#FE840E" stroke-width="3" stroke-miterlimit="10" stroke-linecap="round" stroke-linejoin="round"/>
<path d="M301.893 146.622C301.893 146.622 306.089 153.399 301.893 157.909C301.893 157.909 305.39 180.117 305.39 186.14" stroke="#FE840E" stroke-width="3" stroke-miterlimit="10" stroke-linecap="round" stroke-linejoin="round"/>
<path d="M291.416 186.14C291.416 180.116 294.913 157.909 294.913 157.909C290.716 153.399 294.913 146.622 294.913 146.622" stroke="#FE840E" stroke-width="3" stroke-miterlimit="10" stroke-linecap="round" stroke-linejoin="round"/>
<path d="M305.39 133.448C315.162 128.937 316.387 119.337 317.435 109.931C317.963 104.848 318.139 99.3921 315.862 94.6879C313.769 90.3564 309.926 87.3451 305.738 85.8416C303.467 84.8992 301.025 84.5273 298.405 84.5273C295.783 84.5273 293.341 84.8992 291.069 85.8416C286.88 87.346 283.04 90.3564 280.945 94.6879C278.669 99.3921 278.847 104.849 279.371 109.931C280.421 119.337 281.467 128.937 291.417 133.448" stroke="#FE840E" stroke-width="3" stroke-miterlimit="10" stroke-linecap="round" stroke-linejoin="round"/>
<path d="M308.88 131.567V135.329C308.88 141.542 304.164 146.622 298.404 146.622C292.642 146.622 287.927 141.542 287.927 135.329V131.567" stroke="#FE840E" stroke-width="3" stroke-miterlimit="10" stroke-linecap="round" stroke-linejoin="round"/>
</g>
<defs>
<filter id="filter0_d" x="0" y="0.402344" width="483" height="378" filterUnits="userSpaceOnUse" color-interpolation-filters="sRGB">
<feFlood flood-opacity="0" result="BackgroundImageFix"/>
<feColorMatrix in="SourceAlpha" type="matrix" values="0 0 0 0 0 0 0 0 0 0 0 0 0 0 0 0 0 0 127 0"/>
<feOffset dy="8"/>
<feGaussianBlur stdDeviation="7.5"/>
<feColorMatrix type="matrix" values="0 0 0 0 0 0 0 0 0 0 0 0 0 0 0 0 0 0 0.1 0"/>
<feBlend mode="normal" in2="BackgroundImageFix" result="effect1_dropShadow"/>
<feBlend mode="normal" in="SourceGraphic" in2="effect1_dropShadow" result="shape"/>
</filter>
<radialGradient id="paint0_radial" cx="0" cy="0" r="1" gradientUnits="userSpaceOnUse" gradientTransform="translate(332.5 169.402) rotate(180) scale(218 283.776)">
<stop stop-color="white" stop-opacity="0"/>
<stop offset="1" stop-color="white"/>
</radialGradient>
<clipPath id="clip0">
<rect width="129" height="127" fill="white" transform="translate(250 60.4023)"/>
</clipPath>
</defs>
</svg>
