<svg width="483" height="379" viewBox="0 0 483 379" fill="none" xmlns="http://www.w3.org/2000/svg">
<g filter="url(#filter0_d)">
<mask id="mask0" mask-type="alpha" maskUnits="userSpaceOnUse" x="15" y="7" width="453" height="349">
<rect x="15" y="7.40234" width="453" height="348" rx="20" fill="#FE840E"/>
</mask>
<g mask="url(#mask0)">
<rect x="15" y="7.40234" width="453" height="348" fill="white"/>
<circle cx="110.5" cy="9.90234" r="1.5" fill="#E3E3E3"/>
<circle cx="128.5" cy="9.90234" r="1.5" fill="#E3E3E3"/>
<circle cx="146.5" cy="9.90234" r="1.5" fill="#E3E3E3"/>
<circle cx="164.5" cy="9.90234" r="1.5" fill="#E3E3E3"/>
<circle cx="182.5" cy="9.90234" r="1.5" fill="#E3E3E3"/>
<circle cx="200.5" cy="9.90234" r="1.5" fill="#E3E3E3"/>
<circle cx="218.5" cy="9.90234" r="1.5" fill="#E3E3E3"/>
<circle cx="236.5" cy="9.90234" r="1.5" fill="#E3E3E3"/>
<circle cx="254.5" cy="9.90234" r="1.5" fill="#E3E3E3"/>
<circle cx="272.5" cy="9.90234" r="1.5" fill="#E3E3E3"/>
<circle cx="290.5" cy="9.90234" r="1.5" fill="#E3E3E3"/>
<circle cx="308.5" cy="9.90234" r="1.5" fill="#E3E3E3"/>
<circle cx="326.5" cy="9.90234" r="1.5" fill="#E3E3E3"/>
<circle cx="344.5" cy="9.90234" r="1.5" fill="#E3E3E3"/>
<circle cx="362.5" cy="9.90234" r="1.5" fill="#E3E3E3"/>
<circle cx="380.5" cy="9.90234" r="1.5" fill="#E3E3E3"/>
<circle cx="398.5" cy="9.90234" r="1.5" fill="#E3E3E3"/>
<circle cx="416.5" cy="9.90234" r="1.5" fill="#E3E3E3"/>
<circle cx="434.5" cy="9.90234" r="1.5" fill="#E3E3E3"/>
<circle cx="452.5" cy="9.90234" r="1.5" fill="#E3E3E3"/>
<circle cx="110.5" cy="27.9023" r="1.5" fill="#E3E3E3"/>
<circle cx="128.5" cy="27.9023" r="1.5" fill="#E3E3E3"/>
<circle cx="146.5" cy="27.9023" r="1.5" fill="#E3E3E3"/>
<circle cx="164.5" cy="27.9023" r="1.5" fill="#E3E3E3"/>
<circle cx="182.5" cy="27.9023" r="1.5" fill="#E3E3E3"/>
<circle cx="200.5" cy="27.9023" r="1.5" fill="#E3E3E3"/>
<circle cx="218.5" cy="27.9023" r="1.5" fill="#E3E3E3"/>
<circle cx="236.5" cy="27.9023" r="1.5" fill="#E3E3E3"/>
<circle cx="254.5" cy="27.9023" r="1.5" fill="#E3E3E3"/>
<circle cx="272.5" cy="27.9023" r="1.5" fill="#E3E3E3"/>
<circle cx="290.5" cy="27.9023" r="1.5" fill="#E3E3E3"/>
<circle cx="308.5" cy="27.9023" r="1.5" fill="#E3E3E3"/>
<circle cx="326.5" cy="27.9023" r="1.5" fill="#E3E3E3"/>
<circle cx="344.5" cy="27.9023" r="1.5" fill="#E3E3E3"/>
<circle cx="362.5" cy="27.9023" r="1.5" fill="#E3E3E3"/>
<circle cx="380.5" cy="27.9023" r="1.5" fill="#E3E3E3"/>
<circle cx="398.5" cy="27.9023" r="1.5" fill="#E3E3E3"/>
<circle cx="416.5" cy="27.9023" r="1.5" fill="#E3E3E3"/>
<circle cx="434.5" cy="27.9023" r="1.5" fill="#E3E3E3"/>
<circle cx="452.5" cy="27.9023" r="1.5" fill="#E3E3E3"/>
<circle cx="110.5" cy="45.9023" r="1.5" fill="#E3E3E3"/>
<circle cx="128.5" cy="45.9023" r="1.5" fill="#E3E3E3"/>
<circle cx="146.5" cy="45.9023" r="1.5" fill="#E3E3E3"/>
<circle cx="164.5" cy="45.9023" r="1.5" fill="#E3E3E3"/>
<circle cx="182.5" cy="45.9023" r="1.5" fill="#E3E3E3"/>
<circle cx="200.5" cy="45.9023" r="1.5" fill="#E3E3E3"/>
<circle cx="218.5" cy="45.9023" r="1.5" fill="#E3E3E3"/>
<circle cx="236.5" cy="45.9023" r="1.5" fill="#E3E3E3"/>
<circle cx="254.5" cy="45.9023" r="1.5" fill="#E3E3E3"/>
<circle cx="272.5" cy="45.9023" r="1.5" fill="#E3E3E3"/>
<circle cx="290.5" cy="45.9023" r="1.5" fill="#E3E3E3"/>
<circle cx="308.5" cy="45.9023" r="1.5" fill="#E3E3E3"/>
<circle cx="326.5" cy="45.9023" r="1.5" fill="#E3E3E3"/>
<circle cx="344.5" cy="45.9023" r="1.5" fill="#E3E3E3"/>
<circle cx="362.5" cy="45.9023" r="1.5" fill="#E3E3E3"/>
<circle cx="380.5" cy="45.9023" r="1.5" fill="#E3E3E3"/>
<circle cx="398.5" cy="45.9023" r="1.5" fill="#E3E3E3"/>
<circle cx="416.5" cy="45.9023" r="1.5" fill="#E3E3E3"/>
<circle cx="434.5" cy="45.9023" r="1.5" fill="#E3E3E3"/>
<circle cx="452.5" cy="45.9023" r="1.5" fill="#E3E3E3"/>
<circle cx="110.5" cy="63.9023" r="1.5" fill="#E3E3E3"/>
<circle cx="128.5" cy="63.9023" r="1.5" fill="#E3E3E3"/>
<circle cx="146.5" cy="63.9023" r="1.5" fill="#E3E3E3"/>
<circle cx="164.5" cy="63.9023" r="1.5" fill="#E3E3E3"/>
<circle cx="182.5" cy="63.9023" r="1.5" fill="#E3E3E3"/>
<circle cx="200.5" cy="63.9023" r="1.5" fill="#E3E3E3"/>
<circle cx="218.5" cy="63.9023" r="1.5" fill="#E3E3E3"/>
<circle cx="236.5" cy="63.9023" r="1.5" fill="#E3E3E3"/>
<circle cx="254.5" cy="63.9023" r="1.5" fill="#E3E3E3"/>
<circle cx="272.5" cy="63.9023" r="1.5" fill="#E3E3E3"/>
<circle cx="290.5" cy="63.9023" r="1.5" fill="#E3E3E3"/>
<circle cx="308.5" cy="63.9023" r="1.5" fill="#E3E3E3"/>
<circle cx="326.5" cy="63.9023" r="1.5" fill="#E3E3E3"/>
<circle cx="344.5" cy="63.9023" r="1.5" fill="#E3E3E3"/>
<circle cx="362.5" cy="63.9023" r="1.5" fill="#E3E3E3"/>
<circle cx="380.5" cy="63.9023" r="1.5" fill="#E3E3E3"/>
<circle cx="398.5" cy="63.9023" r="1.5" fill="#E3E3E3"/>
<circle cx="416.5" cy="63.9023" r="1.5" fill="#E3E3E3"/>
<circle cx="434.5" cy="63.9023" r="1.5" fill="#E3E3E3"/>
<circle cx="452.5" cy="63.9023" r="1.5" fill="#E3E3E3"/>
<circle cx="110.5" cy="81.9023" r="1.5" fill="#E3E3E3"/>
<circle cx="128.5" cy="81.9023" r="1.5" fill="#E3E3E3"/>
<circle cx="146.5" cy="81.9023" r="1.5" fill="#E3E3E3"/>
<circle cx="164.5" cy="81.9023" r="1.5" fill="#E3E3E3"/>
<circle cx="182.5" cy="81.9023" r="1.5" fill="#E3E3E3"/>
<circle cx="200.5" cy="81.9023" r="1.5" fill="#E3E3E3"/>
<circle cx="218.5" cy="81.9023" r="1.5" fill="#E3E3E3"/>
<circle cx="236.5" cy="81.9023" r="1.5" fill="#E3E3E3"/>
<circle cx="254.5" cy="81.9023" r="1.5" fill="#E3E3E3"/>
<circle cx="272.5" cy="81.9023" r="1.5" fill="#E3E3E3"/>
<circle cx="290.5" cy="81.9023" r="1.5" fill="#E3E3E3"/>
<circle cx="308.5" cy="81.9023" r="1.5" fill="#E3E3E3"/>
<circle cx="326.5" cy="81.9023" r="1.5" fill="#E3E3E3"/>
<circle cx="344.5" cy="81.9023" r="1.5" fill="#E3E3E3"/>
<circle cx="362.5" cy="81.9023" r="1.5" fill="#E3E3E3"/>
<circle cx="380.5" cy="81.9023" r="1.5" fill="#E3E3E3"/>
<circle cx="398.5" cy="81.9023" r="1.5" fill="#E3E3E3"/>
<circle cx="416.5" cy="81.9023" r="1.5" fill="#E3E3E3"/>
<circle cx="434.5" cy="81.9023" r="1.5" fill="#E3E3E3"/>
<circle cx="452.5" cy="81.9023" r="1.5" fill="#E3E3E3"/>
<circle cx="110.5" cy="99.9023" r="1.5" fill="#E3E3E3"/>
<circle cx="128.5" cy="99.9023" r="1.5" fill="#E3E3E3"/>
<circle cx="146.5" cy="99.9023" r="1.5" fill="#E3E3E3"/>
<circle cx="164.5" cy="99.9023" r="1.5" fill="#E3E3E3"/>
<circle cx="182.5" cy="99.9023" r="1.5" fill="#E3E3E3"/>
<circle cx="200.5" cy="99.9023" r="1.5" fill="#E3E3E3"/>
<circle cx="218.5" cy="99.9023" r="1.5" fill="#E3E3E3"/>
<circle cx="236.5" cy="99.9023" r="1.5" fill="#E3E3E3"/>
<circle cx="254.5" cy="99.9023" r="1.5" fill="#E3E3E3"/>
<circle cx="272.5" cy="99.9023" r="1.5" fill="#E3E3E3"/>
<circle cx="290.5" cy="99.9023" r="1.5" fill="#E3E3E3"/>
<circle cx="308.5" cy="99.9023" r="1.5" fill="#E3E3E3"/>
<circle cx="326.5" cy="99.9023" r="1.5" fill="#E3E3E3"/>
<circle cx="344.5" cy="99.9023" r="1.5" fill="#E3E3E3"/>
<circle cx="362.5" cy="99.9023" r="1.5" fill="#E3E3E3"/>
<circle cx="380.5" cy="99.9023" r="1.5" fill="#E3E3E3"/>
<circle cx="398.5" cy="99.9023" r="1.5" fill="#E3E3E3"/>
<circle cx="416.5" cy="99.9023" r="1.5" fill="#E3E3E3"/>
<circle cx="434.5" cy="99.9023" r="1.5" fill="#E3E3E3"/>
<circle cx="452.5" cy="99.9023" r="1.5" fill="#E3E3E3"/>
<circle cx="110.5" cy="117.902" r="1.5" fill="#E3E3E3"/>
<circle cx="128.5" cy="117.902" r="1.5" fill="#E3E3E3"/>
<circle cx="146.5" cy="117.902" r="1.5" fill="#E3E3E3"/>
<circle cx="164.5" cy="117.902" r="1.5" fill="#E3E3E3"/>
<circle cx="182.5" cy="117.902" r="1.5" fill="#E3E3E3"/>
<circle cx="200.5" cy="117.902" r="1.5" fill="#E3E3E3"/>
<circle cx="218.5" cy="117.902" r="1.5" fill="#E3E3E3"/>
<circle cx="236.5" cy="117.902" r="1.5" fill="#E3E3E3"/>
<circle cx="254.5" cy="117.902" r="1.5" fill="#E3E3E3"/>
<circle cx="272.5" cy="117.902" r="1.5" fill="#E3E3E3"/>
<circle cx="290.5" cy="117.902" r="1.5" fill="#E3E3E3"/>
<circle cx="308.5" cy="117.902" r="1.5" fill="#E3E3E3"/>
<circle cx="326.5" cy="117.902" r="1.5" fill="#E3E3E3"/>
<circle cx="344.5" cy="117.902" r="1.5" fill="#E3E3E3"/>
<circle cx="362.5" cy="117.902" r="1.5" fill="#E3E3E3"/>
<circle cx="380.5" cy="117.902" r="1.5" fill="#E3E3E3"/>
<circle cx="398.5" cy="117.902" r="1.5" fill="#E3E3E3"/>
<circle cx="416.5" cy="117.902" r="1.5" fill="#E3E3E3"/>
<circle cx="434.5" cy="117.902" r="1.5" fill="#E3E3E3"/>
<circle cx="452.5" cy="117.902" r="1.5" fill="#E3E3E3"/>
<circle cx="110.5" cy="135.902" r="1.5" fill="#E3E3E3"/>
<circle cx="128.5" cy="135.902" r="1.5" fill="#E3E3E3"/>
<circle cx="146.5" cy="135.902" r="1.5" fill="#E3E3E3"/>
<circle cx="164.5" cy="135.902" r="1.5" fill="#E3E3E3"/>
<circle cx="182.5" cy="135.902" r="1.5" fill="#E3E3E3"/>
<circle cx="200.5" cy="135.902" r="1.5" fill="#E3E3E3"/>
<circle cx="218.5" cy="135.902" r="1.5" fill="#E3E3E3"/>
<circle cx="236.5" cy="135.902" r="1.5" fill="#E3E3E3"/>
<circle cx="254.5" cy="135.902" r="1.5" fill="#E3E3E3"/>
<circle cx="272.5" cy="135.902" r="1.5" fill="#E3E3E3"/>
<circle cx="290.5" cy="135.902" r="1.5" fill="#E3E3E3"/>
<circle cx="308.5" cy="135.902" r="1.5" fill="#E3E3E3"/>
<circle cx="326.5" cy="135.902" r="1.5" fill="#E3E3E3"/>
<circle cx="344.5" cy="135.902" r="1.5" fill="#E3E3E3"/>
<circle cx="362.5" cy="135.902" r="1.5" fill="#E3E3E3"/>
<circle cx="380.5" cy="135.902" r="1.5" fill="#E3E3E3"/>
<circle cx="398.5" cy="135.902" r="1.5" fill="#E3E3E3"/>
<circle cx="416.5" cy="135.902" r="1.5" fill="#E3E3E3"/>
<circle cx="434.5" cy="135.902" r="1.5" fill="#E3E3E3"/>
<circle cx="452.5" cy="135.902" r="1.5" fill="#E3E3E3"/>
<circle cx="110.5" cy="153.902" r="1.5" fill="#E3E3E3"/>
<circle cx="128.5" cy="153.902" r="1.5" fill="#E3E3E3"/>
<circle cx="146.5" cy="153.902" r="1.5" fill="#E3E3E3"/>
<circle cx="164.5" cy="153.902" r="1.5" fill="#E3E3E3"/>
<circle cx="182.5" cy="153.902" r="1.5" fill="#E3E3E3"/>
<circle cx="200.5" cy="153.902" r="1.5" fill="#E3E3E3"/>
<circle cx="218.5" cy="153.902" r="1.5" fill="#E3E3E3"/>
<circle cx="236.5" cy="153.902" r="1.5" fill="#E3E3E3"/>
<circle cx="254.5" cy="153.902" r="1.5" fill="#E3E3E3"/>
<circle cx="272.5" cy="153.902" r="1.5" fill="#E3E3E3"/>
<circle cx="290.5" cy="153.902" r="1.5" fill="#E3E3E3"/>
<circle cx="308.5" cy="153.902" r="1.5" fill="#E3E3E3"/>
<circle cx="326.5" cy="153.902" r="1.5" fill="#E3E3E3"/>
<circle cx="344.5" cy="153.902" r="1.5" fill="#E3E3E3"/>
<circle cx="362.5" cy="153.902" r="1.5" fill="#E3E3E3"/>
<circle cx="380.5" cy="153.902" r="1.5" fill="#E3E3E3"/>
<circle cx="398.5" cy="153.902" r="1.5" fill="#E3E3E3"/>
<circle cx="416.5" cy="153.902" r="1.5" fill="#E3E3E3"/>
<circle cx="434.5" cy="153.902" r="1.5" fill="#E3E3E3"/>
<circle cx="452.5" cy="153.902" r="1.5" fill="#E3E3E3"/>
<circle cx="110.5" cy="171.902" r="1.5" fill="#E3E3E3"/>
<circle cx="128.5" cy="171.902" r="1.5" fill="#E3E3E3"/>
<circle cx="146.5" cy="171.902" r="1.5" fill="#E3E3E3"/>
<circle cx="164.5" cy="171.902" r="1.5" fill="#E3E3E3"/>
<circle cx="182.5" cy="171.902" r="1.5" fill="#E3E3E3"/>
<circle cx="200.5" cy="171.902" r="1.5" fill="#E3E3E3"/>
<circle cx="218.5" cy="171.902" r="1.5" fill="#E3E3E3"/>
<circle cx="236.5" cy="171.902" r="1.5" fill="#E3E3E3"/>
<circle cx="254.5" cy="171.902" r="1.5" fill="#E3E3E3"/>
<circle cx="272.5" cy="171.902" r="1.5" fill="#E3E3E3"/>
<circle cx="290.5" cy="171.902" r="1.5" fill="#E3E3E3"/>
<circle cx="308.5" cy="171.902" r="1.5" fill="#E3E3E3"/>
<circle cx="326.5" cy="171.902" r="1.5" fill="#E3E3E3"/>
<circle cx="344.5" cy="171.902" r="1.5" fill="#E3E3E3"/>
<circle cx="362.5" cy="171.902" r="1.5" fill="#E3E3E3"/>
<circle cx="380.5" cy="171.902" r="1.5" fill="#E3E3E3"/>
<circle cx="398.5" cy="171.902" r="1.5" fill="#E3E3E3"/>
<circle cx="416.5" cy="171.902" r="1.5" fill="#E3E3E3"/>
<circle cx="434.5" cy="171.902" r="1.5" fill="#E3E3E3"/>
<circle cx="452.5" cy="171.902" r="1.5" fill="#E3E3E3"/>
<circle cx="110.5" cy="189.902" r="1.5" fill="#E3E3E3"/>
<circle cx="128.5" cy="189.902" r="1.5" fill="#E3E3E3"/>
<circle cx="146.5" cy="189.902" r="1.5" fill="#E3E3E3"/>
<circle cx="164.5" cy="189.902" r="1.5" fill="#E3E3E3"/>
<circle cx="182.5" cy="189.902" r="1.5" fill="#E3E3E3"/>
<circle cx="200.5" cy="189.902" r="1.5" fill="#E3E3E3"/>
<circle cx="218.5" cy="189.902" r="1.5" fill="#E3E3E3"/>
<circle cx="236.5" cy="189.902" r="1.5" fill="#E3E3E3"/>
<circle cx="254.5" cy="189.902" r="1.5" fill="#E3E3E3"/>
<circle cx="272.5" cy="189.902" r="1.5" fill="#E3E3E3"/>
<circle cx="290.5" cy="189.902" r="1.5" fill="#E3E3E3"/>
<circle cx="308.5" cy="189.902" r="1.5" fill="#E3E3E3"/>
<circle cx="326.5" cy="189.902" r="1.5" fill="#E3E3E3"/>
<circle cx="344.5" cy="189.902" r="1.5" fill="#E3E3E3"/>
<circle cx="362.5" cy="189.902" r="1.5" fill="#E3E3E3"/>
<circle cx="380.5" cy="189.902" r="1.5" fill="#E3E3E3"/>
<circle cx="398.5" cy="189.902" r="1.5" fill="#E3E3E3"/>
<circle cx="416.5" cy="189.902" r="1.5" fill="#E3E3E3"/>
<circle cx="434.5" cy="189.902" r="1.5" fill="#E3E3E3"/>
<circle cx="452.5" cy="189.902" r="1.5" fill="#E3E3E3"/>
<circle cx="110.5" cy="207.902" r="1.5" fill="#E3E3E3"/>
<circle cx="128.5" cy="207.902" r="1.5" fill="#E3E3E3"/>
<circle cx="146.5" cy="207.902" r="1.5" fill="#E3E3E3"/>
<circle cx="164.5" cy="207.902" r="1.5" fill="#E3E3E3"/>
<circle cx="182.5" cy="207.902" r="1.5" fill="#E3E3E3"/>
<circle cx="200.5" cy="207.902" r="1.5" fill="#E3E3E3"/>
<circle cx="218.5" cy="207.902" r="1.5" fill="#E3E3E3"/>
<circle cx="236.5" cy="207.902" r="1.5" fill="#E3E3E3"/>
<circle cx="254.5" cy="207.902" r="1.5" fill="#E3E3E3"/>
<circle cx="272.5" cy="207.902" r="1.5" fill="#E3E3E3"/>
<circle cx="290.5" cy="207.902" r="1.5" fill="#E3E3E3"/>
<circle cx="308.5" cy="207.902" r="1.5" fill="#E3E3E3"/>
<circle cx="326.5" cy="207.902" r="1.5" fill="#E3E3E3"/>
<circle cx="344.5" cy="207.902" r="1.5" fill="#E3E3E3"/>
<circle cx="362.5" cy="207.902" r="1.5" fill="#E3E3E3"/>
<circle cx="380.5" cy="207.902" r="1.5" fill="#E3E3E3"/>
<circle cx="398.5" cy="207.902" r="1.5" fill="#E3E3E3"/>
<circle cx="416.5" cy="207.902" r="1.5" fill="#E3E3E3"/>
<circle cx="434.5" cy="207.902" r="1.5" fill="#E3E3E3"/>
<circle cx="452.5" cy="207.902" r="1.5" fill="#E3E3E3"/>
<circle cx="110.5" cy="225.902" r="1.5" fill="#E3E3E3"/>
<circle cx="128.5" cy="225.902" r="1.5" fill="#E3E3E3"/>
<circle cx="146.5" cy="225.902" r="1.5" fill="#E3E3E3"/>
<circle cx="164.5" cy="225.902" r="1.5" fill="#E3E3E3"/>
<circle cx="182.5" cy="225.902" r="1.5" fill="#E3E3E3"/>
<circle cx="200.5" cy="225.902" r="1.5" fill="#E3E3E3"/>
<circle cx="218.5" cy="225.902" r="1.5" fill="#E3E3E3"/>
<circle cx="236.5" cy="225.902" r="1.5" fill="#E3E3E3"/>
<circle cx="254.5" cy="225.902" r="1.5" fill="#E3E3E3"/>
<circle cx="272.5" cy="225.902" r="1.5" fill="#E3E3E3"/>
<circle cx="290.5" cy="225.902" r="1.5" fill="#E3E3E3"/>
<circle cx="308.5" cy="225.902" r="1.5" fill="#E3E3E3"/>
<circle cx="326.5" cy="225.902" r="1.5" fill="#E3E3E3"/>
<circle cx="344.5" cy="225.902" r="1.5" fill="#E3E3E3"/>
<circle cx="362.5" cy="225.902" r="1.5" fill="#E3E3E3"/>
<circle cx="380.5" cy="225.902" r="1.5" fill="#E3E3E3"/>
<circle cx="398.5" cy="225.902" r="1.5" fill="#E3E3E3"/>
<circle cx="416.5" cy="225.902" r="1.5" fill="#E3E3E3"/>
<circle cx="434.5" cy="225.902" r="1.5" fill="#E3E3E3"/>
<circle cx="452.5" cy="225.902" r="1.5" fill="#E3E3E3"/>
<circle cx="110.5" cy="243.902" r="1.5" fill="#E3E3E3"/>
<circle cx="128.5" cy="243.902" r="1.5" fill="#E3E3E3"/>
<circle cx="146.5" cy="243.902" r="1.5" fill="#E3E3E3"/>
<circle cx="164.5" cy="243.902" r="1.5" fill="#E3E3E3"/>
<circle cx="182.5" cy="243.902" r="1.5" fill="#E3E3E3"/>
<circle cx="200.5" cy="243.902" r="1.5" fill="#E3E3E3"/>
<circle cx="218.5" cy="243.902" r="1.5" fill="#E3E3E3"/>
<circle cx="236.5" cy="243.902" r="1.5" fill="#E3E3E3"/>
<circle cx="254.5" cy="243.902" r="1.5" fill="#E3E3E3"/>
<circle cx="272.5" cy="243.902" r="1.5" fill="#E3E3E3"/>
<circle cx="290.5" cy="243.902" r="1.5" fill="#E3E3E3"/>
<circle cx="308.5" cy="243.902" r="1.5" fill="#E3E3E3"/>
<circle cx="326.5" cy="243.902" r="1.5" fill="#E3E3E3"/>
<circle cx="344.5" cy="243.902" r="1.5" fill="#E3E3E3"/>
<circle cx="362.5" cy="243.902" r="1.5" fill="#E3E3E3"/>
<circle cx="380.5" cy="243.902" r="1.5" fill="#E3E3E3"/>
<circle cx="398.5" cy="243.902" r="1.5" fill="#E3E3E3"/>
<circle cx="416.5" cy="243.902" r="1.5" fill="#E3E3E3"/>
<circle cx="434.5" cy="243.902" r="1.5" fill="#E3E3E3"/>
<circle cx="452.5" cy="243.902" r="1.5" fill="#E3E3E3"/>
<circle cx="110.5" cy="261.902" r="1.5" fill="#E3E3E3"/>
<circle cx="128.5" cy="261.902" r="1.5" fill="#E3E3E3"/>
<circle cx="146.5" cy="261.902" r="1.5" fill="#E3E3E3"/>
<circle cx="164.5" cy="261.902" r="1.5" fill="#E3E3E3"/>
<circle cx="182.5" cy="261.902" r="1.5" fill="#E3E3E3"/>
<circle cx="200.5" cy="261.902" r="1.5" fill="#E3E3E3"/>
<circle cx="218.5" cy="261.902" r="1.5" fill="#E3E3E3"/>
<circle cx="236.5" cy="261.902" r="1.5" fill="#E3E3E3"/>
<circle cx="254.5" cy="261.902" r="1.5" fill="#E3E3E3"/>
<circle cx="272.5" cy="261.902" r="1.5" fill="#E3E3E3"/>
<circle cx="290.5" cy="261.902" r="1.5" fill="#E3E3E3"/>
<circle cx="308.5" cy="261.902" r="1.5" fill="#E3E3E3"/>
<circle cx="326.5" cy="261.902" r="1.5" fill="#E3E3E3"/>
<circle cx="344.5" cy="261.902" r="1.5" fill="#E3E3E3"/>
<circle cx="362.5" cy="261.902" r="1.5" fill="#E3E3E3"/>
<circle cx="380.5" cy="261.902" r="1.5" fill="#E3E3E3"/>
<circle cx="398.5" cy="261.902" r="1.5" fill="#E3E3E3"/>
<circle cx="416.5" cy="261.902" r="1.5" fill="#E3E3E3"/>
<circle cx="434.5" cy="261.902" r="1.5" fill="#E3E3E3"/>
<circle cx="452.5" cy="261.902" r="1.5" fill="#E3E3E3"/>
<circle cx="110.5" cy="279.902" r="1.5" fill="#E3E3E3"/>
<circle cx="128.5" cy="279.902" r="1.5" fill="#E3E3E3"/>
<circle cx="146.5" cy="279.902" r="1.5" fill="#E3E3E3"/>
<circle cx="164.5" cy="279.902" r="1.5" fill="#E3E3E3"/>
<circle cx="182.5" cy="279.902" r="1.5" fill="#E3E3E3"/>
<circle cx="200.5" cy="279.902" r="1.5" fill="#E3E3E3"/>
<circle cx="218.5" cy="279.902" r="1.5" fill="#E3E3E3"/>
<circle cx="236.5" cy="279.902" r="1.5" fill="#E3E3E3"/>
<circle cx="254.5" cy="279.902" r="1.5" fill="#E3E3E3"/>
<circle cx="272.5" cy="279.902" r="1.5" fill="#E3E3E3"/>
<circle cx="290.5" cy="279.902" r="1.5" fill="#E3E3E3"/>
<circle cx="308.5" cy="279.902" r="1.5" fill="#E3E3E3"/>
<circle cx="326.5" cy="279.902" r="1.5" fill="#E3E3E3"/>
<circle cx="344.5" cy="279.902" r="1.5" fill="#E3E3E3"/>
<circle cx="362.5" cy="279.902" r="1.5" fill="#E3E3E3"/>
<circle cx="380.5" cy="279.902" r="1.5" fill="#E3E3E3"/>
<circle cx="398.5" cy="279.902" r="1.5" fill="#E3E3E3"/>
<circle cx="416.5" cy="279.902" r="1.5" fill="#E3E3E3"/>
<circle cx="434.5" cy="279.902" r="1.5" fill="#E3E3E3"/>
<circle cx="452.5" cy="279.902" r="1.5" fill="#E3E3E3"/>
<circle cx="110.5" cy="297.902" r="1.5" fill="#E3E3E3"/>
<circle cx="128.5" cy="297.902" r="1.5" fill="#E3E3E3"/>
<circle cx="146.5" cy="297.902" r="1.5" fill="#E3E3E3"/>
<circle cx="164.5" cy="297.902" r="1.5" fill="#E3E3E3"/>
<circle cx="182.5" cy="297.902" r="1.5" fill="#E3E3E3"/>
<circle cx="200.5" cy="297.902" r="1.5" fill="#E3E3E3"/>
<circle cx="218.5" cy="297.902" r="1.5" fill="#E3E3E3"/>
<circle cx="236.5" cy="297.902" r="1.5" fill="#E3E3E3"/>
<circle cx="254.5" cy="297.902" r="1.5" fill="#E3E3E3"/>
<circle cx="272.5" cy="297.902" r="1.5" fill="#E3E3E3"/>
<circle cx="290.5" cy="297.902" r="1.5" fill="#E3E3E3"/>
<circle cx="308.5" cy="297.902" r="1.5" fill="#E3E3E3"/>
<circle cx="326.5" cy="297.902" r="1.5" fill="#E3E3E3"/>
<circle cx="344.5" cy="297.902" r="1.5" fill="#E3E3E3"/>
<circle cx="362.5" cy="297.902" r="1.5" fill="#E3E3E3"/>
<circle cx="380.5" cy="297.902" r="1.5" fill="#E3E3E3"/>
<circle cx="398.5" cy="297.902" r="1.5" fill="#E3E3E3"/>
<circle cx="416.5" cy="297.902" r="1.5" fill="#E3E3E3"/>
<circle cx="434.5" cy="297.902" r="1.5" fill="#E3E3E3"/>
<circle cx="452.5" cy="297.902" r="1.5" fill="#E3E3E3"/>
<circle cx="110.5" cy="315.902" r="1.5" fill="#E3E3E3"/>
<circle cx="128.5" cy="315.902" r="1.5" fill="#E3E3E3"/>
<circle cx="146.5" cy="315.902" r="1.5" fill="#E3E3E3"/>
<circle cx="164.5" cy="315.902" r="1.5" fill="#E3E3E3"/>
<circle cx="182.5" cy="315.902" r="1.5" fill="#E3E3E3"/>
<circle cx="200.5" cy="315.902" r="1.5" fill="#E3E3E3"/>
<circle cx="218.5" cy="315.902" r="1.5" fill="#E3E3E3"/>
<circle cx="236.5" cy="315.902" r="1.5" fill="#E3E3E3"/>
<circle cx="254.5" cy="315.902" r="1.5" fill="#E3E3E3"/>
<circle cx="272.5" cy="315.902" r="1.5" fill="#E3E3E3"/>
<circle cx="290.5" cy="315.902" r="1.5" fill="#E3E3E3"/>
<circle cx="308.5" cy="315.902" r="1.5" fill="#E3E3E3"/>
<circle cx="326.5" cy="315.902" r="1.5" fill="#E3E3E3"/>
<circle cx="344.5" cy="315.902" r="1.5" fill="#E3E3E3"/>
<circle cx="362.5" cy="315.902" r="1.5" fill="#E3E3E3"/>
<circle cx="380.5" cy="315.902" r="1.5" fill="#E3E3E3"/>
<circle cx="398.5" cy="315.902" r="1.5" fill="#E3E3E3"/>
<circle cx="416.5" cy="315.902" r="1.5" fill="#E3E3E3"/>
<circle cx="434.5" cy="315.902" r="1.5" fill="#E3E3E3"/>
<circle cx="452.5" cy="315.902" r="1.5" fill="#E3E3E3"/>
<circle cx="110.5" cy="333.902" r="1.5" fill="#E3E3E3"/>
<circle cx="128.5" cy="333.902" r="1.5" fill="#E3E3E3"/>
<circle cx="146.5" cy="333.902" r="1.5" fill="#E3E3E3"/>
<circle cx="164.5" cy="333.902" r="1.5" fill="#E3E3E3"/>
<circle cx="182.5" cy="333.902" r="1.5" fill="#E3E3E3"/>
<circle cx="200.5" cy="333.902" r="1.5" fill="#E3E3E3"/>
<circle cx="218.5" cy="333.902" r="1.5" fill="#E3E3E3"/>
<circle cx="236.5" cy="333.902" r="1.5" fill="#E3E3E3"/>
<circle cx="254.5" cy="333.902" r="1.5" fill="#E3E3E3"/>
<circle cx="272.5" cy="333.902" r="1.5" fill="#E3E3E3"/>
<circle cx="290.5" cy="333.902" r="1.5" fill="#E3E3E3"/>
<circle cx="308.5" cy="333.902" r="1.5" fill="#E3E3E3"/>
<circle cx="326.5" cy="333.902" r="1.5" fill="#E3E3E3"/>
<circle cx="344.5" cy="333.902" r="1.5" fill="#E3E3E3"/>
<circle cx="362.5" cy="333.902" r="1.5" fill="#E3E3E3"/>
<circle cx="380.5" cy="333.902" r="1.5" fill="#E3E3E3"/>
<circle cx="398.5" cy="333.902" r="1.5" fill="#E3E3E3"/>
<circle cx="416.5" cy="333.902" r="1.5" fill="#E3E3E3"/>
<circle cx="434.5" cy="333.902" r="1.5" fill="#E3E3E3"/>
<circle cx="452.5" cy="333.902" r="1.5" fill="#E3E3E3"/>
<circle cx="110.5" cy="351.902" r="1.5" fill="#E3E3E3"/>
<circle cx="128.5" cy="351.902" r="1.5" fill="#E3E3E3"/>
<circle cx="146.5" cy="351.902" r="1.5" fill="#E3E3E3"/>
<circle cx="164.5" cy="351.902" r="1.5" fill="#E3E3E3"/>
<circle cx="182.5" cy="351.902" r="1.5" fill="#E3E3E3"/>
<circle cx="200.5" cy="351.902" r="1.5" fill="#E3E3E3"/>
<circle cx="218.5" cy="351.902" r="1.5" fill="#E3E3E3"/>
<circle cx="236.5" cy="351.902" r="1.5" fill="#E3E3E3"/>
<circle cx="254.5" cy="351.902" r="1.5" fill="#E3E3E3"/>
<circle cx="272.5" cy="351.902" r="1.5" fill="#E3E3E3"/>
<circle cx="290.5" cy="351.902" r="1.5" fill="#E3E3E3"/>
<circle cx="308.5" cy="351.902" r="1.5" fill="#E3E3E3"/>
<circle cx="326.5" cy="351.902" r="1.5" fill="#E3E3E3"/>
<circle cx="344.5" cy="351.902" r="1.5" fill="#E3E3E3"/>
<circle cx="362.5" cy="351.902" r="1.5" fill="#E3E3E3"/>
<circle cx="380.5" cy="351.902" r="1.5" fill="#E3E3E3"/>
<circle cx="398.5" cy="351.902" r="1.5" fill="#E3E3E3"/>
<circle cx="416.5" cy="351.902" r="1.5" fill="#E3E3E3"/>
<circle cx="434.5" cy="351.902" r="1.5" fill="#E3E3E3"/>
<circle cx="452.5" cy="351.902" r="1.5" fill="#E3E3E3"/>
<rect x="15" y="7.40234" width="453" height="348" fill="url(#paint0_radial)"/>
<path d="M3.43037 299.32C-11.6742 296.608 -24.6847 283.351 -35.2744 268.541C-45.8466 253.756 -53.9739 237.401 -52.1171 222.079C-50.2603 206.757 -38.4063 192.385 -24.1707 183.692C-9.91745 175.024 6.70639 171.968 22.6948 174.217C38.7009 176.49 54.0298 184.06 64.9116 196.588C75.7934 209.115 82.2039 226.617 79.4633 242.401C76.7161 258.227 64.7761 272.33 50.2484 283.305C35.679 294.274 18.5285 302.073 3.43037 299.32Z" fill="#FEB447"/>
<path d="M41.52 125.322C34.08 125.322 27.48 123.602 21.72 120.162C16.04 116.642 11.56 111.602 8.28 105.042C5.08 98.4023 3.48 90.5223 3.48 81.4023C3.48 72.2823 5.08 64.4423 8.28 57.8823C11.56 51.2423 16.04 46.2023 21.72 42.7623C27.48 39.2423 34.08 37.4823 41.52 37.4823C48.96 37.4823 55.52 39.2423 61.2 42.7623C66.96 46.2023 71.44 51.2423 74.64 57.8823C77.92 64.4423 79.56 72.2823 79.56 81.4023C79.56 90.5223 77.92 98.4023 74.64 105.042C71.44 111.602 66.96 116.642 61.2 120.162C55.52 123.602 48.96 125.322 41.52 125.322ZM41.52 102.642C47.92 102.642 51.12 95.5623 51.12 81.4023C51.12 67.2423 47.92 60.1623 41.52 60.1623C35.12 60.1623 31.92 67.2423 31.92 81.4023C31.92 95.5623 35.12 102.642 41.52 102.642ZM129.766 69.0423C134.886 69.0423 139.646 70.1623 144.046 72.4023C148.446 74.6423 151.966 77.8023 154.606 81.8823C157.246 85.9623 158.566 90.6423 158.566 95.9223C158.566 101.762 157.046 106.922 154.006 111.402C151.046 115.882 146.966 119.322 141.766 121.722C136.566 124.122 130.806 125.322 124.486 125.322C116.406 125.322 109.326 123.762 103.246 120.642C97.2459 117.522 92.5659 112.882 89.2059 106.722C85.8459 100.562 84.1659 93.0023 84.1659 84.0423C84.1659 74.4423 86.0859 66.1223 89.9259 59.0823C93.8459 52.0423 99.2859 46.6823 106.246 43.0023C113.286 39.3223 121.446 37.4823 130.726 37.4823C135.766 37.4823 140.566 38.0823 145.126 39.2823C149.686 40.4023 153.566 42.0023 156.766 44.0823L146.566 63.8823C142.406 60.9223 137.326 59.4423 131.326 59.4423C126.446 59.4423 122.406 60.6823 119.206 63.1623C116.086 65.5623 114.046 69.0823 113.086 73.7223C117.486 70.6023 123.046 69.0423 129.766 69.0423ZM122.566 105.762C125.126 105.762 127.206 105.002 128.806 103.482C130.406 101.962 131.206 99.8823 131.206 97.2423C131.206 94.6023 130.406 92.5223 128.806 91.0023C127.206 89.4023 125.126 88.6023 122.566 88.6023C120.006 88.6023 117.926 89.4023 116.326 91.0023C114.726 92.5223 113.926 94.6023 113.926 97.2423C113.926 99.8823 114.726 101.962 116.326 103.482C117.926 105.002 120.006 105.762 122.566 105.762Z" fill="#E3E3E3"/>
</g>
</g>
<path d="M230.017 45.4023H248.06C250.454 45.4023 252.768 46.2611 254.582 47.8225L313.042 98.1285C314.856 99.6899 317.171 100.549 319.565 100.549H332.722C335.115 100.549 337.43 99.6899 339.244 98.1285L397.704 47.8225C399.518 46.2611 401.833 45.4023 404.227 45.4023H422.27" stroke="#E3E3E3" stroke-width="3" stroke-linecap="round" stroke-linejoin="round"/>
<path d="M422.269 173.402L404.225 173.402C401.832 173.402 399.517 172.544 397.703 170.982L339.243 120.676C337.429 119.115 335.114 118.256 332.721 118.256L319.564 118.256C317.17 118.256 314.855 119.115 313.041 120.676L254.581 170.982C252.767 172.544 250.452 173.402 248.059 173.402L230.016 173.402" stroke="#E3E3E3" stroke-width="3" stroke-linecap="round" stroke-linejoin="round"/>
<circle cx="326.142" cy="109.149" r="2.54743" stroke="#C81F56" stroke-width="3"/>
<circle cx="344.356" cy="109.149" r="2.54743" stroke="#C81F56" stroke-width="3"/>
<circle cx="362.569" cy="109.149" r="2.54743" stroke="#C81F56" stroke-width="3"/>
<circle cx="381.794" cy="109.149" r="2.54743" stroke="#C81F56" stroke-width="3"/>
<circle cx="400.008" cy="109.149" r="2.54743" stroke="#C81F56" stroke-width="3"/>
<circle cx="418.221" cy="109.149" r="2.54743" stroke="#C81F56" stroke-width="3"/>
<circle cx="307.929" cy="109.149" r="2.54743" stroke="#C81F56" stroke-width="3"/>
<circle cx="289.715" cy="109.149" r="2.54743" stroke="#C81F56" stroke-width="3"/>
<circle cx="289.715" cy="93.9714" r="2.54743" stroke="#C81F56" stroke-width="3"/>
<circle cx="289.715" cy="124.327" r="2.54743" stroke="#C81F56" stroke-width="3"/>
<circle cx="270.49" cy="109.15" r="2.54743" stroke="#F06C46" stroke-width="3"/>
<circle cx="270.49" cy="93.9716" r="2.54743" stroke="#F06C46" stroke-width="3"/>
<circle cx="270.49" cy="124.328" r="2.54743" stroke="#F06C46" stroke-width="3"/>
<circle cx="270.49" cy="78.7938" r="2.54743" stroke="#F06C46" stroke-width="3"/>
<circle cx="270.49" cy="139.506" r="2.54743" stroke="#F06C46" stroke-width="3"/>
<circle cx="234.063" cy="109.149" r="2.54743" stroke="#FEB447" stroke-width="3"/>
<circle cx="234.063" cy="93.9713" r="2.54743" stroke="#FEB447" stroke-width="3"/>
<circle cx="234.063" cy="124.327" r="2.54743" stroke="#FEB447" stroke-width="3"/>
<circle cx="234.063" cy="78.7936" r="2.54743" stroke="#FEB447" stroke-width="3"/>
<circle cx="234.063" cy="139.505" r="2.54743" stroke="#FEB447" stroke-width="3"/>
<circle cx="234.064" cy="63.6157" r="2.54743" stroke="#FEB447" stroke-width="3"/>
<circle cx="234.063" cy="154.683" r="2.54743" stroke="#FEB447" stroke-width="3"/>
<circle cx="252.277" cy="109.149" r="2.54743" stroke="#FE840E" stroke-width="3"/>
<circle cx="252.277" cy="93.9713" r="2.54743" stroke="#FE840E" stroke-width="3"/>
<circle cx="252.277" cy="124.327" r="2.54743" stroke="#FE840E" stroke-width="3"/>
<circle cx="252.277" cy="78.7936" r="2.54743" stroke="#FE840E" stroke-width="3"/>
<circle cx="252.277" cy="139.505" r="2.54743" stroke="#FE840E" stroke-width="3"/>
<circle cx="252.277" cy="63.6157" r="2.54743" stroke="#FE840E" stroke-width="3"/>
<circle cx="252.277" cy="154.683" r="2.54743" stroke="#FE840E" stroke-width="3"/>
<defs>
<filter id="filter0_d" x="0" y="0.402344" width="483" height="378" filterUnits="userSpaceOnUse" color-interpolation-filters="sRGB">
<feFlood flood-opacity="0" result="BackgroundImageFix"/>
<feColorMatrix in="SourceAlpha" type="matrix" values="0 0 0 0 0 0 0 0 0 0 0 0 0 0 0 0 0 0 127 0"/>
<feOffset dy="8"/>
<feGaussianBlur stdDeviation="7.5"/>
<feColorMatrix type="matrix" values="0 0 0 0 0 0 0 0 0 0 0 0 0 0 0 0 0 0 0.1 0"/>
<feBlend mode="normal" in2="BackgroundImageFix" result="effect1_dropShadow"/>
<feBlend mode="normal" in="SourceGraphic" in2="effect1_dropShadow" result="shape"/>
</filter>
<radialGradient id="paint0_radial" cx="0" cy="0" r="1" gradientUnits="userSpaceOnUse" gradientTransform="translate(332.5 169.402) rotate(180) scale(218 283.776)">
<stop stop-color="white" stop-opacity="0"/>
<stop offset="1" stop-color="white"/>
</radialGradient>
</defs>
</svg>
