<svg width="1440" height="1728" viewBox="0 0 1440 1728" fill="none" xmlns="http://www.w3.org/2000/svg">
<path opacity="0.5" d="M1434.09 1001.85C1411.09 1126.53 1286.7 1251.34 1164.12 1260.57C1041.4 1269.63 920.644 1162.97 836.035 1048.56C751.295 933.998 702.706 811.685 733.653 706.859C764.314 602.01 874.358 514.779 981.944 504.8C1089.55 494.536 1194.7 561.524 1286.47 657.283C1378.39 752.911 1456.93 877.31 1434.09 1001.85Z" fill="#FEB447"/>
<path d="M571.111 690.987L571.108 690.982C501.932 584.757 508.014 421.528 580.278 318.998L580.282 318.992C652.188 216.403 790.437 173.91 944.888 165.172L944.892 165.172C1099.41 156.194 1268.28 181.104 1360.63 295.247C1406.82 352.466 1434.06 432.219 1439.14 512.175C1444.23 592.143 1427.15 671.966 1385.14 729.413C1343.05 786.822 1275.81 822.182 1198.18 841.699C1120.58 861.212 1032.83 864.82 950.127 858.921C784.326 847.112 639.962 797.307 571.111 690.987Z" stroke="#FE840E" stroke-width="5"/>
<path d="M595.016 696.847C538.185 776.711 444.156 832.814 342.798 840.328C241.542 847.669 132.957 806.421 70.3756 729.459C7.75846 652.359 -8.85614 539.544 16.0505 441.607C40.9218 343.532 107.385 260.61 194.613 214.027C281.842 167.444 389.871 157.339 476.069 195.966C562.268 234.594 626.397 322.163 648.869 417.777C671.169 513.288 651.709 617.017 595.016 696.847Z" fill="#FE840E" fill-opacity="0.7"/>
<path d="M353.272 627.29L353.277 627.295C386.539 662.343 395.136 720.681 394.464 779.308C393.793 837.802 383.79 894.959 350.574 930.528C317.368 966.086 260.232 980.798 207.3 976.324C154.51 971.765 106.16 948.311 69.3844 912.39C32.5994 876.365 7.55108 828.025 3.1881 775.384C-1.18334 722.642 15.2921 665.726 51.7032 630.541L51.7033 630.541C88.1999 595.27 145.148 581.394 203.379 580.533C261.777 579.768 320.115 592.16 353.272 627.29Z" stroke="#FEB447" stroke-width="5"/>
<path d="M541.077 1313.14L541.078 1313.14C581.664 1375.11 594.019 1448.26 577.056 1511.3L577.056 1511.3C560.104 1574.41 513.771 1627.65 448.579 1669.31C415.921 1690.14 378.705 1707.98 341.447 1717.51C304.178 1727.04 267.044 1728.21 234.394 1715.93L234.392 1715.93C201.662 1703.63 173.116 1677.81 152.765 1646.2C132.415 1614.59 120.387 1577.39 120.501 1542.57L120.501 1542.57C120.558 1507.85 132.726 1475.23 151.135 1443.17C168.148 1413.54 190.385 1384.55 213.128 1354.9C215.015 1352.44 216.906 1349.97 218.797 1347.5L218.799 1347.5C220.879 1344.78 222.958 1342.05 225.036 1339.33C247.563 1309.78 270.007 1280.34 293.462 1256.78C319.095 1231.03 345.603 1212.66 374.299 1208.71C403.056 1204.82 434.542 1215.26 464.065 1234.65C493.556 1254.01 520.834 1282.14 541.077 1313.14Z" stroke="#FEB447" stroke-width="5"/>
</svg>
