<svg width="483" height="379" viewBox="0 0 483 379" fill="none" xmlns="http://www.w3.org/2000/svg">
<g filter="url(#filter0_d)">
<mask id="mask0" mask-type="alpha" maskUnits="userSpaceOnUse" x="15" y="7" width="453" height="349">
<rect x="15" y="7.40234" width="453" height="348" rx="20" fill="#FE840E"/>
</mask>
<g mask="url(#mask0)">
<rect x="15" y="7.40234" width="453" height="348" fill="white"/>
<circle cx="110.5" cy="9.90234" r="1.5" fill="#E3E3E3"/>
<circle cx="128.5" cy="9.90234" r="1.5" fill="#E3E3E3"/>
<circle cx="146.5" cy="9.90234" r="1.5" fill="#E3E3E3"/>
<circle cx="164.5" cy="9.90234" r="1.5" fill="#E3E3E3"/>
<circle cx="182.5" cy="9.90234" r="1.5" fill="#E3E3E3"/>
<circle cx="200.5" cy="9.90234" r="1.5" fill="#E3E3E3"/>
<circle cx="218.5" cy="9.90234" r="1.5" fill="#E3E3E3"/>
<circle cx="236.5" cy="9.90234" r="1.5" fill="#E3E3E3"/>
<circle cx="254.5" cy="9.90234" r="1.5" fill="#E3E3E3"/>
<circle cx="272.5" cy="9.90234" r="1.5" fill="#E3E3E3"/>
<circle cx="290.5" cy="9.90234" r="1.5" fill="#E3E3E3"/>
<circle cx="308.5" cy="9.90234" r="1.5" fill="#E3E3E3"/>
<circle cx="326.5" cy="9.90234" r="1.5" fill="#E3E3E3"/>
<circle cx="344.5" cy="9.90234" r="1.5" fill="#E3E3E3"/>
<circle cx="362.5" cy="9.90234" r="1.5" fill="#E3E3E3"/>
<circle cx="380.5" cy="9.90234" r="1.5" fill="#E3E3E3"/>
<circle cx="398.5" cy="9.90234" r="1.5" fill="#E3E3E3"/>
<circle cx="416.5" cy="9.90234" r="1.5" fill="#E3E3E3"/>
<circle cx="434.5" cy="9.90234" r="1.5" fill="#E3E3E3"/>
<circle cx="452.5" cy="9.90234" r="1.5" fill="#E3E3E3"/>
<circle cx="110.5" cy="27.9023" r="1.5" fill="#E3E3E3"/>
<circle cx="128.5" cy="27.9023" r="1.5" fill="#E3E3E3"/>
<circle cx="146.5" cy="27.9023" r="1.5" fill="#E3E3E3"/>
<circle cx="164.5" cy="27.9023" r="1.5" fill="#E3E3E3"/>
<circle cx="182.5" cy="27.9023" r="1.5" fill="#E3E3E3"/>
<circle cx="200.5" cy="27.9023" r="1.5" fill="#E3E3E3"/>
<circle cx="218.5" cy="27.9023" r="1.5" fill="#E3E3E3"/>
<circle cx="236.5" cy="27.9023" r="1.5" fill="#E3E3E3"/>
<circle cx="254.5" cy="27.9023" r="1.5" fill="#E3E3E3"/>
<circle cx="272.5" cy="27.9023" r="1.5" fill="#E3E3E3"/>
<circle cx="290.5" cy="27.9023" r="1.5" fill="#E3E3E3"/>
<circle cx="308.5" cy="27.9023" r="1.5" fill="#E3E3E3"/>
<circle cx="326.5" cy="27.9023" r="1.5" fill="#E3E3E3"/>
<circle cx="344.5" cy="27.9023" r="1.5" fill="#E3E3E3"/>
<circle cx="362.5" cy="27.9023" r="1.5" fill="#E3E3E3"/>
<circle cx="380.5" cy="27.9023" r="1.5" fill="#E3E3E3"/>
<circle cx="398.5" cy="27.9023" r="1.5" fill="#E3E3E3"/>
<circle cx="416.5" cy="27.9023" r="1.5" fill="#E3E3E3"/>
<circle cx="434.5" cy="27.9023" r="1.5" fill="#E3E3E3"/>
<circle cx="452.5" cy="27.9023" r="1.5" fill="#E3E3E3"/>
<circle cx="110.5" cy="45.9023" r="1.5" fill="#E3E3E3"/>
<circle cx="128.5" cy="45.9023" r="1.5" fill="#E3E3E3"/>
<circle cx="146.5" cy="45.9023" r="1.5" fill="#E3E3E3"/>
<circle cx="164.5" cy="45.9023" r="1.5" fill="#E3E3E3"/>
<circle cx="182.5" cy="45.9023" r="1.5" fill="#E3E3E3"/>
<circle cx="200.5" cy="45.9023" r="1.5" fill="#E3E3E3"/>
<circle cx="218.5" cy="45.9023" r="1.5" fill="#E3E3E3"/>
<circle cx="236.5" cy="45.9023" r="1.5" fill="#E3E3E3"/>
<circle cx="254.5" cy="45.9023" r="1.5" fill="#E3E3E3"/>
<circle cx="272.5" cy="45.9023" r="1.5" fill="#E3E3E3"/>
<circle cx="290.5" cy="45.9023" r="1.5" fill="#E3E3E3"/>
<circle cx="308.5" cy="45.9023" r="1.5" fill="#E3E3E3"/>
<circle cx="326.5" cy="45.9023" r="1.5" fill="#E3E3E3"/>
<circle cx="344.5" cy="45.9023" r="1.5" fill="#E3E3E3"/>
<circle cx="362.5" cy="45.9023" r="1.5" fill="#E3E3E3"/>
<circle cx="380.5" cy="45.9023" r="1.5" fill="#E3E3E3"/>
<circle cx="398.5" cy="45.9023" r="1.5" fill="#E3E3E3"/>
<circle cx="416.5" cy="45.9023" r="1.5" fill="#E3E3E3"/>
<circle cx="434.5" cy="45.9023" r="1.5" fill="#E3E3E3"/>
<circle cx="452.5" cy="45.9023" r="1.5" fill="#E3E3E3"/>
<circle cx="110.5" cy="63.9023" r="1.5" fill="#E3E3E3"/>
<circle cx="128.5" cy="63.9023" r="1.5" fill="#E3E3E3"/>
<circle cx="146.5" cy="63.9023" r="1.5" fill="#E3E3E3"/>
<circle cx="164.5" cy="63.9023" r="1.5" fill="#E3E3E3"/>
<circle cx="182.5" cy="63.9023" r="1.5" fill="#E3E3E3"/>
<circle cx="200.5" cy="63.9023" r="1.5" fill="#E3E3E3"/>
<circle cx="218.5" cy="63.9023" r="1.5" fill="#E3E3E3"/>
<circle cx="236.5" cy="63.9023" r="1.5" fill="#E3E3E3"/>
<circle cx="254.5" cy="63.9023" r="1.5" fill="#E3E3E3"/>
<circle cx="272.5" cy="63.9023" r="1.5" fill="#E3E3E3"/>
<circle cx="290.5" cy="63.9023" r="1.5" fill="#E3E3E3"/>
<circle cx="308.5" cy="63.9023" r="1.5" fill="#E3E3E3"/>
<circle cx="326.5" cy="63.9023" r="1.5" fill="#E3E3E3"/>
<circle cx="344.5" cy="63.9023" r="1.5" fill="#E3E3E3"/>
<circle cx="362.5" cy="63.9023" r="1.5" fill="#E3E3E3"/>
<circle cx="380.5" cy="63.9023" r="1.5" fill="#E3E3E3"/>
<circle cx="398.5" cy="63.9023" r="1.5" fill="#E3E3E3"/>
<circle cx="416.5" cy="63.9023" r="1.5" fill="#E3E3E3"/>
<circle cx="434.5" cy="63.9023" r="1.5" fill="#E3E3E3"/>
<circle cx="452.5" cy="63.9023" r="1.5" fill="#E3E3E3"/>
<circle cx="110.5" cy="81.9023" r="1.5" fill="#E3E3E3"/>
<circle cx="128.5" cy="81.9023" r="1.5" fill="#E3E3E3"/>
<circle cx="146.5" cy="81.9023" r="1.5" fill="#E3E3E3"/>
<circle cx="164.5" cy="81.9023" r="1.5" fill="#E3E3E3"/>
<circle cx="182.5" cy="81.9023" r="1.5" fill="#E3E3E3"/>
<circle cx="200.5" cy="81.9023" r="1.5" fill="#E3E3E3"/>
<circle cx="218.5" cy="81.9023" r="1.5" fill="#E3E3E3"/>
<circle cx="236.5" cy="81.9023" r="1.5" fill="#E3E3E3"/>
<circle cx="254.5" cy="81.9023" r="1.5" fill="#E3E3E3"/>
<circle cx="272.5" cy="81.9023" r="1.5" fill="#E3E3E3"/>
<circle cx="290.5" cy="81.9023" r="1.5" fill="#E3E3E3"/>
<circle cx="308.5" cy="81.9023" r="1.5" fill="#E3E3E3"/>
<circle cx="326.5" cy="81.9023" r="1.5" fill="#E3E3E3"/>
<circle cx="344.5" cy="81.9023" r="1.5" fill="#E3E3E3"/>
<circle cx="362.5" cy="81.9023" r="1.5" fill="#E3E3E3"/>
<circle cx="380.5" cy="81.9023" r="1.5" fill="#E3E3E3"/>
<circle cx="398.5" cy="81.9023" r="1.5" fill="#E3E3E3"/>
<circle cx="416.5" cy="81.9023" r="1.5" fill="#E3E3E3"/>
<circle cx="434.5" cy="81.9023" r="1.5" fill="#E3E3E3"/>
<circle cx="452.5" cy="81.9023" r="1.5" fill="#E3E3E3"/>
<circle cx="110.5" cy="99.9023" r="1.5" fill="#E3E3E3"/>
<circle cx="128.5" cy="99.9023" r="1.5" fill="#E3E3E3"/>
<circle cx="146.5" cy="99.9023" r="1.5" fill="#E3E3E3"/>
<circle cx="164.5" cy="99.9023" r="1.5" fill="#E3E3E3"/>
<circle cx="182.5" cy="99.9023" r="1.5" fill="#E3E3E3"/>
<circle cx="200.5" cy="99.9023" r="1.5" fill="#E3E3E3"/>
<circle cx="218.5" cy="99.9023" r="1.5" fill="#E3E3E3"/>
<circle cx="236.5" cy="99.9023" r="1.5" fill="#E3E3E3"/>
<circle cx="254.5" cy="99.9023" r="1.5" fill="#E3E3E3"/>
<circle cx="272.5" cy="99.9023" r="1.5" fill="#E3E3E3"/>
<circle cx="290.5" cy="99.9023" r="1.5" fill="#E3E3E3"/>
<circle cx="308.5" cy="99.9023" r="1.5" fill="#E3E3E3"/>
<circle cx="326.5" cy="99.9023" r="1.5" fill="#E3E3E3"/>
<circle cx="344.5" cy="99.9023" r="1.5" fill="#E3E3E3"/>
<circle cx="362.5" cy="99.9023" r="1.5" fill="#E3E3E3"/>
<circle cx="380.5" cy="99.9023" r="1.5" fill="#E3E3E3"/>
<circle cx="398.5" cy="99.9023" r="1.5" fill="#E3E3E3"/>
<circle cx="416.5" cy="99.9023" r="1.5" fill="#E3E3E3"/>
<circle cx="434.5" cy="99.9023" r="1.5" fill="#E3E3E3"/>
<circle cx="452.5" cy="99.9023" r="1.5" fill="#E3E3E3"/>
<circle cx="110.5" cy="117.902" r="1.5" fill="#E3E3E3"/>
<circle cx="128.5" cy="117.902" r="1.5" fill="#E3E3E3"/>
<circle cx="146.5" cy="117.902" r="1.5" fill="#E3E3E3"/>
<circle cx="164.5" cy="117.902" r="1.5" fill="#E3E3E3"/>
<circle cx="182.5" cy="117.902" r="1.5" fill="#E3E3E3"/>
<circle cx="200.5" cy="117.902" r="1.5" fill="#E3E3E3"/>
<circle cx="218.5" cy="117.902" r="1.5" fill="#E3E3E3"/>
<circle cx="236.5" cy="117.902" r="1.5" fill="#E3E3E3"/>
<circle cx="254.5" cy="117.902" r="1.5" fill="#E3E3E3"/>
<circle cx="272.5" cy="117.902" r="1.5" fill="#E3E3E3"/>
<circle cx="290.5" cy="117.902" r="1.5" fill="#E3E3E3"/>
<circle cx="308.5" cy="117.902" r="1.5" fill="#E3E3E3"/>
<circle cx="326.5" cy="117.902" r="1.5" fill="#E3E3E3"/>
<circle cx="344.5" cy="117.902" r="1.5" fill="#E3E3E3"/>
<circle cx="362.5" cy="117.902" r="1.5" fill="#E3E3E3"/>
<circle cx="380.5" cy="117.902" r="1.5" fill="#E3E3E3"/>
<circle cx="398.5" cy="117.902" r="1.5" fill="#E3E3E3"/>
<circle cx="416.5" cy="117.902" r="1.5" fill="#E3E3E3"/>
<circle cx="434.5" cy="117.902" r="1.5" fill="#E3E3E3"/>
<circle cx="452.5" cy="117.902" r="1.5" fill="#E3E3E3"/>
<circle cx="110.5" cy="135.902" r="1.5" fill="#E3E3E3"/>
<circle cx="128.5" cy="135.902" r="1.5" fill="#E3E3E3"/>
<circle cx="146.5" cy="135.902" r="1.5" fill="#E3E3E3"/>
<circle cx="164.5" cy="135.902" r="1.5" fill="#E3E3E3"/>
<circle cx="182.5" cy="135.902" r="1.5" fill="#E3E3E3"/>
<circle cx="200.5" cy="135.902" r="1.5" fill="#E3E3E3"/>
<circle cx="218.5" cy="135.902" r="1.5" fill="#E3E3E3"/>
<circle cx="236.5" cy="135.902" r="1.5" fill="#E3E3E3"/>
<circle cx="254.5" cy="135.902" r="1.5" fill="#E3E3E3"/>
<circle cx="272.5" cy="135.902" r="1.5" fill="#E3E3E3"/>
<circle cx="290.5" cy="135.902" r="1.5" fill="#E3E3E3"/>
<circle cx="308.5" cy="135.902" r="1.5" fill="#E3E3E3"/>
<circle cx="326.5" cy="135.902" r="1.5" fill="#E3E3E3"/>
<circle cx="344.5" cy="135.902" r="1.5" fill="#E3E3E3"/>
<circle cx="362.5" cy="135.902" r="1.5" fill="#E3E3E3"/>
<circle cx="380.5" cy="135.902" r="1.5" fill="#E3E3E3"/>
<circle cx="398.5" cy="135.902" r="1.5" fill="#E3E3E3"/>
<circle cx="416.5" cy="135.902" r="1.5" fill="#E3E3E3"/>
<circle cx="434.5" cy="135.902" r="1.5" fill="#E3E3E3"/>
<circle cx="452.5" cy="135.902" r="1.5" fill="#E3E3E3"/>
<circle cx="110.5" cy="153.902" r="1.5" fill="#E3E3E3"/>
<circle cx="128.5" cy="153.902" r="1.5" fill="#E3E3E3"/>
<circle cx="146.5" cy="153.902" r="1.5" fill="#E3E3E3"/>
<circle cx="164.5" cy="153.902" r="1.5" fill="#E3E3E3"/>
<circle cx="182.5" cy="153.902" r="1.5" fill="#E3E3E3"/>
<circle cx="200.5" cy="153.902" r="1.5" fill="#E3E3E3"/>
<circle cx="218.5" cy="153.902" r="1.5" fill="#E3E3E3"/>
<circle cx="236.5" cy="153.902" r="1.5" fill="#E3E3E3"/>
<circle cx="254.5" cy="153.902" r="1.5" fill="#E3E3E3"/>
<circle cx="272.5" cy="153.902" r="1.5" fill="#E3E3E3"/>
<circle cx="290.5" cy="153.902" r="1.5" fill="#E3E3E3"/>
<circle cx="308.5" cy="153.902" r="1.5" fill="#E3E3E3"/>
<circle cx="326.5" cy="153.902" r="1.5" fill="#E3E3E3"/>
<circle cx="344.5" cy="153.902" r="1.5" fill="#E3E3E3"/>
<circle cx="362.5" cy="153.902" r="1.5" fill="#E3E3E3"/>
<circle cx="380.5" cy="153.902" r="1.5" fill="#E3E3E3"/>
<circle cx="398.5" cy="153.902" r="1.5" fill="#E3E3E3"/>
<circle cx="416.5" cy="153.902" r="1.5" fill="#E3E3E3"/>
<circle cx="434.5" cy="153.902" r="1.5" fill="#E3E3E3"/>
<circle cx="452.5" cy="153.902" r="1.5" fill="#E3E3E3"/>
<circle cx="110.5" cy="171.902" r="1.5" fill="#E3E3E3"/>
<circle cx="128.5" cy="171.902" r="1.5" fill="#E3E3E3"/>
<circle cx="146.5" cy="171.902" r="1.5" fill="#E3E3E3"/>
<circle cx="164.5" cy="171.902" r="1.5" fill="#E3E3E3"/>
<circle cx="182.5" cy="171.902" r="1.5" fill="#E3E3E3"/>
<circle cx="200.5" cy="171.902" r="1.5" fill="#E3E3E3"/>
<circle cx="218.5" cy="171.902" r="1.5" fill="#E3E3E3"/>
<circle cx="236.5" cy="171.902" r="1.5" fill="#E3E3E3"/>
<circle cx="254.5" cy="171.902" r="1.5" fill="#E3E3E3"/>
<circle cx="272.5" cy="171.902" r="1.5" fill="#E3E3E3"/>
<circle cx="290.5" cy="171.902" r="1.5" fill="#E3E3E3"/>
<circle cx="308.5" cy="171.902" r="1.5" fill="#E3E3E3"/>
<circle cx="326.5" cy="171.902" r="1.5" fill="#E3E3E3"/>
<circle cx="344.5" cy="171.902" r="1.5" fill="#E3E3E3"/>
<circle cx="362.5" cy="171.902" r="1.5" fill="#E3E3E3"/>
<circle cx="380.5" cy="171.902" r="1.5" fill="#E3E3E3"/>
<circle cx="398.5" cy="171.902" r="1.5" fill="#E3E3E3"/>
<circle cx="416.5" cy="171.902" r="1.5" fill="#E3E3E3"/>
<circle cx="434.5" cy="171.902" r="1.5" fill="#E3E3E3"/>
<circle cx="452.5" cy="171.902" r="1.5" fill="#E3E3E3"/>
<circle cx="110.5" cy="189.902" r="1.5" fill="#E3E3E3"/>
<circle cx="128.5" cy="189.902" r="1.5" fill="#E3E3E3"/>
<circle cx="146.5" cy="189.902" r="1.5" fill="#E3E3E3"/>
<circle cx="164.5" cy="189.902" r="1.5" fill="#E3E3E3"/>
<circle cx="182.5" cy="189.902" r="1.5" fill="#E3E3E3"/>
<circle cx="200.5" cy="189.902" r="1.5" fill="#E3E3E3"/>
<circle cx="218.5" cy="189.902" r="1.5" fill="#E3E3E3"/>
<circle cx="236.5" cy="189.902" r="1.5" fill="#E3E3E3"/>
<circle cx="254.5" cy="189.902" r="1.5" fill="#E3E3E3"/>
<circle cx="272.5" cy="189.902" r="1.5" fill="#E3E3E3"/>
<circle cx="290.5" cy="189.902" r="1.5" fill="#E3E3E3"/>
<circle cx="308.5" cy="189.902" r="1.5" fill="#E3E3E3"/>
<circle cx="326.5" cy="189.902" r="1.5" fill="#E3E3E3"/>
<circle cx="344.5" cy="189.902" r="1.5" fill="#E3E3E3"/>
<circle cx="362.5" cy="189.902" r="1.5" fill="#E3E3E3"/>
<circle cx="380.5" cy="189.902" r="1.5" fill="#E3E3E3"/>
<circle cx="398.5" cy="189.902" r="1.5" fill="#E3E3E3"/>
<circle cx="416.5" cy="189.902" r="1.5" fill="#E3E3E3"/>
<circle cx="434.5" cy="189.902" r="1.5" fill="#E3E3E3"/>
<circle cx="452.5" cy="189.902" r="1.5" fill="#E3E3E3"/>
<circle cx="110.5" cy="207.902" r="1.5" fill="#E3E3E3"/>
<circle cx="128.5" cy="207.902" r="1.5" fill="#E3E3E3"/>
<circle cx="146.5" cy="207.902" r="1.5" fill="#E3E3E3"/>
<circle cx="164.5" cy="207.902" r="1.5" fill="#E3E3E3"/>
<circle cx="182.5" cy="207.902" r="1.5" fill="#E3E3E3"/>
<circle cx="200.5" cy="207.902" r="1.5" fill="#E3E3E3"/>
<circle cx="218.5" cy="207.902" r="1.5" fill="#E3E3E3"/>
<circle cx="236.5" cy="207.902" r="1.5" fill="#E3E3E3"/>
<circle cx="254.5" cy="207.902" r="1.5" fill="#E3E3E3"/>
<circle cx="272.5" cy="207.902" r="1.5" fill="#E3E3E3"/>
<circle cx="290.5" cy="207.902" r="1.5" fill="#E3E3E3"/>
<circle cx="308.5" cy="207.902" r="1.5" fill="#E3E3E3"/>
<circle cx="326.5" cy="207.902" r="1.5" fill="#E3E3E3"/>
<circle cx="344.5" cy="207.902" r="1.5" fill="#E3E3E3"/>
<circle cx="362.5" cy="207.902" r="1.5" fill="#E3E3E3"/>
<circle cx="380.5" cy="207.902" r="1.5" fill="#E3E3E3"/>
<circle cx="398.5" cy="207.902" r="1.5" fill="#E3E3E3"/>
<circle cx="416.5" cy="207.902" r="1.5" fill="#E3E3E3"/>
<circle cx="434.5" cy="207.902" r="1.5" fill="#E3E3E3"/>
<circle cx="452.5" cy="207.902" r="1.5" fill="#E3E3E3"/>
<circle cx="110.5" cy="225.902" r="1.5" fill="#E3E3E3"/>
<circle cx="128.5" cy="225.902" r="1.5" fill="#E3E3E3"/>
<circle cx="146.5" cy="225.902" r="1.5" fill="#E3E3E3"/>
<circle cx="164.5" cy="225.902" r="1.5" fill="#E3E3E3"/>
<circle cx="182.5" cy="225.902" r="1.5" fill="#E3E3E3"/>
<circle cx="200.5" cy="225.902" r="1.5" fill="#E3E3E3"/>
<circle cx="218.5" cy="225.902" r="1.5" fill="#E3E3E3"/>
<circle cx="236.5" cy="225.902" r="1.5" fill="#E3E3E3"/>
<circle cx="254.5" cy="225.902" r="1.5" fill="#E3E3E3"/>
<circle cx="272.5" cy="225.902" r="1.5" fill="#E3E3E3"/>
<circle cx="290.5" cy="225.902" r="1.5" fill="#E3E3E3"/>
<circle cx="308.5" cy="225.902" r="1.5" fill="#E3E3E3"/>
<circle cx="326.5" cy="225.902" r="1.5" fill="#E3E3E3"/>
<circle cx="344.5" cy="225.902" r="1.5" fill="#E3E3E3"/>
<circle cx="362.5" cy="225.902" r="1.5" fill="#E3E3E3"/>
<circle cx="380.5" cy="225.902" r="1.5" fill="#E3E3E3"/>
<circle cx="398.5" cy="225.902" r="1.5" fill="#E3E3E3"/>
<circle cx="416.5" cy="225.902" r="1.5" fill="#E3E3E3"/>
<circle cx="434.5" cy="225.902" r="1.5" fill="#E3E3E3"/>
<circle cx="452.5" cy="225.902" r="1.5" fill="#E3E3E3"/>
<circle cx="110.5" cy="243.902" r="1.5" fill="#E3E3E3"/>
<circle cx="128.5" cy="243.902" r="1.5" fill="#E3E3E3"/>
<circle cx="146.5" cy="243.902" r="1.5" fill="#E3E3E3"/>
<circle cx="164.5" cy="243.902" r="1.5" fill="#E3E3E3"/>
<circle cx="182.5" cy="243.902" r="1.5" fill="#E3E3E3"/>
<circle cx="200.5" cy="243.902" r="1.5" fill="#E3E3E3"/>
<circle cx="218.5" cy="243.902" r="1.5" fill="#E3E3E3"/>
<circle cx="236.5" cy="243.902" r="1.5" fill="#E3E3E3"/>
<circle cx="254.5" cy="243.902" r="1.5" fill="#E3E3E3"/>
<circle cx="272.5" cy="243.902" r="1.5" fill="#E3E3E3"/>
<circle cx="290.5" cy="243.902" r="1.5" fill="#E3E3E3"/>
<circle cx="308.5" cy="243.902" r="1.5" fill="#E3E3E3"/>
<circle cx="326.5" cy="243.902" r="1.5" fill="#E3E3E3"/>
<circle cx="344.5" cy="243.902" r="1.5" fill="#E3E3E3"/>
<circle cx="362.5" cy="243.902" r="1.5" fill="#E3E3E3"/>
<circle cx="380.5" cy="243.902" r="1.5" fill="#E3E3E3"/>
<circle cx="398.5" cy="243.902" r="1.5" fill="#E3E3E3"/>
<circle cx="416.5" cy="243.902" r="1.5" fill="#E3E3E3"/>
<circle cx="434.5" cy="243.902" r="1.5" fill="#E3E3E3"/>
<circle cx="452.5" cy="243.902" r="1.5" fill="#E3E3E3"/>
<circle cx="110.5" cy="261.902" r="1.5" fill="#E3E3E3"/>
<circle cx="128.5" cy="261.902" r="1.5" fill="#E3E3E3"/>
<circle cx="146.5" cy="261.902" r="1.5" fill="#E3E3E3"/>
<circle cx="164.5" cy="261.902" r="1.5" fill="#E3E3E3"/>
<circle cx="182.5" cy="261.902" r="1.5" fill="#E3E3E3"/>
<circle cx="200.5" cy="261.902" r="1.5" fill="#E3E3E3"/>
<circle cx="218.5" cy="261.902" r="1.5" fill="#E3E3E3"/>
<circle cx="236.5" cy="261.902" r="1.5" fill="#E3E3E3"/>
<circle cx="254.5" cy="261.902" r="1.5" fill="#E3E3E3"/>
<circle cx="272.5" cy="261.902" r="1.5" fill="#E3E3E3"/>
<circle cx="290.5" cy="261.902" r="1.5" fill="#E3E3E3"/>
<circle cx="308.5" cy="261.902" r="1.5" fill="#E3E3E3"/>
<circle cx="326.5" cy="261.902" r="1.5" fill="#E3E3E3"/>
<circle cx="344.5" cy="261.902" r="1.5" fill="#E3E3E3"/>
<circle cx="362.5" cy="261.902" r="1.5" fill="#E3E3E3"/>
<circle cx="380.5" cy="261.902" r="1.5" fill="#E3E3E3"/>
<circle cx="398.5" cy="261.902" r="1.5" fill="#E3E3E3"/>
<circle cx="416.5" cy="261.902" r="1.5" fill="#E3E3E3"/>
<circle cx="434.5" cy="261.902" r="1.5" fill="#E3E3E3"/>
<circle cx="452.5" cy="261.902" r="1.5" fill="#E3E3E3"/>
<circle cx="110.5" cy="279.902" r="1.5" fill="#E3E3E3"/>
<circle cx="128.5" cy="279.902" r="1.5" fill="#E3E3E3"/>
<circle cx="146.5" cy="279.902" r="1.5" fill="#E3E3E3"/>
<circle cx="164.5" cy="279.902" r="1.5" fill="#E3E3E3"/>
<circle cx="182.5" cy="279.902" r="1.5" fill="#E3E3E3"/>
<circle cx="200.5" cy="279.902" r="1.5" fill="#E3E3E3"/>
<circle cx="218.5" cy="279.902" r="1.5" fill="#E3E3E3"/>
<circle cx="236.5" cy="279.902" r="1.5" fill="#E3E3E3"/>
<circle cx="254.5" cy="279.902" r="1.5" fill="#E3E3E3"/>
<circle cx="272.5" cy="279.902" r="1.5" fill="#E3E3E3"/>
<circle cx="290.5" cy="279.902" r="1.5" fill="#E3E3E3"/>
<circle cx="308.5" cy="279.902" r="1.5" fill="#E3E3E3"/>
<circle cx="326.5" cy="279.902" r="1.5" fill="#E3E3E3"/>
<circle cx="344.5" cy="279.902" r="1.5" fill="#E3E3E3"/>
<circle cx="362.5" cy="279.902" r="1.5" fill="#E3E3E3"/>
<circle cx="380.5" cy="279.902" r="1.5" fill="#E3E3E3"/>
<circle cx="398.5" cy="279.902" r="1.5" fill="#E3E3E3"/>
<circle cx="416.5" cy="279.902" r="1.5" fill="#E3E3E3"/>
<circle cx="434.5" cy="279.902" r="1.5" fill="#E3E3E3"/>
<circle cx="452.5" cy="279.902" r="1.5" fill="#E3E3E3"/>
<circle cx="110.5" cy="297.902" r="1.5" fill="#E3E3E3"/>
<circle cx="128.5" cy="297.902" r="1.5" fill="#E3E3E3"/>
<circle cx="146.5" cy="297.902" r="1.5" fill="#E3E3E3"/>
<circle cx="164.5" cy="297.902" r="1.5" fill="#E3E3E3"/>
<circle cx="182.5" cy="297.902" r="1.5" fill="#E3E3E3"/>
<circle cx="200.5" cy="297.902" r="1.5" fill="#E3E3E3"/>
<circle cx="218.5" cy="297.902" r="1.5" fill="#E3E3E3"/>
<circle cx="236.5" cy="297.902" r="1.5" fill="#E3E3E3"/>
<circle cx="254.5" cy="297.902" r="1.5" fill="#E3E3E3"/>
<circle cx="272.5" cy="297.902" r="1.5" fill="#E3E3E3"/>
<circle cx="290.5" cy="297.902" r="1.5" fill="#E3E3E3"/>
<circle cx="308.5" cy="297.902" r="1.5" fill="#E3E3E3"/>
<circle cx="326.5" cy="297.902" r="1.5" fill="#E3E3E3"/>
<circle cx="344.5" cy="297.902" r="1.5" fill="#E3E3E3"/>
<circle cx="362.5" cy="297.902" r="1.5" fill="#E3E3E3"/>
<circle cx="380.5" cy="297.902" r="1.5" fill="#E3E3E3"/>
<circle cx="398.5" cy="297.902" r="1.5" fill="#E3E3E3"/>
<circle cx="416.5" cy="297.902" r="1.5" fill="#E3E3E3"/>
<circle cx="434.5" cy="297.902" r="1.5" fill="#E3E3E3"/>
<circle cx="452.5" cy="297.902" r="1.5" fill="#E3E3E3"/>
<circle cx="110.5" cy="315.902" r="1.5" fill="#E3E3E3"/>
<circle cx="128.5" cy="315.902" r="1.5" fill="#E3E3E3"/>
<circle cx="146.5" cy="315.902" r="1.5" fill="#E3E3E3"/>
<circle cx="164.5" cy="315.902" r="1.5" fill="#E3E3E3"/>
<circle cx="182.5" cy="315.902" r="1.5" fill="#E3E3E3"/>
<circle cx="200.5" cy="315.902" r="1.5" fill="#E3E3E3"/>
<circle cx="218.5" cy="315.902" r="1.5" fill="#E3E3E3"/>
<circle cx="236.5" cy="315.902" r="1.5" fill="#E3E3E3"/>
<circle cx="254.5" cy="315.902" r="1.5" fill="#E3E3E3"/>
<circle cx="272.5" cy="315.902" r="1.5" fill="#E3E3E3"/>
<circle cx="290.5" cy="315.902" r="1.5" fill="#E3E3E3"/>
<circle cx="308.5" cy="315.902" r="1.5" fill="#E3E3E3"/>
<circle cx="326.5" cy="315.902" r="1.5" fill="#E3E3E3"/>
<circle cx="344.5" cy="315.902" r="1.5" fill="#E3E3E3"/>
<circle cx="362.5" cy="315.902" r="1.5" fill="#E3E3E3"/>
<circle cx="380.5" cy="315.902" r="1.5" fill="#E3E3E3"/>
<circle cx="398.5" cy="315.902" r="1.5" fill="#E3E3E3"/>
<circle cx="416.5" cy="315.902" r="1.5" fill="#E3E3E3"/>
<circle cx="434.5" cy="315.902" r="1.5" fill="#E3E3E3"/>
<circle cx="452.5" cy="315.902" r="1.5" fill="#E3E3E3"/>
<circle cx="110.5" cy="333.902" r="1.5" fill="#E3E3E3"/>
<circle cx="128.5" cy="333.902" r="1.5" fill="#E3E3E3"/>
<circle cx="146.5" cy="333.902" r="1.5" fill="#E3E3E3"/>
<circle cx="164.5" cy="333.902" r="1.5" fill="#E3E3E3"/>
<circle cx="182.5" cy="333.902" r="1.5" fill="#E3E3E3"/>
<circle cx="200.5" cy="333.902" r="1.5" fill="#E3E3E3"/>
<circle cx="218.5" cy="333.902" r="1.5" fill="#E3E3E3"/>
<circle cx="236.5" cy="333.902" r="1.5" fill="#E3E3E3"/>
<circle cx="254.5" cy="333.902" r="1.5" fill="#E3E3E3"/>
<circle cx="272.5" cy="333.902" r="1.5" fill="#E3E3E3"/>
<circle cx="290.5" cy="333.902" r="1.5" fill="#E3E3E3"/>
<circle cx="308.5" cy="333.902" r="1.5" fill="#E3E3E3"/>
<circle cx="326.5" cy="333.902" r="1.5" fill="#E3E3E3"/>
<circle cx="344.5" cy="333.902" r="1.5" fill="#E3E3E3"/>
<circle cx="362.5" cy="333.902" r="1.5" fill="#E3E3E3"/>
<circle cx="380.5" cy="333.902" r="1.5" fill="#E3E3E3"/>
<circle cx="398.5" cy="333.902" r="1.5" fill="#E3E3E3"/>
<circle cx="416.5" cy="333.902" r="1.5" fill="#E3E3E3"/>
<circle cx="434.5" cy="333.902" r="1.5" fill="#E3E3E3"/>
<circle cx="452.5" cy="333.902" r="1.5" fill="#E3E3E3"/>
<circle cx="110.5" cy="351.902" r="1.5" fill="#E3E3E3"/>
<circle cx="128.5" cy="351.902" r="1.5" fill="#E3E3E3"/>
<circle cx="146.5" cy="351.902" r="1.5" fill="#E3E3E3"/>
<circle cx="164.5" cy="351.902" r="1.5" fill="#E3E3E3"/>
<circle cx="182.5" cy="351.902" r="1.5" fill="#E3E3E3"/>
<circle cx="200.5" cy="351.902" r="1.5" fill="#E3E3E3"/>
<circle cx="218.5" cy="351.902" r="1.5" fill="#E3E3E3"/>
<circle cx="236.5" cy="351.902" r="1.5" fill="#E3E3E3"/>
<circle cx="254.5" cy="351.902" r="1.5" fill="#E3E3E3"/>
<circle cx="272.5" cy="351.902" r="1.5" fill="#E3E3E3"/>
<circle cx="290.5" cy="351.902" r="1.5" fill="#E3E3E3"/>
<circle cx="308.5" cy="351.902" r="1.5" fill="#E3E3E3"/>
<circle cx="326.5" cy="351.902" r="1.5" fill="#E3E3E3"/>
<circle cx="344.5" cy="351.902" r="1.5" fill="#E3E3E3"/>
<circle cx="362.5" cy="351.902" r="1.5" fill="#E3E3E3"/>
<circle cx="380.5" cy="351.902" r="1.5" fill="#E3E3E3"/>
<circle cx="398.5" cy="351.902" r="1.5" fill="#E3E3E3"/>
<circle cx="416.5" cy="351.902" r="1.5" fill="#E3E3E3"/>
<circle cx="434.5" cy="351.902" r="1.5" fill="#E3E3E3"/>
<circle cx="452.5" cy="351.902" r="1.5" fill="#E3E3E3"/>
<rect x="15" y="7.40234" width="453" height="348" fill="url(#paint0_radial)"/>
<path d="M3.43037 299.32C-11.6742 296.608 -24.6847 283.351 -35.2744 268.541C-45.8466 253.756 -53.9739 237.401 -52.1171 222.079C-50.2603 206.757 -38.4063 192.385 -24.1707 183.692C-9.91745 175.024 6.70639 171.968 22.6948 174.217C38.7009 176.49 54.0298 184.06 64.9116 196.588C75.7934 209.115 82.2039 226.617 79.4633 242.401C76.7161 258.227 64.7761 272.33 50.2484 283.305C35.679 294.274 18.5285 302.073 3.43037 299.32Z" fill="#FE840E"/>
<path d="M41.52 125.322C34.08 125.322 27.48 123.602 21.72 120.162C16.04 116.642 11.56 111.602 8.28 105.042C5.08 98.4023 3.48 90.5223 3.48 81.4023C3.48 72.2823 5.08 64.4423 8.28 57.8823C11.56 51.2423 16.04 46.2023 21.72 42.7623C27.48 39.2423 34.08 37.4823 41.52 37.4823C48.96 37.4823 55.52 39.2423 61.2 42.7623C66.96 46.2023 71.44 51.2423 74.64 57.8823C77.92 64.4423 79.56 72.2823 79.56 81.4023C79.56 90.5223 77.92 98.4023 74.64 105.042C71.44 111.602 66.96 116.642 61.2 120.162C55.52 123.602 48.96 125.322 41.52 125.322ZM41.52 102.642C47.92 102.642 51.12 95.5623 51.12 81.4023C51.12 67.2423 47.92 60.1623 41.52 60.1623C35.12 60.1623 31.92 67.2423 31.92 81.4023C31.92 95.5623 35.12 102.642 41.52 102.642ZM118.486 69.0423C130.246 69.0423 138.886 71.5223 144.406 76.4823C150.006 81.3623 152.806 87.8023 152.806 95.8023C152.806 101.082 151.406 105.962 148.606 110.442C145.886 114.842 141.646 118.442 135.886 121.242C130.126 123.962 122.966 125.322 114.406 125.322C108.486 125.322 102.566 124.682 96.6459 123.402C90.8059 122.122 85.6859 120.242 81.2859 117.762L90.8859 96.8823C94.4059 98.8823 98.0859 100.402 101.926 101.442C105.846 102.482 109.646 103.002 113.326 103.002C116.606 103.002 119.246 102.442 121.246 101.322C123.326 100.122 124.366 98.4823 124.366 96.4023C124.366 94.4023 123.446 92.9223 121.606 91.9623C119.766 90.9223 116.446 90.4023 111.646 90.4023H87.2859L91.4859 39.4023L147.286 39.4023V60.7623H114.766L114.166 69.0423H118.486Z" fill="#E3E3E3"/>
</g>
</g>
<rect x="402.161" y="45.4023" width="2.64828" height="128" rx="1.32414" fill="#E3E3E3"/>
<rect x="338.603" y="45.4023" width="2.64828" height="128" rx="1.32414" fill="#E3E3E3"/>
<rect x="275.044" y="45.4023" width="2.64828" height="128" rx="1.32414" fill="#E3E3E3"/>
<rect x="211.485" y="45.4023" width="2.64828" height="128" rx="1.32414" fill="#E3E3E3"/>
<path d="M189.417 116.698C195.211 116.698 199.421 108.787 203.49 101.134C208.041 92.5763 212.721 83.7621 220.616 84.6979C230.699 85.9399 234.56 102.258 238.648 119.533C241.818 132.932 245.413 148.117 251.524 148.721C257.098 149.22 261.548 136.926 265.414 126.028C269.945 113.256 274.225 101.191 282.156 100.695C289.527 100.234 293.781 108.648 297.908 116.783C302.037 124.923 306.267 133.375 313.051 132.711C319.867 132.078 323.744 115.73 327.162 101.307C331.14 84.5245 334.899 68.6755 344.192 68.6755C354.212 68.6755 357.273 87.3683 360.818 109.012C363.866 127.619 367.32 148.71 375.147 148.71C380.622 148.71 385.757 135.418 389.884 124.737C394.868 111.834 399.173 100.69 406.104 100.69C410.989 100.69 413.681 105.68 416.058 110.083C417.812 113.336 419.628 116.698 421.583 116.698" stroke="url(#paint1_linear)" stroke-width="3" stroke-linecap="round" stroke-linejoin="round"/>
<defs>
<filter id="filter0_d" x="0" y="0.402344" width="483" height="378" filterUnits="userSpaceOnUse" color-interpolation-filters="sRGB">
<feFlood flood-opacity="0" result="BackgroundImageFix"/>
<feColorMatrix in="SourceAlpha" type="matrix" values="0 0 0 0 0 0 0 0 0 0 0 0 0 0 0 0 0 0 127 0"/>
<feOffset dy="8"/>
<feGaussianBlur stdDeviation="7.5"/>
<feColorMatrix type="matrix" values="0 0 0 0 0 0 0 0 0 0 0 0 0 0 0 0 0 0 0.1 0"/>
<feBlend mode="normal" in2="BackgroundImageFix" result="effect1_dropShadow"/>
<feBlend mode="normal" in="SourceGraphic" in2="effect1_dropShadow" result="shape"/>
</filter>
<radialGradient id="paint0_radial" cx="0" cy="0" r="1" gradientUnits="userSpaceOnUse" gradientTransform="translate(332.5 169.402) rotate(180) scale(218 283.776)">
<stop stop-color="white" stop-opacity="0"/>
<stop offset="1" stop-color="white"/>
</radialGradient>
<linearGradient id="paint1_linear" x1="324.336" y1="68.6755" x2="324.336" y2="148.736" gradientUnits="userSpaceOnUse">
<stop stop-color="#FE840E"/>
<stop offset="1" stop-color="#C81F56"/>
</linearGradient>
</defs>
</svg>
