<svg width="483" height="379" viewBox="0 0 483 379" fill="none" xmlns="http://www.w3.org/2000/svg">
<g filter="url(#filter0_d)">
<mask id="mask0" mask-type="alpha" maskUnits="userSpaceOnUse" x="15" y="7" width="453" height="349">
<rect x="15" y="7.40247" width="453" height="348" rx="20" fill="#FE840E"/>
</mask>
<g mask="url(#mask0)">
<rect x="15" y="7.40247" width="453" height="348" fill="white"/>
<circle cx="110.5" cy="9.90247" r="1.5" fill="#E3E3E3"/>
<circle cx="128.5" cy="9.90247" r="1.5" fill="#E3E3E3"/>
<circle cx="146.5" cy="9.90247" r="1.5" fill="#E3E3E3"/>
<circle cx="164.5" cy="9.90247" r="1.5" fill="#E3E3E3"/>
<circle cx="182.5" cy="9.90247" r="1.5" fill="#E3E3E3"/>
<circle cx="200.5" cy="9.90247" r="1.5" fill="#E3E3E3"/>
<circle cx="218.5" cy="9.90247" r="1.5" fill="#E3E3E3"/>
<circle cx="236.5" cy="9.90247" r="1.5" fill="#E3E3E3"/>
<circle cx="254.5" cy="9.90247" r="1.5" fill="#E3E3E3"/>
<circle cx="272.5" cy="9.90247" r="1.5" fill="#E3E3E3"/>
<circle cx="290.5" cy="9.90247" r="1.5" fill="#E3E3E3"/>
<circle cx="308.5" cy="9.90247" r="1.5" fill="#E3E3E3"/>
<circle cx="326.5" cy="9.90247" r="1.5" fill="#E3E3E3"/>
<circle cx="344.5" cy="9.90247" r="1.5" fill="#E3E3E3"/>
<circle cx="362.5" cy="9.90247" r="1.5" fill="#E3E3E3"/>
<circle cx="380.5" cy="9.90247" r="1.5" fill="#E3E3E3"/>
<circle cx="398.5" cy="9.90247" r="1.5" fill="#E3E3E3"/>
<circle cx="416.5" cy="9.90247" r="1.5" fill="#E3E3E3"/>
<circle cx="434.5" cy="9.90247" r="1.5" fill="#E3E3E3"/>
<circle cx="452.5" cy="9.90247" r="1.5" fill="#E3E3E3"/>
<circle cx="110.5" cy="27.9025" r="1.5" fill="#E3E3E3"/>
<circle cx="128.5" cy="27.9025" r="1.5" fill="#E3E3E3"/>
<circle cx="146.5" cy="27.9025" r="1.5" fill="#E3E3E3"/>
<circle cx="164.5" cy="27.9025" r="1.5" fill="#E3E3E3"/>
<circle cx="182.5" cy="27.9025" r="1.5" fill="#E3E3E3"/>
<circle cx="200.5" cy="27.9025" r="1.5" fill="#E3E3E3"/>
<circle cx="218.5" cy="27.9025" r="1.5" fill="#E3E3E3"/>
<circle cx="236.5" cy="27.9025" r="1.5" fill="#E3E3E3"/>
<circle cx="254.5" cy="27.9025" r="1.5" fill="#E3E3E3"/>
<circle cx="272.5" cy="27.9025" r="1.5" fill="#E3E3E3"/>
<circle cx="290.5" cy="27.9025" r="1.5" fill="#E3E3E3"/>
<circle cx="308.5" cy="27.9025" r="1.5" fill="#E3E3E3"/>
<circle cx="326.5" cy="27.9025" r="1.5" fill="#E3E3E3"/>
<circle cx="344.5" cy="27.9025" r="1.5" fill="#E3E3E3"/>
<circle cx="362.5" cy="27.9025" r="1.5" fill="#E3E3E3"/>
<circle cx="380.5" cy="27.9025" r="1.5" fill="#E3E3E3"/>
<circle cx="398.5" cy="27.9025" r="1.5" fill="#E3E3E3"/>
<circle cx="416.5" cy="27.9025" r="1.5" fill="#E3E3E3"/>
<circle cx="434.5" cy="27.9025" r="1.5" fill="#E3E3E3"/>
<circle cx="452.5" cy="27.9025" r="1.5" fill="#E3E3E3"/>
<circle cx="110.5" cy="45.9025" r="1.5" fill="#E3E3E3"/>
<circle cx="128.5" cy="45.9025" r="1.5" fill="#E3E3E3"/>
<circle cx="146.5" cy="45.9025" r="1.5" fill="#E3E3E3"/>
<circle cx="164.5" cy="45.9025" r="1.5" fill="#E3E3E3"/>
<circle cx="182.5" cy="45.9025" r="1.5" fill="#E3E3E3"/>
<circle cx="200.5" cy="45.9025" r="1.5" fill="#E3E3E3"/>
<circle cx="218.5" cy="45.9025" r="1.5" fill="#E3E3E3"/>
<circle cx="236.5" cy="45.9025" r="1.5" fill="#E3E3E3"/>
<circle cx="254.5" cy="45.9025" r="1.5" fill="#E3E3E3"/>
<circle cx="272.5" cy="45.9025" r="1.5" fill="#E3E3E3"/>
<circle cx="290.5" cy="45.9025" r="1.5" fill="#E3E3E3"/>
<circle cx="308.5" cy="45.9025" r="1.5" fill="#E3E3E3"/>
<circle cx="326.5" cy="45.9025" r="1.5" fill="#E3E3E3"/>
<circle cx="344.5" cy="45.9025" r="1.5" fill="#E3E3E3"/>
<circle cx="362.5" cy="45.9025" r="1.5" fill="#E3E3E3"/>
<circle cx="380.5" cy="45.9025" r="1.5" fill="#E3E3E3"/>
<circle cx="398.5" cy="45.9025" r="1.5" fill="#E3E3E3"/>
<circle cx="416.5" cy="45.9025" r="1.5" fill="#E3E3E3"/>
<circle cx="434.5" cy="45.9025" r="1.5" fill="#E3E3E3"/>
<circle cx="452.5" cy="45.9025" r="1.5" fill="#E3E3E3"/>
<circle cx="110.5" cy="63.9025" r="1.5" fill="#E3E3E3"/>
<circle cx="128.5" cy="63.9025" r="1.5" fill="#E3E3E3"/>
<circle cx="146.5" cy="63.9025" r="1.5" fill="#E3E3E3"/>
<circle cx="164.5" cy="63.9025" r="1.5" fill="#E3E3E3"/>
<circle cx="182.5" cy="63.9025" r="1.5" fill="#E3E3E3"/>
<circle cx="200.5" cy="63.9025" r="1.5" fill="#E3E3E3"/>
<circle cx="218.5" cy="63.9025" r="1.5" fill="#E3E3E3"/>
<circle cx="236.5" cy="63.9025" r="1.5" fill="#E3E3E3"/>
<circle cx="254.5" cy="63.9025" r="1.5" fill="#E3E3E3"/>
<circle cx="272.5" cy="63.9025" r="1.5" fill="#E3E3E3"/>
<circle cx="290.5" cy="63.9025" r="1.5" fill="#E3E3E3"/>
<circle cx="308.5" cy="63.9025" r="1.5" fill="#E3E3E3"/>
<circle cx="326.5" cy="63.9025" r="1.5" fill="#E3E3E3"/>
<circle cx="344.5" cy="63.9025" r="1.5" fill="#E3E3E3"/>
<circle cx="362.5" cy="63.9025" r="1.5" fill="#E3E3E3"/>
<circle cx="380.5" cy="63.9025" r="1.5" fill="#E3E3E3"/>
<circle cx="398.5" cy="63.9025" r="1.5" fill="#E3E3E3"/>
<circle cx="416.5" cy="63.9025" r="1.5" fill="#E3E3E3"/>
<circle cx="434.5" cy="63.9025" r="1.5" fill="#E3E3E3"/>
<circle cx="452.5" cy="63.9025" r="1.5" fill="#E3E3E3"/>
<circle cx="110.5" cy="81.9025" r="1.5" fill="#E3E3E3"/>
<circle cx="128.5" cy="81.9025" r="1.5" fill="#E3E3E3"/>
<circle cx="146.5" cy="81.9025" r="1.5" fill="#E3E3E3"/>
<circle cx="164.5" cy="81.9025" r="1.5" fill="#E3E3E3"/>
<circle cx="182.5" cy="81.9025" r="1.5" fill="#E3E3E3"/>
<circle cx="200.5" cy="81.9025" r="1.5" fill="#E3E3E3"/>
<circle cx="218.5" cy="81.9025" r="1.5" fill="#E3E3E3"/>
<circle cx="236.5" cy="81.9025" r="1.5" fill="#E3E3E3"/>
<circle cx="254.5" cy="81.9025" r="1.5" fill="#E3E3E3"/>
<circle cx="272.5" cy="81.9025" r="1.5" fill="#E3E3E3"/>
<circle cx="290.5" cy="81.9025" r="1.5" fill="#E3E3E3"/>
<circle cx="308.5" cy="81.9025" r="1.5" fill="#E3E3E3"/>
<circle cx="326.5" cy="81.9025" r="1.5" fill="#E3E3E3"/>
<circle cx="344.5" cy="81.9025" r="1.5" fill="#E3E3E3"/>
<circle cx="362.5" cy="81.9025" r="1.5" fill="#E3E3E3"/>
<circle cx="380.5" cy="81.9025" r="1.5" fill="#E3E3E3"/>
<circle cx="398.5" cy="81.9025" r="1.5" fill="#E3E3E3"/>
<circle cx="416.5" cy="81.9025" r="1.5" fill="#E3E3E3"/>
<circle cx="434.5" cy="81.9025" r="1.5" fill="#E3E3E3"/>
<circle cx="452.5" cy="81.9025" r="1.5" fill="#E3E3E3"/>
<circle cx="110.5" cy="99.9025" r="1.5" fill="#E3E3E3"/>
<circle cx="128.5" cy="99.9025" r="1.5" fill="#E3E3E3"/>
<circle cx="146.5" cy="99.9025" r="1.5" fill="#E3E3E3"/>
<circle cx="164.5" cy="99.9025" r="1.5" fill="#E3E3E3"/>
<circle cx="182.5" cy="99.9025" r="1.5" fill="#E3E3E3"/>
<circle cx="200.5" cy="99.9025" r="1.5" fill="#E3E3E3"/>
<circle cx="218.5" cy="99.9025" r="1.5" fill="#E3E3E3"/>
<circle cx="236.5" cy="99.9025" r="1.5" fill="#E3E3E3"/>
<circle cx="254.5" cy="99.9025" r="1.5" fill="#E3E3E3"/>
<circle cx="272.5" cy="99.9025" r="1.5" fill="#E3E3E3"/>
<circle cx="290.5" cy="99.9025" r="1.5" fill="#E3E3E3"/>
<circle cx="308.5" cy="99.9025" r="1.5" fill="#E3E3E3"/>
<circle cx="326.5" cy="99.9025" r="1.5" fill="#E3E3E3"/>
<circle cx="344.5" cy="99.9025" r="1.5" fill="#E3E3E3"/>
<circle cx="362.5" cy="99.9025" r="1.5" fill="#E3E3E3"/>
<circle cx="380.5" cy="99.9025" r="1.5" fill="#E3E3E3"/>
<circle cx="398.5" cy="99.9025" r="1.5" fill="#E3E3E3"/>
<circle cx="416.5" cy="99.9025" r="1.5" fill="#E3E3E3"/>
<circle cx="434.5" cy="99.9025" r="1.5" fill="#E3E3E3"/>
<circle cx="452.5" cy="99.9025" r="1.5" fill="#E3E3E3"/>
<circle cx="110.5" cy="117.902" r="1.5" fill="#E3E3E3"/>
<circle cx="128.5" cy="117.902" r="1.5" fill="#E3E3E3"/>
<circle cx="146.5" cy="117.902" r="1.5" fill="#E3E3E3"/>
<circle cx="164.5" cy="117.902" r="1.5" fill="#E3E3E3"/>
<circle cx="182.5" cy="117.902" r="1.5" fill="#E3E3E3"/>
<circle cx="200.5" cy="117.902" r="1.5" fill="#E3E3E3"/>
<circle cx="218.5" cy="117.902" r="1.5" fill="#E3E3E3"/>
<circle cx="236.5" cy="117.902" r="1.5" fill="#E3E3E3"/>
<circle cx="254.5" cy="117.902" r="1.5" fill="#E3E3E3"/>
<circle cx="272.5" cy="117.902" r="1.5" fill="#E3E3E3"/>
<circle cx="290.5" cy="117.902" r="1.5" fill="#E3E3E3"/>
<circle cx="308.5" cy="117.902" r="1.5" fill="#E3E3E3"/>
<circle cx="326.5" cy="117.902" r="1.5" fill="#E3E3E3"/>
<circle cx="344.5" cy="117.902" r="1.5" fill="#E3E3E3"/>
<circle cx="362.5" cy="117.902" r="1.5" fill="#E3E3E3"/>
<circle cx="380.5" cy="117.902" r="1.5" fill="#E3E3E3"/>
<circle cx="398.5" cy="117.902" r="1.5" fill="#E3E3E3"/>
<circle cx="416.5" cy="117.902" r="1.5" fill="#E3E3E3"/>
<circle cx="434.5" cy="117.902" r="1.5" fill="#E3E3E3"/>
<circle cx="452.5" cy="117.902" r="1.5" fill="#E3E3E3"/>
<circle cx="110.5" cy="135.902" r="1.5" fill="#E3E3E3"/>
<circle cx="128.5" cy="135.902" r="1.5" fill="#E3E3E3"/>
<circle cx="146.5" cy="135.902" r="1.5" fill="#E3E3E3"/>
<circle cx="164.5" cy="135.902" r="1.5" fill="#E3E3E3"/>
<circle cx="182.5" cy="135.902" r="1.5" fill="#E3E3E3"/>
<circle cx="200.5" cy="135.902" r="1.5" fill="#E3E3E3"/>
<circle cx="218.5" cy="135.902" r="1.5" fill="#E3E3E3"/>
<circle cx="236.5" cy="135.902" r="1.5" fill="#E3E3E3"/>
<circle cx="254.5" cy="135.902" r="1.5" fill="#E3E3E3"/>
<circle cx="272.5" cy="135.902" r="1.5" fill="#E3E3E3"/>
<circle cx="290.5" cy="135.902" r="1.5" fill="#E3E3E3"/>
<circle cx="308.5" cy="135.902" r="1.5" fill="#E3E3E3"/>
<circle cx="326.5" cy="135.902" r="1.5" fill="#E3E3E3"/>
<circle cx="344.5" cy="135.902" r="1.5" fill="#E3E3E3"/>
<circle cx="362.5" cy="135.902" r="1.5" fill="#E3E3E3"/>
<circle cx="380.5" cy="135.902" r="1.5" fill="#E3E3E3"/>
<circle cx="398.5" cy="135.902" r="1.5" fill="#E3E3E3"/>
<circle cx="416.5" cy="135.902" r="1.5" fill="#E3E3E3"/>
<circle cx="434.5" cy="135.902" r="1.5" fill="#E3E3E3"/>
<circle cx="452.5" cy="135.902" r="1.5" fill="#E3E3E3"/>
<circle cx="110.5" cy="153.902" r="1.5" fill="#E3E3E3"/>
<circle cx="128.5" cy="153.902" r="1.5" fill="#E3E3E3"/>
<circle cx="146.5" cy="153.902" r="1.5" fill="#E3E3E3"/>
<circle cx="164.5" cy="153.902" r="1.5" fill="#E3E3E3"/>
<circle cx="182.5" cy="153.902" r="1.5" fill="#E3E3E3"/>
<circle cx="200.5" cy="153.902" r="1.5" fill="#E3E3E3"/>
<circle cx="218.5" cy="153.902" r="1.5" fill="#E3E3E3"/>
<circle cx="236.5" cy="153.902" r="1.5" fill="#E3E3E3"/>
<circle cx="254.5" cy="153.902" r="1.5" fill="#E3E3E3"/>
<circle cx="272.5" cy="153.902" r="1.5" fill="#E3E3E3"/>
<circle cx="290.5" cy="153.902" r="1.5" fill="#E3E3E3"/>
<circle cx="308.5" cy="153.902" r="1.5" fill="#E3E3E3"/>
<circle cx="326.5" cy="153.902" r="1.5" fill="#E3E3E3"/>
<circle cx="344.5" cy="153.902" r="1.5" fill="#E3E3E3"/>
<circle cx="362.5" cy="153.902" r="1.5" fill="#E3E3E3"/>
<circle cx="380.5" cy="153.902" r="1.5" fill="#E3E3E3"/>
<circle cx="398.5" cy="153.902" r="1.5" fill="#E3E3E3"/>
<circle cx="416.5" cy="153.902" r="1.5" fill="#E3E3E3"/>
<circle cx="434.5" cy="153.902" r="1.5" fill="#E3E3E3"/>
<circle cx="452.5" cy="153.902" r="1.5" fill="#E3E3E3"/>
<circle cx="110.5" cy="171.902" r="1.5" fill="#E3E3E3"/>
<circle cx="128.5" cy="171.902" r="1.5" fill="#E3E3E3"/>
<circle cx="146.5" cy="171.902" r="1.5" fill="#E3E3E3"/>
<circle cx="164.5" cy="171.902" r="1.5" fill="#E3E3E3"/>
<circle cx="182.5" cy="171.902" r="1.5" fill="#E3E3E3"/>
<circle cx="200.5" cy="171.902" r="1.5" fill="#E3E3E3"/>
<circle cx="218.5" cy="171.902" r="1.5" fill="#E3E3E3"/>
<circle cx="236.5" cy="171.902" r="1.5" fill="#E3E3E3"/>
<circle cx="254.5" cy="171.902" r="1.5" fill="#E3E3E3"/>
<circle cx="272.5" cy="171.902" r="1.5" fill="#E3E3E3"/>
<circle cx="290.5" cy="171.902" r="1.5" fill="#E3E3E3"/>
<circle cx="308.5" cy="171.902" r="1.5" fill="#E3E3E3"/>
<circle cx="326.5" cy="171.902" r="1.5" fill="#E3E3E3"/>
<circle cx="344.5" cy="171.902" r="1.5" fill="#E3E3E3"/>
<circle cx="362.5" cy="171.902" r="1.5" fill="#E3E3E3"/>
<circle cx="380.5" cy="171.902" r="1.5" fill="#E3E3E3"/>
<circle cx="398.5" cy="171.902" r="1.5" fill="#E3E3E3"/>
<circle cx="416.5" cy="171.902" r="1.5" fill="#E3E3E3"/>
<circle cx="434.5" cy="171.902" r="1.5" fill="#E3E3E3"/>
<circle cx="452.5" cy="171.902" r="1.5" fill="#E3E3E3"/>
<circle cx="110.5" cy="189.902" r="1.5" fill="#E3E3E3"/>
<circle cx="128.5" cy="189.902" r="1.5" fill="#E3E3E3"/>
<circle cx="146.5" cy="189.902" r="1.5" fill="#E3E3E3"/>
<circle cx="164.5" cy="189.902" r="1.5" fill="#E3E3E3"/>
<circle cx="182.5" cy="189.902" r="1.5" fill="#E3E3E3"/>
<circle cx="200.5" cy="189.902" r="1.5" fill="#E3E3E3"/>
<circle cx="218.5" cy="189.902" r="1.5" fill="#E3E3E3"/>
<circle cx="236.5" cy="189.902" r="1.5" fill="#E3E3E3"/>
<circle cx="254.5" cy="189.902" r="1.5" fill="#E3E3E3"/>
<circle cx="272.5" cy="189.902" r="1.5" fill="#E3E3E3"/>
<circle cx="290.5" cy="189.902" r="1.5" fill="#E3E3E3"/>
<circle cx="308.5" cy="189.902" r="1.5" fill="#E3E3E3"/>
<circle cx="326.5" cy="189.902" r="1.5" fill="#E3E3E3"/>
<circle cx="344.5" cy="189.902" r="1.5" fill="#E3E3E3"/>
<circle cx="362.5" cy="189.902" r="1.5" fill="#E3E3E3"/>
<circle cx="380.5" cy="189.902" r="1.5" fill="#E3E3E3"/>
<circle cx="398.5" cy="189.902" r="1.5" fill="#E3E3E3"/>
<circle cx="416.5" cy="189.902" r="1.5" fill="#E3E3E3"/>
<circle cx="434.5" cy="189.902" r="1.5" fill="#E3E3E3"/>
<circle cx="452.5" cy="189.902" r="1.5" fill="#E3E3E3"/>
<circle cx="110.5" cy="207.902" r="1.5" fill="#E3E3E3"/>
<circle cx="128.5" cy="207.902" r="1.5" fill="#E3E3E3"/>
<circle cx="146.5" cy="207.902" r="1.5" fill="#E3E3E3"/>
<circle cx="164.5" cy="207.902" r="1.5" fill="#E3E3E3"/>
<circle cx="182.5" cy="207.902" r="1.5" fill="#E3E3E3"/>
<circle cx="200.5" cy="207.902" r="1.5" fill="#E3E3E3"/>
<circle cx="218.5" cy="207.902" r="1.5" fill="#E3E3E3"/>
<circle cx="236.5" cy="207.902" r="1.5" fill="#E3E3E3"/>
<circle cx="254.5" cy="207.902" r="1.5" fill="#E3E3E3"/>
<circle cx="272.5" cy="207.902" r="1.5" fill="#E3E3E3"/>
<circle cx="290.5" cy="207.902" r="1.5" fill="#E3E3E3"/>
<circle cx="308.5" cy="207.902" r="1.5" fill="#E3E3E3"/>
<circle cx="326.5" cy="207.902" r="1.5" fill="#E3E3E3"/>
<circle cx="344.5" cy="207.902" r="1.5" fill="#E3E3E3"/>
<circle cx="362.5" cy="207.902" r="1.5" fill="#E3E3E3"/>
<circle cx="380.5" cy="207.902" r="1.5" fill="#E3E3E3"/>
<circle cx="398.5" cy="207.902" r="1.5" fill="#E3E3E3"/>
<circle cx="416.5" cy="207.902" r="1.5" fill="#E3E3E3"/>
<circle cx="434.5" cy="207.902" r="1.5" fill="#E3E3E3"/>
<circle cx="452.5" cy="207.902" r="1.5" fill="#E3E3E3"/>
<circle cx="110.5" cy="225.902" r="1.5" fill="#E3E3E3"/>
<circle cx="128.5" cy="225.902" r="1.5" fill="#E3E3E3"/>
<circle cx="146.5" cy="225.902" r="1.5" fill="#E3E3E3"/>
<circle cx="164.5" cy="225.902" r="1.5" fill="#E3E3E3"/>
<circle cx="182.5" cy="225.902" r="1.5" fill="#E3E3E3"/>
<circle cx="200.5" cy="225.902" r="1.5" fill="#E3E3E3"/>
<circle cx="218.5" cy="225.902" r="1.5" fill="#E3E3E3"/>
<circle cx="236.5" cy="225.902" r="1.5" fill="#E3E3E3"/>
<circle cx="254.5" cy="225.902" r="1.5" fill="#E3E3E3"/>
<circle cx="272.5" cy="225.902" r="1.5" fill="#E3E3E3"/>
<circle cx="290.5" cy="225.902" r="1.5" fill="#E3E3E3"/>
<circle cx="308.5" cy="225.902" r="1.5" fill="#E3E3E3"/>
<circle cx="326.5" cy="225.902" r="1.5" fill="#E3E3E3"/>
<circle cx="344.5" cy="225.902" r="1.5" fill="#E3E3E3"/>
<circle cx="362.5" cy="225.902" r="1.5" fill="#E3E3E3"/>
<circle cx="380.5" cy="225.902" r="1.5" fill="#E3E3E3"/>
<circle cx="398.5" cy="225.902" r="1.5" fill="#E3E3E3"/>
<circle cx="416.5" cy="225.902" r="1.5" fill="#E3E3E3"/>
<circle cx="434.5" cy="225.902" r="1.5" fill="#E3E3E3"/>
<circle cx="452.5" cy="225.902" r="1.5" fill="#E3E3E3"/>
<circle cx="110.5" cy="243.902" r="1.5" fill="#E3E3E3"/>
<circle cx="128.5" cy="243.902" r="1.5" fill="#E3E3E3"/>
<circle cx="146.5" cy="243.902" r="1.5" fill="#E3E3E3"/>
<circle cx="164.5" cy="243.902" r="1.5" fill="#E3E3E3"/>
<circle cx="182.5" cy="243.902" r="1.5" fill="#E3E3E3"/>
<circle cx="200.5" cy="243.902" r="1.5" fill="#E3E3E3"/>
<circle cx="218.5" cy="243.902" r="1.5" fill="#E3E3E3"/>
<circle cx="236.5" cy="243.902" r="1.5" fill="#E3E3E3"/>
<circle cx="254.5" cy="243.902" r="1.5" fill="#E3E3E3"/>
<circle cx="272.5" cy="243.902" r="1.5" fill="#E3E3E3"/>
<circle cx="290.5" cy="243.902" r="1.5" fill="#E3E3E3"/>
<circle cx="308.5" cy="243.902" r="1.5" fill="#E3E3E3"/>
<circle cx="326.5" cy="243.902" r="1.5" fill="#E3E3E3"/>
<circle cx="344.5" cy="243.902" r="1.5" fill="#E3E3E3"/>
<circle cx="362.5" cy="243.902" r="1.5" fill="#E3E3E3"/>
<circle cx="380.5" cy="243.902" r="1.5" fill="#E3E3E3"/>
<circle cx="398.5" cy="243.902" r="1.5" fill="#E3E3E3"/>
<circle cx="416.5" cy="243.902" r="1.5" fill="#E3E3E3"/>
<circle cx="434.5" cy="243.902" r="1.5" fill="#E3E3E3"/>
<circle cx="452.5" cy="243.902" r="1.5" fill="#E3E3E3"/>
<circle cx="110.5" cy="261.902" r="1.5" fill="#E3E3E3"/>
<circle cx="128.5" cy="261.902" r="1.5" fill="#E3E3E3"/>
<circle cx="146.5" cy="261.902" r="1.5" fill="#E3E3E3"/>
<circle cx="164.5" cy="261.902" r="1.5" fill="#E3E3E3"/>
<circle cx="182.5" cy="261.902" r="1.5" fill="#E3E3E3"/>
<circle cx="200.5" cy="261.902" r="1.5" fill="#E3E3E3"/>
<circle cx="218.5" cy="261.902" r="1.5" fill="#E3E3E3"/>
<circle cx="236.5" cy="261.902" r="1.5" fill="#E3E3E3"/>
<circle cx="254.5" cy="261.902" r="1.5" fill="#E3E3E3"/>
<circle cx="272.5" cy="261.902" r="1.5" fill="#E3E3E3"/>
<circle cx="290.5" cy="261.902" r="1.5" fill="#E3E3E3"/>
<circle cx="308.5" cy="261.902" r="1.5" fill="#E3E3E3"/>
<circle cx="326.5" cy="261.902" r="1.5" fill="#E3E3E3"/>
<circle cx="344.5" cy="261.902" r="1.5" fill="#E3E3E3"/>
<circle cx="362.5" cy="261.902" r="1.5" fill="#E3E3E3"/>
<circle cx="380.5" cy="261.902" r="1.5" fill="#E3E3E3"/>
<circle cx="398.5" cy="261.902" r="1.5" fill="#E3E3E3"/>
<circle cx="416.5" cy="261.902" r="1.5" fill="#E3E3E3"/>
<circle cx="434.5" cy="261.902" r="1.5" fill="#E3E3E3"/>
<circle cx="452.5" cy="261.902" r="1.5" fill="#E3E3E3"/>
<circle cx="110.5" cy="279.902" r="1.5" fill="#E3E3E3"/>
<circle cx="128.5" cy="279.902" r="1.5" fill="#E3E3E3"/>
<circle cx="146.5" cy="279.902" r="1.5" fill="#E3E3E3"/>
<circle cx="164.5" cy="279.902" r="1.5" fill="#E3E3E3"/>
<circle cx="182.5" cy="279.902" r="1.5" fill="#E3E3E3"/>
<circle cx="200.5" cy="279.902" r="1.5" fill="#E3E3E3"/>
<circle cx="218.5" cy="279.902" r="1.5" fill="#E3E3E3"/>
<circle cx="236.5" cy="279.902" r="1.5" fill="#E3E3E3"/>
<circle cx="254.5" cy="279.902" r="1.5" fill="#E3E3E3"/>
<circle cx="272.5" cy="279.902" r="1.5" fill="#E3E3E3"/>
<circle cx="290.5" cy="279.902" r="1.5" fill="#E3E3E3"/>
<circle cx="308.5" cy="279.902" r="1.5" fill="#E3E3E3"/>
<circle cx="326.5" cy="279.902" r="1.5" fill="#E3E3E3"/>
<circle cx="344.5" cy="279.902" r="1.5" fill="#E3E3E3"/>
<circle cx="362.5" cy="279.902" r="1.5" fill="#E3E3E3"/>
<circle cx="380.5" cy="279.902" r="1.5" fill="#E3E3E3"/>
<circle cx="398.5" cy="279.902" r="1.5" fill="#E3E3E3"/>
<circle cx="416.5" cy="279.902" r="1.5" fill="#E3E3E3"/>
<circle cx="434.5" cy="279.902" r="1.5" fill="#E3E3E3"/>
<circle cx="452.5" cy="279.902" r="1.5" fill="#E3E3E3"/>
<circle cx="110.5" cy="297.902" r="1.5" fill="#E3E3E3"/>
<circle cx="128.5" cy="297.902" r="1.5" fill="#E3E3E3"/>
<circle cx="146.5" cy="297.902" r="1.5" fill="#E3E3E3"/>
<circle cx="164.5" cy="297.902" r="1.5" fill="#E3E3E3"/>
<circle cx="182.5" cy="297.902" r="1.5" fill="#E3E3E3"/>
<circle cx="200.5" cy="297.902" r="1.5" fill="#E3E3E3"/>
<circle cx="218.5" cy="297.902" r="1.5" fill="#E3E3E3"/>
<circle cx="236.5" cy="297.902" r="1.5" fill="#E3E3E3"/>
<circle cx="254.5" cy="297.902" r="1.5" fill="#E3E3E3"/>
<circle cx="272.5" cy="297.902" r="1.5" fill="#E3E3E3"/>
<circle cx="290.5" cy="297.902" r="1.5" fill="#E3E3E3"/>
<circle cx="308.5" cy="297.902" r="1.5" fill="#E3E3E3"/>
<circle cx="326.5" cy="297.902" r="1.5" fill="#E3E3E3"/>
<circle cx="344.5" cy="297.902" r="1.5" fill="#E3E3E3"/>
<circle cx="362.5" cy="297.902" r="1.5" fill="#E3E3E3"/>
<circle cx="380.5" cy="297.902" r="1.5" fill="#E3E3E3"/>
<circle cx="398.5" cy="297.902" r="1.5" fill="#E3E3E3"/>
<circle cx="416.5" cy="297.902" r="1.5" fill="#E3E3E3"/>
<circle cx="434.5" cy="297.902" r="1.5" fill="#E3E3E3"/>
<circle cx="452.5" cy="297.902" r="1.5" fill="#E3E3E3"/>
<circle cx="110.5" cy="315.902" r="1.5" fill="#E3E3E3"/>
<circle cx="128.5" cy="315.902" r="1.5" fill="#E3E3E3"/>
<circle cx="146.5" cy="315.902" r="1.5" fill="#E3E3E3"/>
<circle cx="164.5" cy="315.902" r="1.5" fill="#E3E3E3"/>
<circle cx="182.5" cy="315.902" r="1.5" fill="#E3E3E3"/>
<circle cx="200.5" cy="315.902" r="1.5" fill="#E3E3E3"/>
<circle cx="218.5" cy="315.902" r="1.5" fill="#E3E3E3"/>
<circle cx="236.5" cy="315.902" r="1.5" fill="#E3E3E3"/>
<circle cx="254.5" cy="315.902" r="1.5" fill="#E3E3E3"/>
<circle cx="272.5" cy="315.902" r="1.5" fill="#E3E3E3"/>
<circle cx="290.5" cy="315.902" r="1.5" fill="#E3E3E3"/>
<circle cx="308.5" cy="315.902" r="1.5" fill="#E3E3E3"/>
<circle cx="326.5" cy="315.902" r="1.5" fill="#E3E3E3"/>
<circle cx="344.5" cy="315.902" r="1.5" fill="#E3E3E3"/>
<circle cx="362.5" cy="315.902" r="1.5" fill="#E3E3E3"/>
<circle cx="380.5" cy="315.902" r="1.5" fill="#E3E3E3"/>
<circle cx="398.5" cy="315.902" r="1.5" fill="#E3E3E3"/>
<circle cx="416.5" cy="315.902" r="1.5" fill="#E3E3E3"/>
<circle cx="434.5" cy="315.902" r="1.5" fill="#E3E3E3"/>
<circle cx="452.5" cy="315.902" r="1.5" fill="#E3E3E3"/>
<circle cx="110.5" cy="333.902" r="1.5" fill="#E3E3E3"/>
<circle cx="128.5" cy="333.902" r="1.5" fill="#E3E3E3"/>
<circle cx="146.5" cy="333.902" r="1.5" fill="#E3E3E3"/>
<circle cx="164.5" cy="333.902" r="1.5" fill="#E3E3E3"/>
<circle cx="182.5" cy="333.902" r="1.5" fill="#E3E3E3"/>
<circle cx="200.5" cy="333.902" r="1.5" fill="#E3E3E3"/>
<circle cx="218.5" cy="333.902" r="1.5" fill="#E3E3E3"/>
<circle cx="236.5" cy="333.902" r="1.5" fill="#E3E3E3"/>
<circle cx="254.5" cy="333.902" r="1.5" fill="#E3E3E3"/>
<circle cx="272.5" cy="333.902" r="1.5" fill="#E3E3E3"/>
<circle cx="290.5" cy="333.902" r="1.5" fill="#E3E3E3"/>
<circle cx="308.5" cy="333.902" r="1.5" fill="#E3E3E3"/>
<circle cx="326.5" cy="333.902" r="1.5" fill="#E3E3E3"/>
<circle cx="344.5" cy="333.902" r="1.5" fill="#E3E3E3"/>
<circle cx="362.5" cy="333.902" r="1.5" fill="#E3E3E3"/>
<circle cx="380.5" cy="333.902" r="1.5" fill="#E3E3E3"/>
<circle cx="398.5" cy="333.902" r="1.5" fill="#E3E3E3"/>
<circle cx="416.5" cy="333.902" r="1.5" fill="#E3E3E3"/>
<circle cx="434.5" cy="333.902" r="1.5" fill="#E3E3E3"/>
<circle cx="452.5" cy="333.902" r="1.5" fill="#E3E3E3"/>
<circle cx="110.5" cy="351.902" r="1.5" fill="#E3E3E3"/>
<circle cx="128.5" cy="351.902" r="1.5" fill="#E3E3E3"/>
<circle cx="146.5" cy="351.902" r="1.5" fill="#E3E3E3"/>
<circle cx="164.5" cy="351.902" r="1.5" fill="#E3E3E3"/>
<circle cx="182.5" cy="351.902" r="1.5" fill="#E3E3E3"/>
<circle cx="200.5" cy="351.902" r="1.5" fill="#E3E3E3"/>
<circle cx="218.5" cy="351.902" r="1.5" fill="#E3E3E3"/>
<circle cx="236.5" cy="351.902" r="1.5" fill="#E3E3E3"/>
<circle cx="254.5" cy="351.902" r="1.5" fill="#E3E3E3"/>
<circle cx="272.5" cy="351.902" r="1.5" fill="#E3E3E3"/>
<circle cx="290.5" cy="351.902" r="1.5" fill="#E3E3E3"/>
<circle cx="308.5" cy="351.902" r="1.5" fill="#E3E3E3"/>
<circle cx="326.5" cy="351.902" r="1.5" fill="#E3E3E3"/>
<circle cx="344.5" cy="351.902" r="1.5" fill="#E3E3E3"/>
<circle cx="362.5" cy="351.902" r="1.5" fill="#E3E3E3"/>
<circle cx="380.5" cy="351.902" r="1.5" fill="#E3E3E3"/>
<circle cx="398.5" cy="351.902" r="1.5" fill="#E3E3E3"/>
<circle cx="416.5" cy="351.902" r="1.5" fill="#E3E3E3"/>
<circle cx="434.5" cy="351.902" r="1.5" fill="#E3E3E3"/>
<circle cx="452.5" cy="351.902" r="1.5" fill="#E3E3E3"/>
<rect x="15" y="7.40247" width="453" height="348" fill="url(#paint0_radial)"/>
<path d="M3.43037 299.32C-11.6742 296.609 -24.6847 283.351 -35.2744 268.541C-45.8466 253.756 -53.9739 237.401 -52.1171 222.079C-50.2603 206.757 -38.4063 192.385 -24.1707 183.693C-9.91745 175.024 6.70639 171.969 22.6948 174.217C38.7009 176.49 54.0298 184.06 64.9116 196.588C75.7934 209.115 82.2039 226.617 79.4633 242.401C76.7161 258.227 64.7761 272.33 50.2484 283.305C35.679 294.274 18.5285 302.073 3.43037 299.32Z" fill="#FE840E"/>
<path d="M41.52 125.322C34.08 125.322 27.48 123.602 21.72 120.162C16.04 116.642 11.56 111.602 8.28 105.042C5.08 98.4025 3.48 90.5225 3.48 81.4025C3.48 72.2825 5.08 64.4425 8.28 57.8825C11.56 51.2425 16.04 46.2025 21.72 42.7625C27.48 39.2425 34.08 37.4825 41.52 37.4825C48.96 37.4825 55.52 39.2425 61.2 42.7625C66.96 46.2025 71.44 51.2425 74.64 57.8825C77.92 64.4425 79.56 72.2825 79.56 81.4025C79.56 90.5225 77.92 98.4025 74.64 105.042C71.44 111.602 66.96 116.642 61.2 120.162C55.52 123.602 48.96 125.322 41.52 125.322ZM41.52 102.642C47.92 102.642 51.12 95.5625 51.12 81.4025C51.12 67.2425 47.92 60.1625 41.52 60.1625C35.12 60.1625 31.92 67.2425 31.92 81.4025C31.92 95.5625 35.12 102.642 41.52 102.642ZM150.194 101.442V123.402L82.8741 123.402V106.002L113.234 77.9225C115.874 75.4425 117.634 73.3225 118.514 71.5625C119.394 69.8025 119.834 68.0825 119.834 66.4025C119.834 64.3225 119.114 62.7225 117.674 61.6025C116.314 60.4025 114.314 59.8025 111.674 59.8025C109.114 59.8025 106.714 60.4825 104.474 61.8425C102.234 63.2025 100.514 65.1225 99.3141 67.6025L77.9541 56.9225C81.1541 50.9225 85.8341 46.2025 91.9941 42.7625C98.1541 39.2425 105.594 37.4825 114.314 37.4825C120.954 37.4825 126.834 38.5625 131.954 40.7225C137.074 42.8825 141.074 45.9625 143.954 49.9625C146.834 53.9625 148.274 58.5625 148.274 63.7625C148.274 68.4025 147.274 72.7625 145.274 76.8425C143.354 80.8425 139.554 85.4025 133.874 90.5225L121.874 101.442L150.194 101.442Z" fill="#E3E3E3"/>
</g>
</g>
<path d="M345.001 122.335C352.972 122.335 359.433 115.874 359.433 107.904C359.433 99.9331 352.972 93.4718 345.001 93.4718C337.031 93.4718 330.569 99.9331 330.569 107.904C330.569 115.874 337.031 122.335 345.001 122.335Z" stroke="#C81F56" stroke-width="3" stroke-miterlimit="10" stroke-linecap="round" stroke-linejoin="round"/>
<path d="M344.998 136.765C360.939 136.765 373.862 123.842 373.862 107.901C373.862 91.9604 360.939 79.0377 344.998 79.0377C329.057 79.0377 316.135 91.9604 316.135 107.901C316.135 123.842 329.057 136.765 344.998 136.765Z" stroke="#F06C46" stroke-width="3" stroke-miterlimit="10" stroke-linecap="round" stroke-linejoin="round"/>
<path d="M345 151.198C368.911 151.198 388.295 131.814 388.295 107.903C388.295 83.9911 368.911 64.6071 345 64.6071C321.088 64.6071 301.704 83.9911 301.704 107.903C301.704 131.814 321.088 151.198 345 151.198Z" stroke="#FE840E" stroke-width="3" stroke-miterlimit="10" stroke-linecap="round" stroke-linejoin="round"/>
<path d="M345.001 165.63C376.883 165.63 402.728 139.785 402.728 107.903C402.728 76.0212 376.883 50.1758 345.001 50.1758C313.119 50.1758 287.273 76.0212 287.273 107.903C287.273 139.785 313.119 165.63 345.001 165.63Z" stroke="#FEB447" stroke-width="3" stroke-miterlimit="10" stroke-linecap="round" stroke-linejoin="round"/>
<path d="M345 55.9479V44.4025" stroke="#FEB447" stroke-width="3" stroke-miterlimit="10" stroke-linecap="round" stroke-linejoin="round"/>
<path d="M345 171.403V159.857" stroke="#FEB447" stroke-width="3" stroke-miterlimit="10" stroke-linecap="round" stroke-linejoin="round"/>
<path d="M396.954 107.902H408.5" stroke="#FEB447" stroke-width="3" stroke-miterlimit="10" stroke-linecap="round" stroke-linejoin="round"/>
<path d="M281.5 107.902H293.045" stroke="#FEB447" stroke-width="3" stroke-miterlimit="10" stroke-linecap="round" stroke-linejoin="round"/>
<line x1="344.568" y1="107.941" x2="394.755" y2="57.7543" stroke="#C81F56" stroke-width="3" stroke-linecap="round" stroke-linejoin="round"/>
<path d="M383.073 54.1221L392.518 44.6776V60.6606L383.073 70.1051V54.1221Z" stroke="#C81F56" stroke-width="3" stroke-linejoin="round"/>
<path d="M392.518 60.6603L383.073 70.1048L399.056 70.1048L408.501 60.6603L392.518 60.6603Z" stroke="#C81F56" stroke-width="3" stroke-linejoin="round"/>
<defs>
<filter id="filter0_d" x="0" y="0.402466" width="483" height="378" filterUnits="userSpaceOnUse" color-interpolation-filters="sRGB">
<feFlood flood-opacity="0" result="BackgroundImageFix"/>
<feColorMatrix in="SourceAlpha" type="matrix" values="0 0 0 0 0 0 0 0 0 0 0 0 0 0 0 0 0 0 127 0"/>
<feOffset dy="8"/>
<feGaussianBlur stdDeviation="7.5"/>
<feColorMatrix type="matrix" values="0 0 0 0 0 0 0 0 0 0 0 0 0 0 0 0 0 0 0.1 0"/>
<feBlend mode="normal" in2="BackgroundImageFix" result="effect1_dropShadow"/>
<feBlend mode="normal" in="SourceGraphic" in2="effect1_dropShadow" result="shape"/>
</filter>
<radialGradient id="paint0_radial" cx="0" cy="0" r="1" gradientUnits="userSpaceOnUse" gradientTransform="translate(332.5 169.402) rotate(180) scale(218 283.776)">
<stop stop-color="white" stop-opacity="0"/>
<stop offset="1" stop-color="white"/>
</radialGradient>
</defs>
</svg>
