<svg width="483" height="379" viewBox="0 0 483 379" fill="none" xmlns="http://www.w3.org/2000/svg">
<g filter="url(#filter0_d)">
<mask id="mask0" mask-type="alpha" maskUnits="userSpaceOnUse" x="15" y="7" width="453" height="349">
<rect x="15" y="7.40247" width="453" height="348" rx="20" fill="#FE840E"/>
</mask>
<g mask="url(#mask0)">
<rect x="15" y="7.40247" width="453" height="348" fill="white"/>
<circle cx="110.5" cy="9.90247" r="1.5" fill="#E3E3E3"/>
<circle cx="128.5" cy="9.90247" r="1.5" fill="#E3E3E3"/>
<circle cx="146.5" cy="9.90247" r="1.5" fill="#E3E3E3"/>
<circle cx="164.5" cy="9.90247" r="1.5" fill="#E3E3E3"/>
<circle cx="182.5" cy="9.90247" r="1.5" fill="#E3E3E3"/>
<circle cx="200.5" cy="9.90247" r="1.5" fill="#E3E3E3"/>
<circle cx="218.5" cy="9.90247" r="1.5" fill="#E3E3E3"/>
<circle cx="236.5" cy="9.90247" r="1.5" fill="#E3E3E3"/>
<circle cx="254.5" cy="9.90247" r="1.5" fill="#E3E3E3"/>
<circle cx="272.5" cy="9.90247" r="1.5" fill="#E3E3E3"/>
<circle cx="290.5" cy="9.90247" r="1.5" fill="#E3E3E3"/>
<circle cx="308.5" cy="9.90247" r="1.5" fill="#E3E3E3"/>
<circle cx="326.5" cy="9.90247" r="1.5" fill="#E3E3E3"/>
<circle cx="344.5" cy="9.90247" r="1.5" fill="#E3E3E3"/>
<circle cx="362.5" cy="9.90247" r="1.5" fill="#E3E3E3"/>
<circle cx="380.5" cy="9.90247" r="1.5" fill="#E3E3E3"/>
<circle cx="398.5" cy="9.90247" r="1.5" fill="#E3E3E3"/>
<circle cx="416.5" cy="9.90247" r="1.5" fill="#E3E3E3"/>
<circle cx="434.5" cy="9.90247" r="1.5" fill="#E3E3E3"/>
<circle cx="452.5" cy="9.90247" r="1.5" fill="#E3E3E3"/>
<circle cx="110.5" cy="27.9025" r="1.5" fill="#E3E3E3"/>
<circle cx="128.5" cy="27.9025" r="1.5" fill="#E3E3E3"/>
<circle cx="146.5" cy="27.9025" r="1.5" fill="#E3E3E3"/>
<circle cx="164.5" cy="27.9025" r="1.5" fill="#E3E3E3"/>
<circle cx="182.5" cy="27.9025" r="1.5" fill="#E3E3E3"/>
<circle cx="200.5" cy="27.9025" r="1.5" fill="#E3E3E3"/>
<circle cx="218.5" cy="27.9025" r="1.5" fill="#E3E3E3"/>
<circle cx="236.5" cy="27.9025" r="1.5" fill="#E3E3E3"/>
<circle cx="254.5" cy="27.9025" r="1.5" fill="#E3E3E3"/>
<circle cx="272.5" cy="27.9025" r="1.5" fill="#E3E3E3"/>
<circle cx="290.5" cy="27.9025" r="1.5" fill="#E3E3E3"/>
<circle cx="308.5" cy="27.9025" r="1.5" fill="#E3E3E3"/>
<circle cx="326.5" cy="27.9025" r="1.5" fill="#E3E3E3"/>
<circle cx="344.5" cy="27.9025" r="1.5" fill="#E3E3E3"/>
<circle cx="362.5" cy="27.9025" r="1.5" fill="#E3E3E3"/>
<circle cx="380.5" cy="27.9025" r="1.5" fill="#E3E3E3"/>
<circle cx="398.5" cy="27.9025" r="1.5" fill="#E3E3E3"/>
<circle cx="416.5" cy="27.9025" r="1.5" fill="#E3E3E3"/>
<circle cx="434.5" cy="27.9025" r="1.5" fill="#E3E3E3"/>
<circle cx="452.5" cy="27.9025" r="1.5" fill="#E3E3E3"/>
<circle cx="110.5" cy="45.9025" r="1.5" fill="#E3E3E3"/>
<circle cx="128.5" cy="45.9025" r="1.5" fill="#E3E3E3"/>
<circle cx="146.5" cy="45.9025" r="1.5" fill="#E3E3E3"/>
<circle cx="164.5" cy="45.9025" r="1.5" fill="#E3E3E3"/>
<circle cx="182.5" cy="45.9025" r="1.5" fill="#E3E3E3"/>
<circle cx="200.5" cy="45.9025" r="1.5" fill="#E3E3E3"/>
<circle cx="218.5" cy="45.9025" r="1.5" fill="#E3E3E3"/>
<circle cx="236.5" cy="45.9025" r="1.5" fill="#E3E3E3"/>
<circle cx="254.5" cy="45.9025" r="1.5" fill="#E3E3E3"/>
<circle cx="272.5" cy="45.9025" r="1.5" fill="#E3E3E3"/>
<circle cx="290.5" cy="45.9025" r="1.5" fill="#E3E3E3"/>
<circle cx="308.5" cy="45.9025" r="1.5" fill="#E3E3E3"/>
<circle cx="326.5" cy="45.9025" r="1.5" fill="#E3E3E3"/>
<circle cx="344.5" cy="45.9025" r="1.5" fill="#E3E3E3"/>
<circle cx="362.5" cy="45.9025" r="1.5" fill="#E3E3E3"/>
<circle cx="380.5" cy="45.9025" r="1.5" fill="#E3E3E3"/>
<circle cx="398.5" cy="45.9025" r="1.5" fill="#E3E3E3"/>
<circle cx="416.5" cy="45.9025" r="1.5" fill="#E3E3E3"/>
<circle cx="434.5" cy="45.9025" r="1.5" fill="#E3E3E3"/>
<circle cx="452.5" cy="45.9025" r="1.5" fill="#E3E3E3"/>
<circle cx="110.5" cy="63.9025" r="1.5" fill="#E3E3E3"/>
<circle cx="128.5" cy="63.9025" r="1.5" fill="#E3E3E3"/>
<circle cx="146.5" cy="63.9025" r="1.5" fill="#E3E3E3"/>
<circle cx="164.5" cy="63.9025" r="1.5" fill="#E3E3E3"/>
<circle cx="182.5" cy="63.9025" r="1.5" fill="#E3E3E3"/>
<circle cx="200.5" cy="63.9025" r="1.5" fill="#E3E3E3"/>
<circle cx="218.5" cy="63.9025" r="1.5" fill="#E3E3E3"/>
<circle cx="236.5" cy="63.9025" r="1.5" fill="#E3E3E3"/>
<circle cx="254.5" cy="63.9025" r="1.5" fill="#E3E3E3"/>
<circle cx="272.5" cy="63.9025" r="1.5" fill="#E3E3E3"/>
<circle cx="290.5" cy="63.9025" r="1.5" fill="#E3E3E3"/>
<circle cx="308.5" cy="63.9025" r="1.5" fill="#E3E3E3"/>
<circle cx="326.5" cy="63.9025" r="1.5" fill="#E3E3E3"/>
<circle cx="344.5" cy="63.9025" r="1.5" fill="#E3E3E3"/>
<circle cx="362.5" cy="63.9025" r="1.5" fill="#E3E3E3"/>
<circle cx="380.5" cy="63.9025" r="1.5" fill="#E3E3E3"/>
<circle cx="398.5" cy="63.9025" r="1.5" fill="#E3E3E3"/>
<circle cx="416.5" cy="63.9025" r="1.5" fill="#E3E3E3"/>
<circle cx="434.5" cy="63.9025" r="1.5" fill="#E3E3E3"/>
<circle cx="452.5" cy="63.9025" r="1.5" fill="#E3E3E3"/>
<circle cx="110.5" cy="81.9025" r="1.5" fill="#E3E3E3"/>
<circle cx="128.5" cy="81.9025" r="1.5" fill="#E3E3E3"/>
<circle cx="146.5" cy="81.9025" r="1.5" fill="#E3E3E3"/>
<circle cx="164.5" cy="81.9025" r="1.5" fill="#E3E3E3"/>
<circle cx="182.5" cy="81.9025" r="1.5" fill="#E3E3E3"/>
<circle cx="200.5" cy="81.9025" r="1.5" fill="#E3E3E3"/>
<circle cx="218.5" cy="81.9025" r="1.5" fill="#E3E3E3"/>
<circle cx="236.5" cy="81.9025" r="1.5" fill="#E3E3E3"/>
<circle cx="254.5" cy="81.9025" r="1.5" fill="#E3E3E3"/>
<circle cx="272.5" cy="81.9025" r="1.5" fill="#E3E3E3"/>
<circle cx="290.5" cy="81.9025" r="1.5" fill="#E3E3E3"/>
<circle cx="308.5" cy="81.9025" r="1.5" fill="#E3E3E3"/>
<circle cx="326.5" cy="81.9025" r="1.5" fill="#E3E3E3"/>
<circle cx="344.5" cy="81.9025" r="1.5" fill="#E3E3E3"/>
<circle cx="362.5" cy="81.9025" r="1.5" fill="#E3E3E3"/>
<circle cx="380.5" cy="81.9025" r="1.5" fill="#E3E3E3"/>
<circle cx="398.5" cy="81.9025" r="1.5" fill="#E3E3E3"/>
<circle cx="416.5" cy="81.9025" r="1.5" fill="#E3E3E3"/>
<circle cx="434.5" cy="81.9025" r="1.5" fill="#E3E3E3"/>
<circle cx="452.5" cy="81.9025" r="1.5" fill="#E3E3E3"/>
<circle cx="110.5" cy="99.9025" r="1.5" fill="#E3E3E3"/>
<circle cx="128.5" cy="99.9025" r="1.5" fill="#E3E3E3"/>
<circle cx="146.5" cy="99.9025" r="1.5" fill="#E3E3E3"/>
<circle cx="164.5" cy="99.9025" r="1.5" fill="#E3E3E3"/>
<circle cx="182.5" cy="99.9025" r="1.5" fill="#E3E3E3"/>
<circle cx="200.5" cy="99.9025" r="1.5" fill="#E3E3E3"/>
<circle cx="218.5" cy="99.9025" r="1.5" fill="#E3E3E3"/>
<circle cx="236.5" cy="99.9025" r="1.5" fill="#E3E3E3"/>
<circle cx="254.5" cy="99.9025" r="1.5" fill="#E3E3E3"/>
<circle cx="272.5" cy="99.9025" r="1.5" fill="#E3E3E3"/>
<circle cx="290.5" cy="99.9025" r="1.5" fill="#E3E3E3"/>
<circle cx="308.5" cy="99.9025" r="1.5" fill="#E3E3E3"/>
<circle cx="326.5" cy="99.9025" r="1.5" fill="#E3E3E3"/>
<circle cx="344.5" cy="99.9025" r="1.5" fill="#E3E3E3"/>
<circle cx="362.5" cy="99.9025" r="1.5" fill="#E3E3E3"/>
<circle cx="380.5" cy="99.9025" r="1.5" fill="#E3E3E3"/>
<circle cx="398.5" cy="99.9025" r="1.5" fill="#E3E3E3"/>
<circle cx="416.5" cy="99.9025" r="1.5" fill="#E3E3E3"/>
<circle cx="434.5" cy="99.9025" r="1.5" fill="#E3E3E3"/>
<circle cx="452.5" cy="99.9025" r="1.5" fill="#E3E3E3"/>
<circle cx="110.5" cy="117.902" r="1.5" fill="#E3E3E3"/>
<circle cx="128.5" cy="117.902" r="1.5" fill="#E3E3E3"/>
<circle cx="146.5" cy="117.902" r="1.5" fill="#E3E3E3"/>
<circle cx="164.5" cy="117.902" r="1.5" fill="#E3E3E3"/>
<circle cx="182.5" cy="117.902" r="1.5" fill="#E3E3E3"/>
<circle cx="200.5" cy="117.902" r="1.5" fill="#E3E3E3"/>
<circle cx="218.5" cy="117.902" r="1.5" fill="#E3E3E3"/>
<circle cx="236.5" cy="117.902" r="1.5" fill="#E3E3E3"/>
<circle cx="254.5" cy="117.902" r="1.5" fill="#E3E3E3"/>
<circle cx="272.5" cy="117.902" r="1.5" fill="#E3E3E3"/>
<circle cx="290.5" cy="117.902" r="1.5" fill="#E3E3E3"/>
<circle cx="308.5" cy="117.902" r="1.5" fill="#E3E3E3"/>
<circle cx="326.5" cy="117.902" r="1.5" fill="#E3E3E3"/>
<circle cx="344.5" cy="117.902" r="1.5" fill="#E3E3E3"/>
<circle cx="362.5" cy="117.902" r="1.5" fill="#E3E3E3"/>
<circle cx="380.5" cy="117.902" r="1.5" fill="#E3E3E3"/>
<circle cx="398.5" cy="117.902" r="1.5" fill="#E3E3E3"/>
<circle cx="416.5" cy="117.902" r="1.5" fill="#E3E3E3"/>
<circle cx="434.5" cy="117.902" r="1.5" fill="#E3E3E3"/>
<circle cx="452.5" cy="117.902" r="1.5" fill="#E3E3E3"/>
<circle cx="110.5" cy="135.902" r="1.5" fill="#E3E3E3"/>
<circle cx="128.5" cy="135.902" r="1.5" fill="#E3E3E3"/>
<circle cx="146.5" cy="135.902" r="1.5" fill="#E3E3E3"/>
<circle cx="164.5" cy="135.902" r="1.5" fill="#E3E3E3"/>
<circle cx="182.5" cy="135.902" r="1.5" fill="#E3E3E3"/>
<circle cx="200.5" cy="135.902" r="1.5" fill="#E3E3E3"/>
<circle cx="218.5" cy="135.902" r="1.5" fill="#E3E3E3"/>
<circle cx="236.5" cy="135.902" r="1.5" fill="#E3E3E3"/>
<circle cx="254.5" cy="135.902" r="1.5" fill="#E3E3E3"/>
<circle cx="272.5" cy="135.902" r="1.5" fill="#E3E3E3"/>
<circle cx="290.5" cy="135.902" r="1.5" fill="#E3E3E3"/>
<circle cx="308.5" cy="135.902" r="1.5" fill="#E3E3E3"/>
<circle cx="326.5" cy="135.902" r="1.5" fill="#E3E3E3"/>
<circle cx="344.5" cy="135.902" r="1.5" fill="#E3E3E3"/>
<circle cx="362.5" cy="135.902" r="1.5" fill="#E3E3E3"/>
<circle cx="380.5" cy="135.902" r="1.5" fill="#E3E3E3"/>
<circle cx="398.5" cy="135.902" r="1.5" fill="#E3E3E3"/>
<circle cx="416.5" cy="135.902" r="1.5" fill="#E3E3E3"/>
<circle cx="434.5" cy="135.902" r="1.5" fill="#E3E3E3"/>
<circle cx="452.5" cy="135.902" r="1.5" fill="#E3E3E3"/>
<circle cx="110.5" cy="153.902" r="1.5" fill="#E3E3E3"/>
<circle cx="128.5" cy="153.902" r="1.5" fill="#E3E3E3"/>
<circle cx="146.5" cy="153.902" r="1.5" fill="#E3E3E3"/>
<circle cx="164.5" cy="153.902" r="1.5" fill="#E3E3E3"/>
<circle cx="182.5" cy="153.902" r="1.5" fill="#E3E3E3"/>
<circle cx="200.5" cy="153.902" r="1.5" fill="#E3E3E3"/>
<circle cx="218.5" cy="153.902" r="1.5" fill="#E3E3E3"/>
<circle cx="236.5" cy="153.902" r="1.5" fill="#E3E3E3"/>
<circle cx="254.5" cy="153.902" r="1.5" fill="#E3E3E3"/>
<circle cx="272.5" cy="153.902" r="1.5" fill="#E3E3E3"/>
<circle cx="290.5" cy="153.902" r="1.5" fill="#E3E3E3"/>
<circle cx="308.5" cy="153.902" r="1.5" fill="#E3E3E3"/>
<circle cx="326.5" cy="153.902" r="1.5" fill="#E3E3E3"/>
<circle cx="344.5" cy="153.902" r="1.5" fill="#E3E3E3"/>
<circle cx="362.5" cy="153.902" r="1.5" fill="#E3E3E3"/>
<circle cx="380.5" cy="153.902" r="1.5" fill="#E3E3E3"/>
<circle cx="398.5" cy="153.902" r="1.5" fill="#E3E3E3"/>
<circle cx="416.5" cy="153.902" r="1.5" fill="#E3E3E3"/>
<circle cx="434.5" cy="153.902" r="1.5" fill="#E3E3E3"/>
<circle cx="452.5" cy="153.902" r="1.5" fill="#E3E3E3"/>
<circle cx="110.5" cy="171.902" r="1.5" fill="#E3E3E3"/>
<circle cx="128.5" cy="171.902" r="1.5" fill="#E3E3E3"/>
<circle cx="146.5" cy="171.902" r="1.5" fill="#E3E3E3"/>
<circle cx="164.5" cy="171.902" r="1.5" fill="#E3E3E3"/>
<circle cx="182.5" cy="171.902" r="1.5" fill="#E3E3E3"/>
<circle cx="200.5" cy="171.902" r="1.5" fill="#E3E3E3"/>
<circle cx="218.5" cy="171.902" r="1.5" fill="#E3E3E3"/>
<circle cx="236.5" cy="171.902" r="1.5" fill="#E3E3E3"/>
<circle cx="254.5" cy="171.902" r="1.5" fill="#E3E3E3"/>
<circle cx="272.5" cy="171.902" r="1.5" fill="#E3E3E3"/>
<circle cx="290.5" cy="171.902" r="1.5" fill="#E3E3E3"/>
<circle cx="308.5" cy="171.902" r="1.5" fill="#E3E3E3"/>
<circle cx="326.5" cy="171.902" r="1.5" fill="#E3E3E3"/>
<circle cx="344.5" cy="171.902" r="1.5" fill="#E3E3E3"/>
<circle cx="362.5" cy="171.902" r="1.5" fill="#E3E3E3"/>
<circle cx="380.5" cy="171.902" r="1.5" fill="#E3E3E3"/>
<circle cx="398.5" cy="171.902" r="1.5" fill="#E3E3E3"/>
<circle cx="416.5" cy="171.902" r="1.5" fill="#E3E3E3"/>
<circle cx="434.5" cy="171.902" r="1.5" fill="#E3E3E3"/>
<circle cx="452.5" cy="171.902" r="1.5" fill="#E3E3E3"/>
<circle cx="110.5" cy="189.902" r="1.5" fill="#E3E3E3"/>
<circle cx="128.5" cy="189.902" r="1.5" fill="#E3E3E3"/>
<circle cx="146.5" cy="189.902" r="1.5" fill="#E3E3E3"/>
<circle cx="164.5" cy="189.902" r="1.5" fill="#E3E3E3"/>
<circle cx="182.5" cy="189.902" r="1.5" fill="#E3E3E3"/>
<circle cx="200.5" cy="189.902" r="1.5" fill="#E3E3E3"/>
<circle cx="218.5" cy="189.902" r="1.5" fill="#E3E3E3"/>
<circle cx="236.5" cy="189.902" r="1.5" fill="#E3E3E3"/>
<circle cx="254.5" cy="189.902" r="1.5" fill="#E3E3E3"/>
<circle cx="272.5" cy="189.902" r="1.5" fill="#E3E3E3"/>
<circle cx="290.5" cy="189.902" r="1.5" fill="#E3E3E3"/>
<circle cx="308.5" cy="189.902" r="1.5" fill="#E3E3E3"/>
<circle cx="326.5" cy="189.902" r="1.5" fill="#E3E3E3"/>
<circle cx="344.5" cy="189.902" r="1.5" fill="#E3E3E3"/>
<circle cx="362.5" cy="189.902" r="1.5" fill="#E3E3E3"/>
<circle cx="380.5" cy="189.902" r="1.5" fill="#E3E3E3"/>
<circle cx="398.5" cy="189.902" r="1.5" fill="#E3E3E3"/>
<circle cx="416.5" cy="189.902" r="1.5" fill="#E3E3E3"/>
<circle cx="434.5" cy="189.902" r="1.5" fill="#E3E3E3"/>
<circle cx="452.5" cy="189.902" r="1.5" fill="#E3E3E3"/>
<circle cx="110.5" cy="207.902" r="1.5" fill="#E3E3E3"/>
<circle cx="128.5" cy="207.902" r="1.5" fill="#E3E3E3"/>
<circle cx="146.5" cy="207.902" r="1.5" fill="#E3E3E3"/>
<circle cx="164.5" cy="207.902" r="1.5" fill="#E3E3E3"/>
<circle cx="182.5" cy="207.902" r="1.5" fill="#E3E3E3"/>
<circle cx="200.5" cy="207.902" r="1.5" fill="#E3E3E3"/>
<circle cx="218.5" cy="207.902" r="1.5" fill="#E3E3E3"/>
<circle cx="236.5" cy="207.902" r="1.5" fill="#E3E3E3"/>
<circle cx="254.5" cy="207.902" r="1.5" fill="#E3E3E3"/>
<circle cx="272.5" cy="207.902" r="1.5" fill="#E3E3E3"/>
<circle cx="290.5" cy="207.902" r="1.5" fill="#E3E3E3"/>
<circle cx="308.5" cy="207.902" r="1.5" fill="#E3E3E3"/>
<circle cx="326.5" cy="207.902" r="1.5" fill="#E3E3E3"/>
<circle cx="344.5" cy="207.902" r="1.5" fill="#E3E3E3"/>
<circle cx="362.5" cy="207.902" r="1.5" fill="#E3E3E3"/>
<circle cx="380.5" cy="207.902" r="1.5" fill="#E3E3E3"/>
<circle cx="398.5" cy="207.902" r="1.5" fill="#E3E3E3"/>
<circle cx="416.5" cy="207.902" r="1.5" fill="#E3E3E3"/>
<circle cx="434.5" cy="207.902" r="1.5" fill="#E3E3E3"/>
<circle cx="452.5" cy="207.902" r="1.5" fill="#E3E3E3"/>
<circle cx="110.5" cy="225.902" r="1.5" fill="#E3E3E3"/>
<circle cx="128.5" cy="225.902" r="1.5" fill="#E3E3E3"/>
<circle cx="146.5" cy="225.902" r="1.5" fill="#E3E3E3"/>
<circle cx="164.5" cy="225.902" r="1.5" fill="#E3E3E3"/>
<circle cx="182.5" cy="225.902" r="1.5" fill="#E3E3E3"/>
<circle cx="200.5" cy="225.902" r="1.5" fill="#E3E3E3"/>
<circle cx="218.5" cy="225.902" r="1.5" fill="#E3E3E3"/>
<circle cx="236.5" cy="225.902" r="1.5" fill="#E3E3E3"/>
<circle cx="254.5" cy="225.902" r="1.5" fill="#E3E3E3"/>
<circle cx="272.5" cy="225.902" r="1.5" fill="#E3E3E3"/>
<circle cx="290.5" cy="225.902" r="1.5" fill="#E3E3E3"/>
<circle cx="308.5" cy="225.902" r="1.5" fill="#E3E3E3"/>
<circle cx="326.5" cy="225.902" r="1.5" fill="#E3E3E3"/>
<circle cx="344.5" cy="225.902" r="1.5" fill="#E3E3E3"/>
<circle cx="362.5" cy="225.902" r="1.5" fill="#E3E3E3"/>
<circle cx="380.5" cy="225.902" r="1.5" fill="#E3E3E3"/>
<circle cx="398.5" cy="225.902" r="1.5" fill="#E3E3E3"/>
<circle cx="416.5" cy="225.902" r="1.5" fill="#E3E3E3"/>
<circle cx="434.5" cy="225.902" r="1.5" fill="#E3E3E3"/>
<circle cx="452.5" cy="225.902" r="1.5" fill="#E3E3E3"/>
<circle cx="110.5" cy="243.902" r="1.5" fill="#E3E3E3"/>
<circle cx="128.5" cy="243.902" r="1.5" fill="#E3E3E3"/>
<circle cx="146.5" cy="243.902" r="1.5" fill="#E3E3E3"/>
<circle cx="164.5" cy="243.902" r="1.5" fill="#E3E3E3"/>
<circle cx="182.5" cy="243.902" r="1.5" fill="#E3E3E3"/>
<circle cx="200.5" cy="243.902" r="1.5" fill="#E3E3E3"/>
<circle cx="218.5" cy="243.902" r="1.5" fill="#E3E3E3"/>
<circle cx="236.5" cy="243.902" r="1.5" fill="#E3E3E3"/>
<circle cx="254.5" cy="243.902" r="1.5" fill="#E3E3E3"/>
<circle cx="272.5" cy="243.902" r="1.5" fill="#E3E3E3"/>
<circle cx="290.5" cy="243.902" r="1.5" fill="#E3E3E3"/>
<circle cx="308.5" cy="243.902" r="1.5" fill="#E3E3E3"/>
<circle cx="326.5" cy="243.902" r="1.5" fill="#E3E3E3"/>
<circle cx="344.5" cy="243.902" r="1.5" fill="#E3E3E3"/>
<circle cx="362.5" cy="243.902" r="1.5" fill="#E3E3E3"/>
<circle cx="380.5" cy="243.902" r="1.5" fill="#E3E3E3"/>
<circle cx="398.5" cy="243.902" r="1.5" fill="#E3E3E3"/>
<circle cx="416.5" cy="243.902" r="1.5" fill="#E3E3E3"/>
<circle cx="434.5" cy="243.902" r="1.5" fill="#E3E3E3"/>
<circle cx="452.5" cy="243.902" r="1.5" fill="#E3E3E3"/>
<circle cx="110.5" cy="261.902" r="1.5" fill="#E3E3E3"/>
<circle cx="128.5" cy="261.902" r="1.5" fill="#E3E3E3"/>
<circle cx="146.5" cy="261.902" r="1.5" fill="#E3E3E3"/>
<circle cx="164.5" cy="261.902" r="1.5" fill="#E3E3E3"/>
<circle cx="182.5" cy="261.902" r="1.5" fill="#E3E3E3"/>
<circle cx="200.5" cy="261.902" r="1.5" fill="#E3E3E3"/>
<circle cx="218.5" cy="261.902" r="1.5" fill="#E3E3E3"/>
<circle cx="236.5" cy="261.902" r="1.5" fill="#E3E3E3"/>
<circle cx="254.5" cy="261.902" r="1.5" fill="#E3E3E3"/>
<circle cx="272.5" cy="261.902" r="1.5" fill="#E3E3E3"/>
<circle cx="290.5" cy="261.902" r="1.5" fill="#E3E3E3"/>
<circle cx="308.5" cy="261.902" r="1.5" fill="#E3E3E3"/>
<circle cx="326.5" cy="261.902" r="1.5" fill="#E3E3E3"/>
<circle cx="344.5" cy="261.902" r="1.5" fill="#E3E3E3"/>
<circle cx="362.5" cy="261.902" r="1.5" fill="#E3E3E3"/>
<circle cx="380.5" cy="261.902" r="1.5" fill="#E3E3E3"/>
<circle cx="398.5" cy="261.902" r="1.5" fill="#E3E3E3"/>
<circle cx="416.5" cy="261.902" r="1.5" fill="#E3E3E3"/>
<circle cx="434.5" cy="261.902" r="1.5" fill="#E3E3E3"/>
<circle cx="452.5" cy="261.902" r="1.5" fill="#E3E3E3"/>
<circle cx="110.5" cy="279.902" r="1.5" fill="#E3E3E3"/>
<circle cx="128.5" cy="279.902" r="1.5" fill="#E3E3E3"/>
<circle cx="146.5" cy="279.902" r="1.5" fill="#E3E3E3"/>
<circle cx="164.5" cy="279.902" r="1.5" fill="#E3E3E3"/>
<circle cx="182.5" cy="279.902" r="1.5" fill="#E3E3E3"/>
<circle cx="200.5" cy="279.902" r="1.5" fill="#E3E3E3"/>
<circle cx="218.5" cy="279.902" r="1.5" fill="#E3E3E3"/>
<circle cx="236.5" cy="279.902" r="1.5" fill="#E3E3E3"/>
<circle cx="254.5" cy="279.902" r="1.5" fill="#E3E3E3"/>
<circle cx="272.5" cy="279.902" r="1.5" fill="#E3E3E3"/>
<circle cx="290.5" cy="279.902" r="1.5" fill="#E3E3E3"/>
<circle cx="308.5" cy="279.902" r="1.5" fill="#E3E3E3"/>
<circle cx="326.5" cy="279.902" r="1.5" fill="#E3E3E3"/>
<circle cx="344.5" cy="279.902" r="1.5" fill="#E3E3E3"/>
<circle cx="362.5" cy="279.902" r="1.5" fill="#E3E3E3"/>
<circle cx="380.5" cy="279.902" r="1.5" fill="#E3E3E3"/>
<circle cx="398.5" cy="279.902" r="1.5" fill="#E3E3E3"/>
<circle cx="416.5" cy="279.902" r="1.5" fill="#E3E3E3"/>
<circle cx="434.5" cy="279.902" r="1.5" fill="#E3E3E3"/>
<circle cx="452.5" cy="279.902" r="1.5" fill="#E3E3E3"/>
<circle cx="110.5" cy="297.902" r="1.5" fill="#E3E3E3"/>
<circle cx="128.5" cy="297.902" r="1.5" fill="#E3E3E3"/>
<circle cx="146.5" cy="297.902" r="1.5" fill="#E3E3E3"/>
<circle cx="164.5" cy="297.902" r="1.5" fill="#E3E3E3"/>
<circle cx="182.5" cy="297.902" r="1.5" fill="#E3E3E3"/>
<circle cx="200.5" cy="297.902" r="1.5" fill="#E3E3E3"/>
<circle cx="218.5" cy="297.902" r="1.5" fill="#E3E3E3"/>
<circle cx="236.5" cy="297.902" r="1.5" fill="#E3E3E3"/>
<circle cx="254.5" cy="297.902" r="1.5" fill="#E3E3E3"/>
<circle cx="272.5" cy="297.902" r="1.5" fill="#E3E3E3"/>
<circle cx="290.5" cy="297.902" r="1.5" fill="#E3E3E3"/>
<circle cx="308.5" cy="297.902" r="1.5" fill="#E3E3E3"/>
<circle cx="326.5" cy="297.902" r="1.5" fill="#E3E3E3"/>
<circle cx="344.5" cy="297.902" r="1.5" fill="#E3E3E3"/>
<circle cx="362.5" cy="297.902" r="1.5" fill="#E3E3E3"/>
<circle cx="380.5" cy="297.902" r="1.5" fill="#E3E3E3"/>
<circle cx="398.5" cy="297.902" r="1.5" fill="#E3E3E3"/>
<circle cx="416.5" cy="297.902" r="1.5" fill="#E3E3E3"/>
<circle cx="434.5" cy="297.902" r="1.5" fill="#E3E3E3"/>
<circle cx="452.5" cy="297.902" r="1.5" fill="#E3E3E3"/>
<circle cx="110.5" cy="315.902" r="1.5" fill="#E3E3E3"/>
<circle cx="128.5" cy="315.902" r="1.5" fill="#E3E3E3"/>
<circle cx="146.5" cy="315.902" r="1.5" fill="#E3E3E3"/>
<circle cx="164.5" cy="315.902" r="1.5" fill="#E3E3E3"/>
<circle cx="182.5" cy="315.902" r="1.5" fill="#E3E3E3"/>
<circle cx="200.5" cy="315.902" r="1.5" fill="#E3E3E3"/>
<circle cx="218.5" cy="315.902" r="1.5" fill="#E3E3E3"/>
<circle cx="236.5" cy="315.902" r="1.5" fill="#E3E3E3"/>
<circle cx="254.5" cy="315.902" r="1.5" fill="#E3E3E3"/>
<circle cx="272.5" cy="315.902" r="1.5" fill="#E3E3E3"/>
<circle cx="290.5" cy="315.902" r="1.5" fill="#E3E3E3"/>
<circle cx="308.5" cy="315.902" r="1.5" fill="#E3E3E3"/>
<circle cx="326.5" cy="315.902" r="1.5" fill="#E3E3E3"/>
<circle cx="344.5" cy="315.902" r="1.5" fill="#E3E3E3"/>
<circle cx="362.5" cy="315.902" r="1.5" fill="#E3E3E3"/>
<circle cx="380.5" cy="315.902" r="1.5" fill="#E3E3E3"/>
<circle cx="398.5" cy="315.902" r="1.5" fill="#E3E3E3"/>
<circle cx="416.5" cy="315.902" r="1.5" fill="#E3E3E3"/>
<circle cx="434.5" cy="315.902" r="1.5" fill="#E3E3E3"/>
<circle cx="452.5" cy="315.902" r="1.5" fill="#E3E3E3"/>
<circle cx="110.5" cy="333.902" r="1.5" fill="#E3E3E3"/>
<circle cx="128.5" cy="333.902" r="1.5" fill="#E3E3E3"/>
<circle cx="146.5" cy="333.902" r="1.5" fill="#E3E3E3"/>
<circle cx="164.5" cy="333.902" r="1.5" fill="#E3E3E3"/>
<circle cx="182.5" cy="333.902" r="1.5" fill="#E3E3E3"/>
<circle cx="200.5" cy="333.902" r="1.5" fill="#E3E3E3"/>
<circle cx="218.5" cy="333.902" r="1.5" fill="#E3E3E3"/>
<circle cx="236.5" cy="333.902" r="1.5" fill="#E3E3E3"/>
<circle cx="254.5" cy="333.902" r="1.5" fill="#E3E3E3"/>
<circle cx="272.5" cy="333.902" r="1.5" fill="#E3E3E3"/>
<circle cx="290.5" cy="333.902" r="1.5" fill="#E3E3E3"/>
<circle cx="308.5" cy="333.902" r="1.5" fill="#E3E3E3"/>
<circle cx="326.5" cy="333.902" r="1.5" fill="#E3E3E3"/>
<circle cx="344.5" cy="333.902" r="1.5" fill="#E3E3E3"/>
<circle cx="362.5" cy="333.902" r="1.5" fill="#E3E3E3"/>
<circle cx="380.5" cy="333.902" r="1.5" fill="#E3E3E3"/>
<circle cx="398.5" cy="333.902" r="1.5" fill="#E3E3E3"/>
<circle cx="416.5" cy="333.902" r="1.5" fill="#E3E3E3"/>
<circle cx="434.5" cy="333.902" r="1.5" fill="#E3E3E3"/>
<circle cx="452.5" cy="333.902" r="1.5" fill="#E3E3E3"/>
<circle cx="110.5" cy="351.902" r="1.5" fill="#E3E3E3"/>
<circle cx="128.5" cy="351.902" r="1.5" fill="#E3E3E3"/>
<circle cx="146.5" cy="351.902" r="1.5" fill="#E3E3E3"/>
<circle cx="164.5" cy="351.902" r="1.5" fill="#E3E3E3"/>
<circle cx="182.5" cy="351.902" r="1.5" fill="#E3E3E3"/>
<circle cx="200.5" cy="351.902" r="1.5" fill="#E3E3E3"/>
<circle cx="218.5" cy="351.902" r="1.5" fill="#E3E3E3"/>
<circle cx="236.5" cy="351.902" r="1.5" fill="#E3E3E3"/>
<circle cx="254.5" cy="351.902" r="1.5" fill="#E3E3E3"/>
<circle cx="272.5" cy="351.902" r="1.5" fill="#E3E3E3"/>
<circle cx="290.5" cy="351.902" r="1.5" fill="#E3E3E3"/>
<circle cx="308.5" cy="351.902" r="1.5" fill="#E3E3E3"/>
<circle cx="326.5" cy="351.902" r="1.5" fill="#E3E3E3"/>
<circle cx="344.5" cy="351.902" r="1.5" fill="#E3E3E3"/>
<circle cx="362.5" cy="351.902" r="1.5" fill="#E3E3E3"/>
<circle cx="380.5" cy="351.902" r="1.5" fill="#E3E3E3"/>
<circle cx="398.5" cy="351.902" r="1.5" fill="#E3E3E3"/>
<circle cx="416.5" cy="351.902" r="1.5" fill="#E3E3E3"/>
<circle cx="434.5" cy="351.902" r="1.5" fill="#E3E3E3"/>
<circle cx="452.5" cy="351.902" r="1.5" fill="#E3E3E3"/>
<rect x="15" y="7.40247" width="453" height="348" fill="url(#paint0_radial)"/>
<path d="M3.43037 299.32C-11.6742 296.609 -24.6847 283.351 -35.2744 268.541C-45.8466 253.756 -53.9739 237.401 -52.1171 222.079C-50.2603 206.757 -38.4063 192.385 -24.1707 183.693C-9.91745 175.024 6.70639 171.969 22.6948 174.217C38.7009 176.49 54.0298 184.06 64.9116 196.588C75.7934 209.115 82.2039 226.617 79.4633 242.401C76.7161 258.227 64.7761 272.33 50.2484 283.305C35.679 294.274 18.5285 302.073 3.43037 299.32Z" fill="#FEB447"/>
<path d="M41.52 125.322C34.08 125.322 27.48 123.602 21.72 120.162C16.04 116.642 11.56 111.602 8.28 105.042C5.08 98.4025 3.48 90.5225 3.48 81.4025C3.48 72.2825 5.08 64.4425 8.28 57.8825C11.56 51.2425 16.04 46.2025 21.72 42.7625C27.48 39.2425 34.08 37.4825 41.52 37.4825C48.96 37.4825 55.52 39.2425 61.2 42.7625C66.96 46.2025 71.44 51.2425 74.64 57.8825C77.92 64.4425 79.56 72.2825 79.56 81.4025C79.56 90.5225 77.92 98.4025 74.64 105.042C71.44 111.602 66.96 116.642 61.2 120.162C55.52 123.602 48.96 125.322 41.52 125.322ZM41.52 102.642C47.92 102.642 51.12 95.5625 51.12 81.4025C51.12 67.2425 47.92 60.1625 41.52 60.1625C35.12 60.1625 31.92 67.2425 31.92 81.4025C31.92 95.5625 35.12 102.642 41.52 102.642ZM122.834 39.4025L122.834 123.402H94.5141V60.7625H80.1141L80.1141 39.4025L122.834 39.4025Z" fill="#E3E3E3"/>
</g>
</g>
<path opacity="0.2" d="M219.554 51.4619V147.343C219.554 150.413 217.065 152.902 213.995 152.902C210.925 152.902 208.436 150.413 208.436 147.343V51.4619C208.436 48.3915 210.925 45.9025 213.995 45.9025C217.065 45.9025 219.554 48.3915 219.554 51.4619Z" stroke="#9EA7B3" stroke-width="3"/>
<path opacity="0.2" d="M241.522 51.4619V147.343C241.522 150.413 239.033 152.902 235.963 152.902C232.892 152.902 230.403 150.413 230.403 147.343V51.4619C230.403 48.3915 232.892 45.9025 235.963 45.9025C239.033 45.9025 241.522 48.3915 241.522 51.4619Z" stroke="#9EA7B3" stroke-width="3"/>
<path opacity="0.2" d="M263.486 51.4619V147.343C263.486 150.413 260.997 152.902 257.927 152.902C254.856 152.902 252.367 150.413 252.367 147.343V51.4619C252.367 48.3915 254.856 45.9025 257.927 45.9025C260.997 45.9025 263.486 48.3915 263.486 51.4619Z" stroke="#9EA7B3" stroke-width="3"/>
<path opacity="0.2" d="M285.458 51.4619V147.343C285.458 150.413 282.969 152.902 279.898 152.902C276.828 152.902 274.339 150.413 274.339 147.343V51.4619C274.339 48.3915 276.828 45.9025 279.898 45.9025C282.969 45.9025 285.458 48.3915 285.458 51.4619Z" stroke="#9EA7B3" stroke-width="3"/>
<path opacity="0.2" d="M307.422 51.4619V147.343C307.422 150.413 304.933 152.902 301.862 152.902C298.792 152.902 296.303 150.413 296.303 147.343V51.4619C296.303 48.3915 298.792 45.9025 301.862 45.9025C304.933 45.9025 307.422 48.3915 307.422 51.4619Z" stroke="#9EA7B3" stroke-width="3"/>
<path opacity="0.2" d="M329.385 51.4619V147.343C329.385 150.413 326.896 152.902 323.826 152.902C320.756 152.902 318.267 150.413 318.267 147.343V51.4619C318.267 48.3915 320.756 45.9025 323.826 45.9025C326.896 45.9025 329.385 48.3915 329.385 51.4619Z" stroke="#9EA7B3" stroke-width="3"/>
<path opacity="0.2" d="M351.35 51.4619V147.343C351.35 150.413 348.861 152.902 345.791 152.902C342.72 152.902 340.231 150.413 340.231 147.343V51.4619C340.231 48.3915 342.72 45.9025 345.791 45.9025C348.861 45.9025 351.35 48.3915 351.35 51.4619Z" stroke="#9EA7B3" stroke-width="3"/>
<path opacity="0.2" d="M373.324 51.4619V147.343C373.324 150.413 370.835 152.902 367.764 152.902C364.694 152.902 362.205 150.413 362.205 147.343V51.4619C362.205 48.3915 364.694 45.9025 367.764 45.9025C370.835 45.9025 373.324 48.3915 373.324 51.4619Z" stroke="#9EA7B3" stroke-width="3"/>
<path opacity="0.2" d="M395.289 51.4619V147.343C395.289 150.413 392.8 152.902 389.729 152.902C386.659 152.902 384.17 150.413 384.17 147.343V51.4619C384.17 48.3915 386.659 45.9025 389.729 45.9025C392.8 45.9025 395.289 48.3915 395.289 51.4619Z" stroke="#9EA7B3" stroke-width="3"/>
<path opacity="0.2" d="M417.254 51.4619V147.343C417.254 150.413 414.765 152.902 411.694 152.902C408.624 152.902 406.135 150.413 406.135 147.343V51.4619C406.135 48.3915 408.624 45.9025 411.694 45.9025C414.765 45.9025 417.254 48.3915 417.254 51.4619Z" stroke="#9EA7B3" stroke-width="3"/>
<path d="M219.554 128.061V147.325C219.554 150.396 217.065 152.885 213.995 152.885C210.925 152.885 208.436 150.396 208.436 147.325V128.061C208.436 124.991 210.925 122.502 213.995 122.502C217.065 122.502 219.554 124.991 219.554 128.061Z" stroke="#C81F56" stroke-width="3"/>
<path d="M241.522 100.263V147.33C241.522 150.401 239.033 152.89 235.963 152.89C232.892 152.89 230.403 150.401 230.403 147.33V100.263C230.403 97.1923 232.892 94.7032 235.963 94.7032C239.033 94.7032 241.522 97.1923 241.522 100.263Z" stroke="#FE840E" stroke-width="3"/>
<path d="M263.486 63.6753V147.341C263.486 150.411 260.997 152.9 257.927 152.9C254.856 152.9 252.367 150.411 252.367 147.341V63.6753C252.367 60.6049 254.856 58.1158 257.927 58.1158C260.997 58.1158 263.486 60.6049 263.486 63.6753Z" stroke="#FEB447" stroke-width="3"/>
<path d="M285.457 128.061V147.325C285.457 150.396 282.968 152.885 279.897 152.885C276.827 152.885 274.338 150.396 274.338 147.325V128.061C274.338 124.991 276.827 122.502 279.897 122.502C282.968 122.502 285.457 124.991 285.457 128.061Z" stroke="#FE840E" stroke-width="3"/>
<path d="M307.422 108.36V147.341C307.422 150.412 304.933 152.901 301.862 152.901C298.792 152.901 296.303 150.412 296.303 147.341V108.36C296.303 105.289 298.792 102.8 301.862 102.8C304.933 102.8 307.422 105.289 307.422 108.36Z" stroke="#C81F56" stroke-width="3"/>
<path d="M329.386 63.6753V147.341C329.386 150.411 326.897 152.9 323.827 152.9C320.757 152.9 318.268 150.411 318.268 147.341V63.6753C318.268 60.6049 320.757 58.1158 323.827 58.1158C326.897 58.1158 329.386 60.6049 329.386 63.6753Z" stroke="#FE840E" stroke-width="3"/>
<path d="M351.35 131.109V147.331C351.35 150.401 348.861 152.89 345.791 152.89C342.72 152.89 340.231 150.401 340.231 147.331V131.109C340.231 128.038 342.72 125.549 345.791 125.549C348.861 125.549 351.35 128.038 351.35 131.109Z" stroke="#FEB447" stroke-width="3"/>
<path d="M373.324 81.7539V147.325C373.324 150.396 370.835 152.885 367.764 152.885C364.694 152.885 362.205 150.396 362.205 147.325V81.7539C362.205 78.6835 364.694 76.1945 367.764 76.1945C370.835 76.1945 373.324 78.6835 373.324 81.7539Z" stroke="#FE840E" stroke-width="3"/>
<path d="M395.289 108.36V147.341C395.289 150.412 392.8 152.901 389.729 152.901C386.659 152.901 384.17 150.412 384.17 147.341V108.36C384.17 105.289 386.659 102.8 389.729 102.8C392.8 102.8 395.289 105.289 395.289 108.36Z" stroke="#C81F56" stroke-width="3"/>
<path d="M417.254 128.061V147.325C417.254 150.396 414.765 152.885 411.694 152.885C408.624 152.885 406.135 150.396 406.135 147.325V128.061C406.135 124.991 408.624 122.502 411.694 122.502C414.765 122.502 417.254 124.991 417.254 128.061Z" stroke="#FE840E" stroke-width="3"/>
<defs>
<filter id="filter0_d" x="0" y="0.402466" width="483" height="378" filterUnits="userSpaceOnUse" color-interpolation-filters="sRGB">
<feFlood flood-opacity="0" result="BackgroundImageFix"/>
<feColorMatrix in="SourceAlpha" type="matrix" values="0 0 0 0 0 0 0 0 0 0 0 0 0 0 0 0 0 0 127 0"/>
<feOffset dy="8"/>
<feGaussianBlur stdDeviation="7.5"/>
<feColorMatrix type="matrix" values="0 0 0 0 0 0 0 0 0 0 0 0 0 0 0 0 0 0 0.1 0"/>
<feBlend mode="normal" in2="BackgroundImageFix" result="effect1_dropShadow"/>
<feBlend mode="normal" in="SourceGraphic" in2="effect1_dropShadow" result="shape"/>
</filter>
<radialGradient id="paint0_radial" cx="0" cy="0" r="1" gradientUnits="userSpaceOnUse" gradientTransform="translate(332.5 169.402) rotate(180) scale(218 283.776)">
<stop stop-color="white" stop-opacity="0"/>
<stop offset="1" stop-color="white"/>
</radialGradient>
</defs>
</svg>
