<svg width="1440" height="2409" viewBox="0 0 1440 2409" fill="none" xmlns="http://www.w3.org/2000/svg">
<path d="M1981 921.5C1981 1321.08 2932 2456 965.5 2404.5C-164 2374.92 -1056 1321.08 -1056 921.5C-1056 521.922 -376.144 198 462.5 198C1301.14 198 1981 521.922 1981 921.5Z" fill="#FE840E"/>
<path d="M1981 921.5C1981 1321.08 2932 2456 965.5 2404.5C-164 2374.92 -1056 1321.08 -1056 921.5C-1056 521.922 -376.144 198 462.5 198C1301.14 198 1981 521.922 1981 921.5Z" fill="url(#paint0_linear)"/>
<path opacity="0.5" d="M-6.6 1248H62.4C109.2 1248 141.4 1221.4 141.4 1178C141.4 1134.6 109.2 1108 62.4 1108H-6.6V1248ZM40.6 1211.2V1144.8H60.4C80.2 1144.8 93.8 1156.6 93.8 1178C93.8 1199.4 80.2 1211.2 60.4 1211.2H40.6ZM257.481 1248H306.281L245.081 1108H198.681L137.481 1248H185.481L194.881 1223.6H248.081L257.481 1248ZM207.881 1189.6L221.481 1154.4L235.081 1189.6H207.881ZM333.183 1248H380.383V1144.6H421.383V1108H292.183V1144.6H333.183V1248ZM527.411 1248H576.211L515.011 1108H468.611L407.411 1248H455.411L464.811 1223.6H518.011L527.411 1248ZM477.811 1189.6L491.411 1154.4L505.011 1189.6H477.811Z" fill="#FEB447"/>
<path d="M613.694 2027.2C657.094 2027.2 678.894 2005.6 678.894 1980C678.894 1928.4 601.494 1942.4 601.494 1925.6C601.494 1920.8 605.894 1916.8 619.694 1916.8C631.894 1916.8 644.894 1920.2 658.694 1927.2L672.894 1893C658.294 1884.8 638.894 1880.8 620.094 1880.8C576.694 1880.8 554.894 1902 554.894 1928C554.894 1980.2 632.294 1966 632.294 1983.6C632.294 1988.4 627.494 1991.2 614.094 1991.2C598.694 1991.2 581.094 1986.2 567.894 1978.4L552.694 2012.8C566.694 2021.4 590.294 2027.2 613.694 2027.2ZM761.339 2027.2C788.739 2027.2 810.339 2017.2 824.139 1999.2L794.339 1972.6C786.139 1983 776.339 1989 763.739 1989C744.139 1989 730.939 1975.4 730.939 1954C730.939 1932.6 744.139 1919 763.739 1919C776.339 1919 786.139 1925 794.339 1935.4L824.139 1908.8C810.339 1890.8 788.739 1880.8 761.339 1880.8C716.339 1880.8 683.339 1911 683.339 1954C683.339 1997 716.339 2027.2 761.339 2027.2ZM833.767 2024H880.967V1884H833.767V2024ZM946.089 1988.4V1970H1005.29V1936H946.089V1919.6H1013.49V1884H899.689V2024H1016.09V1988.4H946.089ZM1122.26 1884V1947.6L1069.06 1884H1030.26V2024H1076.26V1960.4L1129.46 2024H1168.26V1884H1122.26ZM1259.4 2027.2C1286.8 2027.2 1308.4 2017.2 1322.2 1999.2L1292.4 1972.6C1284.2 1983 1274.4 1989 1261.8 1989C1242.2 1989 1229 1975.4 1229 1954C1229 1932.6 1242.2 1919 1261.8 1919C1274.4 1919 1284.2 1925 1292.4 1935.4L1322.2 1908.8C1308.4 1890.8 1286.8 1880.8 1259.4 1880.8C1214.4 1880.8 1181.4 1911 1181.4 1954C1181.4 1997 1214.4 2027.2 1259.4 2027.2ZM1378.23 1988.4V1970H1437.43V1936H1378.23V1919.6H1445.63V1884H1331.83V2024H1448.23V1988.4H1378.23Z" fill="#F06C46"/>
<path d="M549.873 1996.47C596.754 2058.46 611.097 2131.71 591.442 2194.96C571.786 2258.33 518.132 2311.58 443.096 2353.09C367.927 2394.61 271.509 2424.39 195.277 2399.55C118.913 2374.71 62.7353 2295.48 63.0009 2225.32C63.1337 2155.29 119.71 2094.22 176.153 2030.4C232.463 1966.57 288.508 1899.87 356.107 1891.82C423.839 1883.89 503.125 1934.49 549.873 1996.47Z" fill="#FE840E"/>
<path d="M1737.79 1262.95C1793.5 1321.64 1807.5 1418.73 1806.4 1514.88C1805.3 1610.86 1788.93 1705.91 1733.39 1765.39C1677.84 1824.87 1582.79 1849.1 1495.3 1841.71C1407.81 1834.16 1327.72 1795.29 1266.82 1735.81C1205.92 1676.17 1164.38 1596.07 1157.14 1508.74C1149.9 1421.41 1177.13 1326.83 1237.87 1268.14C1298.76 1209.29 1393.34 1186.47 1489.17 1185.05C1585.15 1183.8 1682.24 1204.1 1737.79 1262.95Z" fill="#C81F56"/>
<path d="M20.3187 343.356C115.419 326.282 220.339 351.596 296.919 416.19C373.308 480.836 421.357 584.762 412.374 682.127C403.322 779.613 337.239 870.538 252.166 922.354C167.022 974.292 63.0283 986.877 -30.5367 959.547C-124.102 932.216 -207.168 864.848 -241.254 778.203C-275.341 691.557 -260.135 585.654 -210.038 502.807C-159.891 420.151 -74.6606 360.499 20.3187 343.356Z" fill="#F06C46"/>
<defs>
<linearGradient id="paint0_linear" x1="977" y1="3000" x2="738" y2="933.501" gradientUnits="userSpaceOnUse">
<stop stop-color="#C81F56"/>
<stop offset="1" stop-color="#C81F56" stop-opacity="0"/>
</linearGradient>
</defs>
</svg>
