<svg width="97" height="71" viewBox="0 0 97 71" fill="none" xmlns="http://www.w3.org/2000/svg">
<path d="M31.216 70.536C25.264 70.536 19.984 69.16 15.376 66.408C10.832 63.592 7.248 59.56 4.624 54.312C2.064 49 0.784 42.696 0.784 35.4C0.784 28.104 2.064 21.832 4.624 16.584C7.248 11.272 10.832 7.24 15.376 4.488C19.984 1.672 25.264 0.263998 31.216 0.263998C37.168 0.263998 42.416 1.672 46.96 4.488C51.568 7.24 55.152 11.272 57.712 16.584C60.336 21.832 61.648 28.104 61.648 35.4C61.648 42.696 60.336 49 57.712 54.312C55.152 59.56 51.568 63.592 46.96 66.408C42.416 69.16 37.168 70.536 31.216 70.536ZM31.216 52.392C36.336 52.392 38.896 46.728 38.896 35.4C38.896 24.072 36.336 18.408 31.216 18.408C26.096 18.408 23.536 24.072 23.536 35.4C23.536 46.728 26.096 52.392 31.216 52.392ZM96.2673 1.8V69H73.6113V18.888H62.0913V1.8H96.2673Z" fill="#FEB447" fill-opacity="0.1"/>
</svg>
