<svg width="210" height="201" viewBox="0 0 210 201" fill="none" xmlns="http://www.w3.org/2000/svg">
<path d="M30.0969 90.4633C30.0969 90.4633 65.458 81.2159 102.822 86.7922C113.333 88.3616 122.644 94.7369 128.316 104.096C138.537 120.958 152.988 151.005 149.932 182.344L133.888 186.479C133.888 186.479 122.8 149.289 110.322 134.153C110.322 134.153 95.5424 169.269 96.2914 188.554C96.3114 189.099 96.3451 189.631 96.3912 190.15C98.0878 209.017 25.4492 193.671 25.4492 193.671L30.0969 90.4633Z" fill="url(#paint0_linear)"/>
<path d="M58.6328 58.7729L60.2457 84.9196C60.3955 87.3518 61.9073 89.4132 64.0232 90.0664C68.8994 91.5708 78.1085 93.3862 87.138 89.5941C88.7883 88.9004 89.6372 86.8599 89.0817 85.0003L77.1423 45.019L58.6328 58.7729Z" fill="url(#paint1_linear)"/>
<path d="M54.5963 20.9053C54.5963 20.9053 46.9688 39.1698 46.4557 48.7568C45.9426 58.3438 43.9615 64.5643 54.5963 66.4955C65.2311 68.4267 74.1881 62.9037 79.0405 53.3544C79.0405 53.3544 86.6455 38.6388 84.939 32.6136C83.235 26.587 54.5963 20.9053 54.5963 20.9053Z" fill="url(#paint2_linear)"/>
<path d="M75.4067 46.4882H74.0635C74.0635 46.4882 79.6012 34.6446 74.7338 32.5638C69.8677 30.4829 50.5892 26.385 46.4309 19.2549C42.4199 12.3798 45.9977 3.50075 51.347 1.01648C51.6853 0.859013 52.086 1.02428 52.2583 1.36654L52.7002 2.24104C53.0036 2.83966 53.8524 2.74987 54.0322 2.0992C54.2045 1.48106 55.0022 1.34702 55.328 1.89098C56.6013 4.02389 60.0481 7.49198 69.296 9.27093C82.4163 11.7942 91.0887 17.3302 91.3034 26.7832C91.3159 27.3818 91.93 27.7123 92.4207 27.4C93.3906 26.7845 94.9399 26.4969 97.0121 28.3123C100.616 31.4706 99.1406 39.6626 91.2434 46.3997C90.8677 46.7198 90.8702 47.3314 91.2772 47.6073C92.7078 48.5794 94.8412 50.8893 89.3122 53.9735C83.6559 57.1254 80.3078 56.7818 79.0432 56.4435C78.7036 56.3537 78.4739 56.031 78.4964 55.6653L78.9933 47.2872C79.0182 46.8539 78.6887 46.4882 78.2717 46.4882H75.4067V46.4882Z" fill="url(#paint3_linear)"/>
<path d="M75.0781 48.2411C75.0781 48.2411 77.9881 36.5732 83.0065 39.8448C88.0249 43.1177 80.4024 52.9181 76.3677 53.3554L75.0781 48.2411Z" fill="url(#paint4_linear)"/>
<path d="M30.3177 165.643C28.7523 154.113 40.206 137.163 44.9448 130.731C46.2993 128.893 47.0558 126.643 47.0758 124.324C47.2143 107.993 40.6379 97.5067 30.098 90.4638C30.098 90.4638 -8.15187 136.917 1.58787 172.647C2.63899 176.502 4.26686 179.816 6.3329 182.662C7.86714 169.201 22.7963 166.263 30.3177 165.643Z" fill="url(#paint5_linear)"/>
<path d="M31.0313 161.182L29.5732 161.009C30.8091 149.702 40.3254 135.742 44.3614 130.266L45.5248 131.198C41.565 136.574 32.2248 150.256 31.0313 161.182Z" fill="url(#paint6_linear)"/>
<path d="M30.6165 167.239C30.4841 166.722 30.3893 166.184 30.3169 165.642C22.7955 166.264 7.86627 169.2 6.33203 182.662C23.4022 206.196 70.4493 197.706 70.4493 197.706V188.549C70.4505 188.549 34.3154 181.551 30.6165 167.239Z" fill="url(#paint7_linear)"/>
<path d="M65.9287 195.178C65.9287 195.178 72.8746 178.09 85.1148 184.151C97.3575 190.212 96.3938 194.178 96.3938 194.178L65.9287 195.178Z" fill="url(#paint8_linear)"/>
<path d="M64.3676 198.723C64.465 200.016 65.5224 200.999 66.7645 200.955L130.195 198.649C131.183 198.613 132.039 197.932 132.334 196.95L134.175 190.808C134.626 189.3 133.594 187.75 132.08 187.667L108.949 186.386C108.74 186.375 108.529 186.393 108.323 186.441L66.1828 196.17C65.0492 196.429 64.2765 197.52 64.3676 198.723Z" fill="url(#paint9_linear)"/>
<path d="M106.886 196.31L108.631 187.833L132.391 189.014L130.828 196.048L106.886 196.31Z" fill="url(#paint10_linear)"/>
<path d="M94.7047 105.057C93.359 116.511 87.3094 163.049 85.5779 176.345C85.3345 178.215 86.7589 179.858 88.569 179.805L191.186 176.743C192.529 176.702 193.675 175.717 193.966 174.35L209.929 99.4075C210.351 97.4269 208.839 95.5751 206.895 95.6935L97.4412 102.377C96.0293 102.464 94.8758 103.59 94.7047 105.057Z" fill="url(#paint11_linear)"/>
<path d="M135.953 152.052L120.788 196.926L156.054 197.706L158.991 152.323C159.129 150.192 157.435 148.425 155.391 148.566L138.922 149.706C137.57 149.799 136.405 150.722 135.953 152.052Z" fill="url(#paint12_linear)"/>
<path d="M106.49 197.566C106.102 198.801 106.984 200.071 108.231 200.071H163.459C164.471 200.071 165.29 199.217 165.29 198.162V195.693C165.29 194.607 164.423 193.739 163.382 193.785L108.154 196.254C107.389 196.289 106.728 196.811 106.49 197.566Z" fill="url(#paint13_linear)"/>
<path d="M93.1558 152.4L92.4268 152.304L97.4689 110.853C97.781 108.282 99.8096 106.303 102.291 106.147L196.875 100.192L196.919 100.956L102.335 106.911C100.207 107.045 98.4651 108.743 98.1979 110.951L93.1558 152.4Z" fill="#FEB447"/>
<path d="M91.7283 164.207L90.999 164.109L89.8912 173.079L90.6204 173.177L91.7283 164.207Z" fill="#FEB447"/>
<defs>
<linearGradient id="paint0_linear" x1="54.6294" y1="114.076" x2="150.148" y2="251.52" gradientUnits="userSpaceOnUse">
<stop stop-color="#FEB447"/>
<stop offset="1" stop-color="#D93C65"/>
</linearGradient>
<linearGradient id="paint1_linear" x1="74.6065" y1="119.509" x2="73.8093" y2="67.5004" gradientUnits="userSpaceOnUse">
<stop stop-color="#F9B776"/>
<stop offset="1" stop-color="#F47960"/>
</linearGradient>
<linearGradient id="paint2_linear" x1="52.9985" y1="36.9817" x2="97.9269" y2="69.9589" gradientUnits="userSpaceOnUse">
<stop stop-color="#F9B776"/>
<stop offset="1" stop-color="#F47960"/>
</linearGradient>
<linearGradient id="paint3_linear" x1="83.6335" y1="9.52469" x2="42.0805" y2="60.8462" gradientUnits="userSpaceOnUse">
<stop stop-color="#CB236D"/>
<stop offset="1" stop-color="#F06C46"/>
</linearGradient>
<linearGradient id="paint4_linear" x1="58.4065" y1="29.6155" x2="103.332" y2="62.5912" gradientUnits="userSpaceOnUse">
<stop stop-color="#F9B776"/>
<stop offset="1" stop-color="#F47960"/>
</linearGradient>
<linearGradient id="paint5_linear" x1="20.8358" y1="137.562" x2="116.353" y2="275.004" gradientUnits="userSpaceOnUse">
<stop stop-color="#FEB447"/>
<stop offset="1" stop-color="#D93C65"/>
</linearGradient>
<linearGradient id="paint6_linear" x1="47.2973" y1="129.958" x2="28.1525" y2="163.305" gradientUnits="userSpaceOnUse">
<stop stop-color="#FDF53F"/>
<stop offset="1" stop-color="#FEB447"/>
</linearGradient>
<linearGradient id="paint7_linear" x1="26.2952" y1="152.423" x2="56.2656" y2="228.082" gradientUnits="userSpaceOnUse">
<stop stop-color="#F9B776"/>
<stop offset="1" stop-color="#F47960"/>
</linearGradient>
<linearGradient id="paint8_linear" x1="60.8896" y1="138.72" x2="90.8597" y2="214.378" gradientUnits="userSpaceOnUse">
<stop stop-color="#F9B776"/>
<stop offset="1" stop-color="#F47960"/>
</linearGradient>
<linearGradient id="paint9_linear" x1="121.402" y1="166.494" x2="106.216" y2="185.259" gradientUnits="userSpaceOnUse">
<stop stop-color="#F5FA72"/>
<stop offset="1" stop-color="#C81F56"/>
</linearGradient>
<linearGradient id="paint10_linear" x1="132.184" y1="175.219" x2="116.998" y2="193.984" gradientUnits="userSpaceOnUse">
<stop stop-color="#FEB447"/>
<stop offset="1" stop-color="#FE840E"/>
</linearGradient>
<linearGradient id="paint11_linear" x1="137.064" y1="109.197" x2="164.653" y2="176.873" gradientUnits="userSpaceOnUse">
<stop stop-color="#C81F56"/>
<stop offset="1" stop-color="#F73866"/>
</linearGradient>
<linearGradient id="paint12_linear" x1="133.974" y1="136.412" x2="149.885" y2="230.281" gradientUnits="userSpaceOnUse">
<stop stop-color="#C81F56"/>
<stop offset="1" stop-color="#F73865"/>
</linearGradient>
<linearGradient id="paint13_linear" x1="127.367" y1="191.134" x2="171.72" y2="219.018" gradientUnits="userSpaceOnUse">
<stop stop-color="#C81F56"/>
<stop offset="1" stop-color="#C81F56"/>
</linearGradient>
</defs>
</svg>
